<svg aria-hidden="true" style="position: absolute; width: 0; height: 0; overflow: hidden;" version="1.1" xmlns="http://www.w3.org/2000/svg" xmlns:xlink="http://www.w3.org/1999/xlink">
<defs>
<symbol id="action" viewBox="0 0 15 15">
<path fill="#e7426a" style="fill: var(--color1, #e7426a)" d="M15 7.5c0 4.142-3.358 7.5-7.5 7.5s-7.5-3.358-7.5-7.5c0-4.142 3.358-7.5 7.5-7.5s7.5 3.358 7.5 7.5z"></path>
<path fill="#fff" style="fill: var(--color2, #fff)" d="M6.949 6.931c-0.281 0.288-0.644 0.431-1.088 0.431s-0.806-0.144-1.088-0.431c-0.275-0.294-0.413-0.659-0.413-1.097 0-0.444 0.141-0.813 0.422-1.106 0.281-0.3 0.641-0.45 1.078-0.45 0.444 0 0.806 0.15 1.088 0.45 0.288 0.294 0.431 0.663 0.431 1.106 0 0.438-0.144 0.803-0.431 1.097zM5.778 10.625h-0.506l3.994-6.253h0.516l-4.003 6.253zM10.212 10.306c-0.281 0.288-0.644 0.431-1.088 0.431s-0.806-0.144-1.088-0.431c-0.275-0.294-0.412-0.659-0.412-1.097 0-0.444 0.141-0.813 0.422-1.106 0.281-0.3 0.641-0.45 1.078-0.45 0.444 0 0.806 0.15 1.088 0.45 0.281 0.294 0.422 0.663 0.422 1.106 0 0.438-0.141 0.803-0.422 1.097zM5.187 6.594c0.175 0.2 0.4 0.3 0.675 0.3s0.503-0.1 0.684-0.3c0.181-0.206 0.272-0.459 0.272-0.759 0-0.312-0.091-0.569-0.272-0.769-0.175-0.206-0.403-0.309-0.684-0.309-0.275 0-0.5 0.103-0.675 0.309-0.175 0.2-0.263 0.456-0.263 0.769 0 0.3 0.087 0.553 0.263 0.759zM8.44 9.969c0.181 0.2 0.409 0.3 0.684 0.3s0.503-0.1 0.684-0.3c0.181-0.206 0.272-0.459 0.272-0.759 0-0.312-0.091-0.569-0.272-0.769-0.175-0.206-0.403-0.309-0.684-0.309s-0.509 0.103-0.684 0.309c-0.175 0.2-0.262 0.456-0.262 0.769 0 0.3 0.087 0.553 0.262 0.759z"></path>
</symbol>
<symbol id="bag" viewBox="0 0 15 15">
<path stroke-linejoin="round" stroke-linecap="round" stroke-miterlimit="10" stroke-width="0.6818" d="M12.273 3.821h-9.545v10.506h9.545v-10.506z"></path>
<path stroke-linejoin="round" stroke-linecap="round" stroke-miterlimit="10" stroke-width="0.6818" d="M4.969 5.102v-2.691c0-0.961 0.705-1.73 1.538-1.73h1.986c0.833 0 1.538 0.769 1.538 1.73v2.691"></path>
</symbol>
<symbol id="facebook" viewBox="0 0 15 15">
<path d="M10.461 7.775h-1.907v6.988h-2.89v-6.988h-1.374v-2.456h1.374v-1.589c0-1.136 0.54-2.916 2.916-2.916l2.141 0.009v2.384h-1.553c-0.255 0-0.613 0.127-0.613 0.669v1.445h2.16l-0.252 2.454z"></path>
</symbol>
<symbol id="instagram" viewBox="0 0 15 15">
<path d="M10.571 0.123h-6.466c-2.196 0-3.982 1.787-3.982 3.982v6.466c0 2.196 1.786 3.982 3.982 3.982h6.466c2.196 0 3.982-1.786 3.982-3.982v-6.466c0-2.196-1.786-3.982-3.982-3.982zM13.273 10.571c0 1.49-1.212 2.702-2.702 2.702h-6.466c-1.49 0-2.702-1.212-2.702-2.702v-6.466c0-1.49 1.212-2.702 2.702-2.702h6.466c1.49 0 2.702 1.212 2.702 2.702v6.466h0z"></path>
<path d="M7.339 3.62c-2.050 0-3.719 1.668-3.719 3.719s1.668 3.718 3.719 3.718c2.050 0 3.718-1.668 3.718-3.718s-1.668-3.719-3.718-3.719zM7.339 9.776c-1.344 0-2.438-1.094-2.438-2.438s1.094-2.438 2.438-2.438 2.438 1.094 2.438 2.438c0 1.344-1.094 2.438-2.438 2.438z"></path>
<path d="M11.213 2.534c-0.247 0-0.489 0.1-0.663 0.275s-0.276 0.417-0.276 0.664c0 0.247 0.101 0.489 0.276 0.664s0.417 0.275 0.663 0.275c0.248 0 0.489-0.101 0.664-0.275s0.275-0.417 0.275-0.664c0-0.248-0.1-0.49-0.275-0.664s-0.417-0.275-0.664-0.275z"></path>
</symbol>
<symbol id="phone" viewBox="0 0 15 15">
<path fill="none" stroke="#000" style="stroke: var(--color3, #000)" stroke-linejoin="round" stroke-linecap="round" stroke-miterlimit="10" stroke-width="0.75" d="M10.262 14.237h-5.524c-0.717 0-1.363-0.574-1.363-1.363v-10.761c0-0.717 0.574-1.363 1.363-1.363h5.524c0.717 0 1.363 0.574 1.363 1.363v10.761c0 0.717-0.646 1.363-1.363 1.363z"></path>
<path fill="none" stroke="#000" style="stroke: var(--color3, #000)" stroke-linejoin="round" stroke-linecap="round" stroke-miterlimit="10" stroke-width="0.75" d="M4.666 11.511h5.667"></path>
<path d="M7.392 13.376c0.277 0 0.502-0.225 0.502-0.502s-0.225-0.502-0.502-0.502c-0.277 0-0.502 0.225-0.502 0.502s0.225 0.502 0.502 0.502z"></path>
</symbol>
<symbol id="vk" viewBox="0 0 15 15">
<path d="M7.361 11.871h0.888c0 0 0.268-0.029 0.405-0.177 0.126-0.136 0.122-0.39 0.122-0.39s-0.017-1.192 0.536-1.368c0.545-0.173 1.246 1.152 1.988 1.661 0.561 0.386 0.988 0.301 0.988 0.301l1.985-0.028c0 0 1.038-0.064 0.546-0.88-0.040-0.067-0.287-0.604-1.476-1.708-1.244-1.155-1.078-0.968 0.421-2.966 0.913-1.217 1.278-1.96 1.164-2.278-0.109-0.303-0.78-0.223-0.78-0.223l-2.235 0.014c0 0-0.166-0.023-0.289 0.051-0.12 0.072-0.197 0.24-0.197 0.24s-0.354 0.942-0.825 1.742c-0.995 1.69-1.393 1.779-1.556 1.674-0.378-0.245-0.284-0.982-0.284-1.507 0-1.637 0.248-2.32-0.484-2.497-0.243-0.059-0.422-0.097-1.043-0.104-0.797-0.008-1.472 0.002-1.854 0.19-0.254 0.124-0.45 0.402-0.331 0.418 0.148 0.020 0.482 0.090 0.66 0.332 0.229 0.312 0.221 1.011 0.221 1.011s0.132 1.928-0.307 2.167c-0.301 0.164-0.714-0.171-1.602-1.704-0.455-0.785-0.798-1.653-0.798-1.653s-0.066-0.162-0.184-0.249c-0.143-0.105-0.343-0.139-0.343-0.139l-2.124 0.014c0 0-0.319 0.009-0.436 0.147-0.104 0.123-0.008 0.378-0.008 0.378s1.663 3.89 3.545 5.85c1.726 1.797 3.686 1.679 3.686 1.679z"></path>
</symbol>
<symbol id="close" viewBox="0 0 15 15">
<path d="M15 1.511l-1.511-1.511-5.989 5.989-5.989-5.989-1.511 1.511 5.989 5.989-5.989 5.989 1.511 1.511 5.989-5.989 5.989 5.989 1.511-1.511-5.989-5.989 5.989-5.989z"></path>
</symbol>
</defs>
</svg>
