<svg aria-hidden="true" style="position:absolute;width:0;height:0" xmlns="http://www.w3.org/2000/svg" overflow="hidden"><defs><symbol id="building-opt" viewBox="0 0 28 32"><path fill="var(--color1, #92c2d6)" d="M4.149 2.343v-.001l.001.001-.288 1.362.599-.354.636-.37.637.37.599.354-.288-1.362.001-.001v.001l1-.968-1.389-.085L5.096.017 4.535 1.29l-1.389.085 1 .968zM8.55 2.343v-.001l.001.001-.288 1.362.599-.354.636-.37.637.37.599.354-.288-1.362.001-.001v.001l1.001-.968-1.389-.085L9.498.017 8.937 1.29l-1.389.085 1.001.968zM12.926 2.343v-.001l.001.001-.144.681-.144.681.599-.354.636-.37.637.37.599.354-.288-1.362.001-.001v.001l1.001-.968-1.389-.085-.561-1.273-.561 1.273-1.389.085 1 .968zM17.368 2.343v-.001l.001.001-.288 1.362.599-.354.637-.37.637.37.599.354-.144-.681-.144-.681.001-.001v.001l1-.968-1.389-.085-.561-1.273-.561 1.273-1.389.085 1 .968zM21.746 2.343v-.001l.001.001-.288 1.362.599-.354.637-.37.637.37.599.354-.144-.681-.144-.681.001-.001v.001l1-.968-1.389-.085-.561-1.273-.561 1.273-1.389.085 1 .968zM27.233 6.594h-.915v-1.78c0-.3-.244-.544-.544-.544H2.035c-.3 0-.544.243-.544.544v1.78H.576c-.3 0-.544.243-.544.544V31.05c0 .3.243.544.544.544h26.655c.3 0 .544-.244.544-.544V7.138c0-.3-.244-.544-.544-.544zM2.579 5.358h22.652v1.237H2.579V5.358zm12.753 25.149h-2.853v-5.814h2.853v5.814zm11.357 0h-10.27V24.15c0-.3-.244-.544-.544-.544h-3.94c-.3 0-.544.244-.544.544v6.357H1.121V7.682h.739a.538.538 0 00.176.032h23.739a.538.538 0 00.176-.032h.739v22.825h-.001z"/><path fill="var(--color1, #92c2d6)" d="M8.049 9.035h-3.94c-.3 0-.544.243-.544.544v2.553c0 .3.243.544.544.544h3.94c.3 0 .544-.243.544-.544V9.579c0-.3-.243-.544-.544-.544zm-.544 2.553H4.652v-1.465h2.853v1.465zM15.875 9.035h-3.94c-.3 0-.544.243-.544.544v2.553c0 .3.243.544.544.544h3.94c.3 0 .544-.243.544-.544V9.579c0-.3-.244-.544-.544-.544zm-.543 2.553h-2.853v-1.465h2.853v1.465zM23.702 9.035h-3.94c-.3 0-.544.243-.544.544v2.553c0 .3.244.544.544.544h3.94c.3 0 .544-.243.544-.544V9.579c0-.3-.244-.544-.544-.544zm-.543 2.553h-2.853v-1.465h2.853v1.465zM8.049 13.891h-3.94c-.3 0-.544.243-.544.544v2.553c0 .3.243.544.544.544h3.94c.3 0 .544-.244.544-.544v-2.553c0-.3-.243-.544-.544-.544zm-.544 2.553H4.652v-1.465h2.853v1.465zM15.875 13.891h-3.94c-.3 0-.544.243-.544.544v2.553c0 .3.243.544.544.544h3.94c.3 0 .544-.244.544-.544v-2.553c0-.3-.244-.544-.544-.544zm-.543 2.553h-2.853v-1.465h2.853v1.465zM23.702 13.891h-3.94c-.3 0-.544.243-.544.544v2.553c0 .3.244.544.544.544h3.94c.3 0 .544-.244.544-.544v-2.553c0-.3-.244-.544-.544-.544zm-.543 2.553h-2.853v-1.465h2.853v1.465zM8.049 18.748h-3.94c-.3 0-.544.244-.544.544v2.553c0 .3.243.544.544.544h3.94c.3 0 .544-.244.544-.544v-2.553c0-.3-.243-.544-.544-.544zm-.544 2.553H4.652v-1.466h2.853v1.466zM15.875 18.748h-3.94c-.3 0-.544.244-.544.544v2.553c0 .3.243.544.544.544h3.94c.3 0 .544-.244.544-.544v-2.553c0-.3-.244-.544-.544-.544zm-.543 2.553h-2.853v-1.466h2.853v1.466zM23.702 18.748h-3.94c-.3 0-.544.244-.544.544v2.553c0 .3.244.544.544.544h3.94c.3 0 .544-.244.544-.544v-2.553c0-.3-.244-.544-.544-.544zm-.543 2.553h-2.853v-1.466h2.853v1.466zM8.049 23.604h-3.94c-.3 0-.544.244-.544.544v2.553c0 .3.243.544.544.544h3.94c.3 0 .544-.244.544-.544v-2.553c0-.3-.243-.544-.544-.544zm-.544 2.553H4.652v-1.466h2.853v1.466zM23.702 23.604h-3.94c-.3 0-.544.244-.544.544v2.553c0 .3.244.544.544.544h3.94c.3 0 .544-.244.544-.544v-2.553c0-.3-.244-.544-.544-.544zm-.543 2.553h-2.853v-1.466h2.853v1.466z"/></symbol><symbol id="cake-opt" viewBox="0 0 23 32"><path fill="var(--color2, #e58383)" d="M1.182 29.917l.446 1.28c.081.248.365.372.851.372h18.486c.486 0 .77-.124.851-.372l.446-1.28c.608 0 1.135-.537 1.135-1.156v-.578c0-.619-.527-1.156-1.135-1.156h-.568V15.011c0-.248-.162-.413-.405-.413h-.973V6.587c0-.248-.162-.413-.405-.413h-2.878V.847c0-.248-.162-.413-.405-.413H6.817c-.243 0-.405.165-.405.413v5.327H3.534c-.243 0-.405.165-.405.413v8.052h-.973c-.243 0-.405.165-.405.413v12.016h-.568c-.608 0-1.135.537-1.135 1.156v.537c.041.619.527 1.156 1.135 1.156zm19.824.826H2.317l-.284-.826h19.378l-.284.826h-.122zm-3.527-8.961c-.243 0-.405.165-.405.413a1.51 1.51 0 01-1.5 1.528c-.851 0-1.5-.702-1.5-1.528 0-.248-.162-.413-.405-.413s-.405.165-.405.413c0 .867-.689 1.528-1.5 1.528s-1.5-.702-1.5-1.528c0-.248-.162-.413-.405-.413s-.405.165-.405.413a1.51 1.51 0 01-1.5 1.528c-.851 0-1.5-.702-1.5-1.528 0-.248-.162-.413-.405-.413s-.405.165-.405.413a1.51 1.51 0 01-1.5 1.528c-.851 0-1.5-.702-1.5-1.528v-2.23c.405.372.932.578 1.5.578.811 0 1.5-.413 1.905-1.032a2.313 2.313 0 001.905 1.032c.811 0 1.5-.413 1.905-1.032.405.619 1.135 1.032 1.905 1.032s1.5-.413 1.905-1.032a2.313 2.313 0 001.905 1.032c.811 0 1.5-.413 1.905-1.032a2.313 2.313 0 001.905 1.032c.568 0 1.095-.206 1.5-.578v2.271a1.51 1.51 0 01-1.5 1.528c-.851 0-1.5-.702-1.5-1.528 0-.248-.162-.454-.405-.454zM16.263 1.26v1.734c0 .702-.568 1.239-1.216 1.239s-1.216-.578-1.216-1.239c0-.248-.162-.413-.405-.413s-.405.165-.405.413c0 .702-.568 1.239-1.216 1.239-.689 0-1.216-.578-1.216-1.239 0-.248-.162-.413-.405-.413s-.405.165-.405.413c0 .702-.568 1.239-1.216 1.239s-1.216-.578-1.216-1.239V1.26h8.919zm-9.04 3.386c.324.289.77.454 1.216.454.689 0 1.257-.33 1.622-.867.365.496.973.867 1.622.867.689 0 1.257-.33 1.622-.867.365.496.973.867 1.622.867.446 0 .892-.165 1.216-.413v1.528H7.224V4.646zm12.283 2.353v3.097c0 .702-.568 1.239-1.216 1.239s-1.216-.578-1.216-1.239c0-.248-.162-.413-.405-.413s-.405.165-.405.413c0 .702-.568 1.239-1.216 1.239s-1.216-.578-1.216-1.239c0-.248-.162-.413-.405-.413s-.405.165-.405.413c0 .702-.568 1.239-1.216 1.239-.689 0-1.216-.578-1.216-1.239 0-.248-.162-.413-.405-.413s-.405.165-.405.413c0 .702-.568 1.239-1.216 1.239s-1.216-.578-1.216-1.239c0-.248-.162-.413-.405-.413s-.405.165-.405.413c0 .702-.568 1.239-1.216 1.239s-1.216-.578-1.216-1.239V7.04h15.405v-.041zM3.979 11.707c.324.289.77.454 1.216.454.689 0 1.257-.33 1.622-.867.365.496.973.867 1.622.867.689 0 1.257-.33 1.622-.867.365.496.973.867 1.622.867.689 0 1.257-.33 1.622-.867.365.496.973.867 1.622.867s1.257-.33 1.622-.867c.365.496.973.867 1.622.867.446 0 .892-.165 1.216-.413v2.891H3.982v-2.932zm16.946 3.716v2.725a1.51 1.51 0 01-1.5 1.528c-.851 0-1.5-.702-1.5-1.528 0-.248-.162-.413-.405-.413s-.405.165-.405.413a1.51 1.51 0 01-1.5 1.528c-.851 0-1.5-.702-1.5-1.528 0-.248-.162-.413-.405-.413s-.405.165-.405.413c0 .867-.689 1.528-1.5 1.528s-1.5-.702-1.5-1.528c0-.248-.162-.413-.405-.413s-.405.165-.405.413a1.51 1.51 0 01-1.5 1.528c-.851 0-1.5-.702-1.5-1.528 0-.248-.162-.413-.405-.413s-.405.165-.405.413a1.51 1.51 0 01-1.5 1.528c-.851 0-1.5-.702-1.5-1.528v-2.684h18.243v-.041zM2.56 23.971c.405.372.932.578 1.5.578.811 0 1.5-.413 1.905-1.032a2.313 2.313 0 001.905 1.032c.811 0 1.5-.413 1.905-1.032.405.619 1.135 1.032 1.905 1.032s1.5-.413 1.905-1.032a2.313 2.313 0 001.905 1.032c.811 0 1.5-.413 1.905-1.032a2.313 2.313 0 001.905 1.032c.568 0 1.095-.206 1.5-.578v3.056H2.557v-3.056zM.898 28.224c0-.165.162-.33.324-.33h21.081c.162 0 .324.165.324.33v.537c0 .165-.162.33-.324.33H1.222c-.162 0-.324-.165-.324-.33v-.537z"/></symbol><symbol id="cart-opt" viewBox="0 0 35 32"><path fill="var(--color3, #d17eac)" d="M.964.539c-.434 0-.786.357-.786.798s.352.798.786.798h4.08l4.141 19.884c-.042.455.374.896.823.873h19.661c.416.006.798-.376.798-.798s-.382-.804-.798-.798H10.647l-.664-3.193h21.258a.816.816 0 00.762-.624l2.752-11.975c.102-.463-.294-.97-.762-.973H7.156l-.7-3.368a.814.814 0 00-.774-.624H.963zm6.525 5.589h25.522l-2.396 10.378H9.652L7.489 6.128zm6.451 18.361c-1.945 0-3.539 1.618-3.539 3.593s1.594 3.593 3.539 3.593 3.539-1.618 3.539-3.593c0-1.975-1.594-3.593-3.539-3.593zm11.797 0c-1.945 0-3.539 1.618-3.539 3.593s1.594 3.593 3.539 3.593 3.539-1.618 3.539-3.593c0-1.975-1.594-3.593-3.539-3.593zM13.94 26.086c1.095 0 1.966.884 1.966 1.996s-.871 1.996-1.966 1.996-1.966-.884-1.966-1.996.871-1.996 1.966-1.996zm11.797 0c1.095 0 1.966.884 1.966 1.996s-.871 1.996-1.966 1.996-1.966-.884-1.966-1.996.871-1.996 1.966-1.996z"/></symbol><symbol id="cofee-opt" viewBox="0 0 29 32"><path fill="var(--color4, #cc9180)" d="M22.777 14.419v-3.03h4.078a1.98 1.98 0 001.977-1.977V2.267A1.98 1.98 0 0026.855.29H4.607A4.04 4.04 0 00.573 4.324V31.58h28.26v-5.045h-5.605a3.507 3.507 0 001.066-2.525v-.505h1.515c.838 0 1.515-.678 1.515-1.515v-3.03c0-.838-.678-1.515-1.515-1.515h-1.515v-1.509H13.189v8.075c0 .986.407 1.879 1.066 2.525H9.66v-15.14h5.045v3.03h3.03v-3.03h2.02v3.03h3.024v-.006zm-1.01-1.01h-1.01v-2.02h1.01v2.02zm4.041 5.051c.277 0 .505.228.505.505v3.03a.507.507 0 01-.505.505h-1.515v-4.041h1.515zm-11.611 5.55v-7.065h9.085v7.065a2.528 2.528 0 01-2.525 2.525h-4.034a2.528 2.528 0 01-2.525-2.525zm2.525-10.601h-1.01v-2.02h1.01v2.02zm1.011-3.024H8.648v17.16h19.174v3.03H1.583V4.323a3.025 3.025 0 013.024-3.024h22.248c.536 0 .967.437.967.967v7.145a.974.974 0 01-.967.973h-9.122z"/><path fill="var(--color4, #cc9180)" d="M6.11 2.814c-1.392 0-2.525 1.133-2.525 2.525S4.718 7.864 6.11 7.864s2.525-1.133 2.525-2.525A2.524 2.524 0 006.11 2.814zm0 4.034a1.514 1.514 0 110-3.03 1.514 1.514 0 110 3.03zM19.245 4.828h-1.01v1.01h1.01v-1.01zM21.249 4.828h-1.01v1.01h1.01v-1.01zM17.203 4.828h-1.01v1.01h1.01v-1.01z"/></symbol><symbol id="house-opt" viewBox="0 0 32 32"><path fill="var(--color5, #fbbc8f)" d="M30.427 11.056L27.503 6.97V2.135c0-.941-.749-1.703-1.676-1.703H6.195c-.927 0-1.676.761-1.676 1.703V6.97l-2.923 4.086C-.531 14.027.38 16.482 3.562 16.895v12.97c0 .941.749 1.703 1.676 1.703h21.548c.927 0 1.676-.761 1.676-1.703v-12.97c3.18-.412 4.093-2.869 1.966-5.839zM5.716 2.135c0-.268.215-.486.479-.486h19.632c.264 0 .479.218.479.486v4.119H5.716V2.135zm6.464 5.336l-2.2 8.27H5.932l4.62-8.27h1.628zm1.241 0h1.839v8.27h-4.039l2.2-8.27zm3.035 0h1.839l2.2 8.27h-4.039v-8.27zm5.28 8.27l-2.2-8.27h1.628l4.62 8.27h-4.048zM1.778 14.677c-.339-.676-.052-1.735.786-2.906L5.641 7.47h3.534l-4.62 8.27h-.003c-1.424 0-2.436-.388-2.774-1.064zm17.791 15.674h-6.704V20.135h6.704v10.216zm7.216 0h-6.019V19.648a.723.723 0 00-.719-.73h-7.661a.723.723 0 00-.718.73v10.703H5.237a.483.483 0 01-.479-.487V16.956h22.505v12.908a.483.483 0 01-.479.487zm3.46-15.674c-.339.676-1.35 1.064-2.775 1.064h-.309l-4.62-8.27h3.841l3.078 4.301c.838 1.17 1.125 2.229.786 2.905z"/></symbol><symbol id="piramid-opt" viewBox="0 0 40 32"><path fill="var(--color6, #e67285)" d="M25.226 3.438C24.88 1.648 23.264.287 21.418.287h-3.039c-1.846 0-3.462 1.362-3.808 3.151-.5.156-.846.584-.846 1.128 0 .311.115.584.308.778a1.095 1.095 0 00-.308.778c0 .545.346.973.808 1.128a3.886 3.886 0 003.808 3.151h3.039c1.846 0 3.462-1.362 3.808-3.151a1.18 1.18 0 00.808-1.128 1.09 1.09 0 00-.308-.778c.192-.195.308-.467.308-.778.038-.545-.308-.973-.769-1.128zm-6.847-2.374h3.039a3.1 3.1 0 013 2.334h-.154l-.077-.078a.977.977 0 00-.731-.311h-.231c-.269 0-.539.117-.731.311a.292.292 0 01-.192.078h-.231a.29.29 0 01-.192-.078.977.977 0 00-.731-.311h-.231c-.269 0-.539.117-.731.311a.29.29 0 01-.192.078h-.231a.29.29 0 01-.192-.078.977.977 0 00-.731-.311h-.231c-.269 0-.539.117-.731.311a.29.29 0 01-.192.078h-.231a.29.29 0 01-.192-.078.977.977 0 00-.731-.311h-.231a1.05 1.05 0 00-.731.311l-.077.078h-.154c.385-1.362 1.616-2.334 3.039-2.334zm-3.501 3.113h.923l.308-.311c.077-.039.154-.078.192-.078h.231a.29.29 0 01.192.078c.192.195.462.311.731.311h.231c.269 0 .539-.117.731-.311.077-.039.154-.078.192-.078h.231a.29.29 0 01.192.078c.192.195.462.311.731.311h.231c.269 0 .539-.117.731-.311.077-.039.154-.078.192-.078h.231a.29.29 0 01.192.078c.192.195.462.311.731.311h.231c.269 0 .539-.117.731-.311.077-.039.154-.078.192-.078h.231a.29.29 0 01.192.078l.308.311h.923c.231 0 .385.156.385.389s-.154.389-.385.389H14.878c-.231 0-.385-.156-.385-.389s.192-.389.385-.389zm6.54 5.446h-3.039a3.1 3.1 0 01-3-2.334h9.078c-.385 1.362-1.616 2.334-3.039 2.334zm3.462-3.112H14.879c-.231 0-.385-.156-.385-.389s.154-.389.385-.389H24.88c.231 0 .385.156.385.389s-.154.389-.385.389zM11.737 24.681a3.886 3.886 0 00-3.808-3.151H4.89c-1.846 0-3.462 1.362-3.808 3.151-.5.156-.846.584-.846 1.128 0 .311.115.584.308.778a1.095 1.095 0 00-.308.778c0 .545.346.973.808 1.128a3.886 3.886 0 003.808 3.151h3.039c1.846 0 3.462-1.362 3.808-3.151a1.18 1.18 0 00.808-1.128 1.09 1.09 0 00-.308-.778c.192-.195.308-.467.308-.778.038-.545-.308-.973-.769-1.128zM4.89 22.307h3.039a3.1 3.1 0 013 2.334h-.154l-.077-.078a1.043 1.043 0 00-.731-.311h-.231c-.269 0-.539.117-.731.311a.29.29 0 01-.192.078h-.231a.29.29 0 01-.192-.078 1.043 1.043 0 00-.731-.311h-.231c-.269 0-.539.117-.731.311a.29.29 0 01-.192.078h-.231a.29.29 0 01-.192-.078 1.043 1.043 0 00-.731-.311H5.12c-.269 0-.539.117-.731.311a.29.29 0 01-.192.078h-.231a.29.29 0 01-.192-.078 1.043 1.043 0 00-.731-.311h-.231c-.269 0-.539.117-.731.311l-.077.078H1.85c.385-1.362 1.616-2.334 3.039-2.334zM1.389 25.42h.923l.308-.311a.29.29 0 01.192-.078h.231a.29.29 0 01.192.078c.192.195.462.311.731.311h.231c.269 0 .539-.117.731-.311a.29.29 0 01.192-.078h.231a.29.29 0 01.192.078c.192.195.462.311.731.311h.231c.269 0 .539-.117.731-.311a.292.292 0 01.192-.078h.231a.29.29 0 01.192.078c.192.195.462.311.731.311h.231c.269 0 .539-.117.731-.311a.29.29 0 01.192-.078h.231a.29.29 0 01.192.078l.308.311h.923c.231 0 .385.156.385.389s-.154.389-.385.389H1.389c-.231 0-.385-.156-.385-.389s.154-.389.385-.389zm6.501 5.446H4.851a3.1 3.1 0 01-3-2.334h9.078c-.385 1.362-1.616 2.334-3.039 2.334zm3.501-3.112H1.39c-.231 0-.385-.156-.385-.389s.154-.389.385-.389h10.001c.231 0 .385.156.385.389a.388.388 0 01-.385.389zM25.358 24.681a3.886 3.886 0 00-3.808-3.151h-3.039c-1.846 0-3.462 1.362-3.808 3.151a1.18 1.18 0 00-.808 1.128c0 .311.115.584.308.778a1.095 1.095 0 00-.308.778c0 .545.346.973.808 1.128a3.886 3.886 0 003.808 3.151h3.039c1.846 0 3.462-1.362 3.808-3.151a1.18 1.18 0 00.808-1.128 1.09 1.09 0 00-.308-.778c.192-.195.308-.467.308-.778 0-.545-.346-.973-.808-1.128zm-6.847-2.374h3.039a3.1 3.1 0 013 2.334h-.154l-.077-.078a1.043 1.043 0 00-.731-.311h-.231a1.05 1.05 0 00-.731.311.29.29 0 01-.192.078h-.231a.29.29 0 01-.192-.078 1.043 1.043 0 00-.731-.311h-.231c-.269 0-.539.117-.731.311a.29.29 0 01-.192.078h-.231a.29.29 0 01-.192-.078 1.043 1.043 0 00-.731-.311h-.231c-.269 0-.539.117-.731.311a.29.29 0 01-.192.078h-.231a.29.29 0 01-.192-.078 1.043 1.043 0 00-.731-.311h-.231c-.269 0-.539.117-.731.311l-.077.078h-.154c.385-1.362 1.616-2.334 3.039-2.334zM15.01 25.42h.923l.308-.311a.29.29 0 01.192-.078h.231a.29.29 0 01.192.078c.192.195.462.311.731.311h.231c.269 0 .539-.117.731-.311a.29.29 0 01.192-.078h.231a.29.29 0 01.192.078c.192.195.462.311.731.311h.231c.269 0 .538-.117.731-.311a.29.29 0 01.192-.078h.231a.29.29 0 01.192.078c.192.195.462.311.731.311h.231c.269 0 .539-.117.731-.311a.29.29 0 01.192-.078h.231a.29.29 0 01.192.078l.308.311h.923c.231 0 .385.156.385.389s-.154.389-.385.389H15.01c-.231 0-.385-.156-.385-.389s.192-.389.385-.389zm6.539 5.446H18.51a3.1 3.1 0 01-3-2.334h9.078c-.385 1.362-1.616 2.334-3.039 2.334zm3.462-3.112H15.01c-.231 0-.385-.156-.385-.389s.154-.389.385-.389h10.001c.231 0 .385.156.385.389a.388.388 0 01-.385.389zM38.962 24.681a3.886 3.886 0 00-3.808-3.151h-3.039c-1.846 0-3.462 1.362-3.808 3.151a1.18 1.18 0 00-.808 1.128c0 .311.115.584.308.778a1.095 1.095 0 00-.308.778c0 .545.346.973.808 1.128a3.886 3.886 0 003.808 3.151h3.039c1.846 0 3.462-1.362 3.808-3.151a1.18 1.18 0 00.808-1.128 1.09 1.09 0 00-.308-.778c.192-.195.308-.467.308-.778.038-.545-.308-.973-.808-1.128zm-6.847-2.374h3.039a3.1 3.1 0 013 2.334H38l-.077-.078a1.043 1.043 0 00-.731-.311h-.231c-.269 0-.539.117-.731.311a.29.29 0 01-.192.078h-.231a.29.29 0 01-.192-.078 1.043 1.043 0 00-.731-.311h-.231a1.05 1.05 0 00-.731.311.29.29 0 01-.192.078h-.231a.29.29 0 01-.192-.078 1.043 1.043 0 00-.731-.311h-.231c-.269 0-.539.117-.731.311a.29.29 0 01-.192.078h-.231a.29.29 0 01-.192-.078 1.043 1.043 0 00-.731-.311h-.231a1.05 1.05 0 00-.731.311l-.077.078h-.154c.385-1.362 1.616-2.334 3.039-2.334zm-3.462 3.113h.923l.308-.311a.29.29 0 01.192-.078h.231a.29.29 0 01.192.078c.192.195.462.311.731.311h.231c.269 0 .538-.117.731-.311a.29.29 0 01.192-.078h.231a.29.29 0 01.192.078c.192.195.462.311.731.311h.231c.269 0 .539-.117.731-.311a.29.29 0 01.192-.078h.231a.29.29 0 01.192.078c.192.195.462.311.731.311h.231c.269 0 .539-.117.731-.311a.29.29 0 01.192-.078h.231a.29.29 0 01.192.078l.308.311h.923c.231 0 .385.156.385.389s-.154.389-.385.389H28.653c-.231 0-.385-.156-.385-.389s.154-.389.385-.389zm6.501 5.446h-3.039a3.1 3.1 0 01-3-2.334h9.078c-.385 1.362-1.616 2.334-3.039 2.334zm3.5-3.112H28.653c-.231 0-.385-.156-.385-.389s.154-.389.385-.389h10.001c.231 0 .385.156.385.389 0 .195-.192.389-.385.389zM18.544 14.057a3.886 3.886 0 00-3.808-3.151h-3.039c-1.846 0-3.462 1.362-3.808 3.151a1.18 1.18 0 00-.808 1.128c0 .311.115.584.308.778a1.095 1.095 0 00-.308.778c0 .545.346.973.808 1.128a3.886 3.886 0 003.808 3.151h3.039c1.846 0 3.462-1.362 3.808-3.151a1.18 1.18 0 00.808-1.128 1.09 1.09 0 00-.308-.778c.192-.194.308-.467.308-.778 0-.545-.346-1.011-.808-1.128zm-6.847-2.412h3.039a3.1 3.1 0 013 2.334h-.154l-.077-.078a1.047 1.047 0 00-.731-.311h-.231c-.269 0-.539.117-.731.311a.29.29 0 01-.192.078h-.231a.29.29 0 01-.192-.078 1.047 1.047 0 00-.731-.311h-.231c-.269 0-.539.117-.731.311a.29.29 0 01-.192.078h-.231a.29.29 0 01-.192-.078 1.047 1.047 0 00-.731-.311h-.231c-.269 0-.539.117-.731.311a.29.29 0 01-.192.078h-.231a.29.29 0 01-.192-.078 1.047 1.047 0 00-.731-.311h-.231a1.05 1.05 0 00-.731.311l-.077.078h-.154c.385-1.362 1.616-2.334 3.039-2.334zm-3.501 3.112h.923l.308-.311a.29.29 0 01.192-.078h.231a.29.29 0 01.192.078c.192.194.462.311.731.311h.231c.269 0 .539-.117.731-.311a.29.29 0 01.192-.078h.231a.29.29 0 01.192.078c.192.194.462.311.731.311h.231c.269 0 .539-.117.731-.311a.29.29 0 01.192-.078h.231a.29.29 0 01.192.078c.192.194.462.311.731.311h.231c.269 0 .539-.117.731-.311a.29.29 0 01.192-.078h.231a.29.29 0 01.192.078l.308.311h.923c.231 0 .385.156.385.389s-.154.389-.385.389H8.196c-.231 0-.385-.156-.385-.389s.192-.389.385-.389zm6.54 5.447h-3.039a3.1 3.1 0 01-3-2.334h9.078c-.423 1.362-1.616 2.334-3.039 2.334zm3.462-3.112H8.197c-.231 0-.385-.156-.385-.389s.154-.389.385-.389h10.001c.231 0 .385.156.385.389s-.154.389-.385.389zM32.175 14.057a3.886 3.886 0 00-3.808-3.151h-3.039c-1.846 0-3.462 1.362-3.808 3.151a1.18 1.18 0 00-.808 1.128c0 .311.115.584.308.778a1.095 1.095 0 00-.308.778c0 .545.346.973.808 1.128a3.886 3.886 0 003.808 3.151h3.039c1.846 0 3.462-1.362 3.808-3.151a1.18 1.18 0 00.808-1.128 1.09 1.09 0 00-.308-.778c.192-.194.308-.467.308-.778 0-.545-.346-1.011-.808-1.128zm-6.847-2.412h3.039a3.1 3.1 0 013 2.334h-.154l-.077-.078a1.047 1.047 0 00-.731-.311h-.231c-.269 0-.539.117-.731.311a.29.29 0 01-.192.078h-.231a.29.29 0 01-.192-.078 1.047 1.047 0 00-.731-.311h-.231a1.05 1.05 0 00-.731.311.29.29 0 01-.192.078h-.231a.29.29 0 01-.192-.078 1.047 1.047 0 00-.731-.311h-.231c-.269 0-.539.117-.731.311a.29.29 0 01-.192.078h-.231a.29.29 0 01-.192-.078 1.047 1.047 0 00-.731-.311h-.231a1.05 1.05 0 00-.731.311l-.077.078h-.154c.385-1.362 1.616-2.334 3.039-2.334zm-3.5 3.112h.923l.308-.311a.29.29 0 01.192-.078h.231a.29.29 0 01.192.078c.192.194.462.311.731.311h.231c.269 0 .538-.117.731-.311a.29.29 0 01.192-.078h.231a.29.29 0 01.192.078c.192.194.462.311.731.311h.231c.269 0 .539-.117.731-.311a.29.29 0 01.192-.078h.231a.29.29 0 01.192.078c.192.194.462.311.731.311h.231c.269 0 .539-.117.731-.311a.29.29 0 01.192-.078h.231a.29.29 0 01.192.078l.308.311h.923c.231 0 .385.156.385.389s-.154.389-.385.389H21.828c-.231 0-.385-.156-.385-.389s.192-.389.385-.389zm6.539 5.447h-3.039a3.1 3.1 0 01-3-2.334h9.078c-.385 1.362-1.616 2.334-3.039 2.334zm3.462-3.112H21.828c-.231 0-.385-.156-.385-.389s.154-.389.385-.389h10.001c.231 0 .385.156.385.389s-.154.389-.385.389z"/></symbol><symbol id="present-opt" viewBox="0 0 34 32"><path fill="var(--color7, #57b6bb)" d="M32.32 22.38c-.464-2.434-2.608-4.172-5.099-4.172h-4.056c-2.492 0-4.636 1.796-5.099 4.172a1.495 1.495 0 00-1.101 1.449c0 .406.174.753.406 1.043-.232.29-.406.637-.406 1.043 0 .695.464 1.275 1.101 1.449.464 2.434 2.608 4.172 5.099 4.172h4.056c2.492 0 4.636-1.796 5.099-4.172a1.495 1.495 0 001.101-1.449c0-.406-.174-.753-.406-1.043.232-.29.406-.637.406-1.043 0-.637-.464-1.275-1.101-1.449zm-9.156-3.129h4.056c1.912 0 3.535 1.275 4.056 3.071h-.174l-.116-.116a1.356 1.356 0 00-.985-.406h-.29c-.348 0-.695.116-.985.406a.44.44 0 01-.232.116h-.29c-.116 0-.174-.058-.232-.116a1.356 1.356 0 00-.985-.406h-.29c-.348 0-.695.116-.985.406a.44.44 0 01-.232.116h-.29c-.116 0-.174-.058-.232-.116a1.356 1.356 0 00-.985-.406h-.29c-.348 0-.695.116-.985.406a.44.44 0 01-.232.116h-.29c-.116 0-.174-.058-.232-.116a1.356 1.356 0 00-.985-.406h-.29c-.348 0-.695.116-.985.406l-.348.116h-.174a4.105 4.105 0 013.998-3.071zm-4.635 4.114h1.217l.406-.406a.44.44 0 01.232-.116h.29c.116 0 .174.058.232.116.29.29.637.406.985.406h.348c.348 0 .695-.116.985-.406a.44.44 0 01.232-.116h.29c.116 0 .174.058.232.116.29.29.637.406.985.406h.29c.348 0 .695-.116.985-.406a.44.44 0 01.232-.116h.406c.116 0 .174.058.232.116.29.29.637.406.985.406h.29c.348 0 .695-.116.985-.406a.44.44 0 01.232-.116h.29c.116 0 .174.058.232.116l.406.406h1.217c.29 0 .522.232.522.522s-.232.522-.522.522H18.533c-.29 0-.521-.232-.521-.522s.232-.522.521-.522zm8.692 7.186h-4.056c-1.912 0-3.535-1.275-4.056-3.071H31.22a4.105 4.105 0 01-3.998 3.071zm4.635-4.115H18.528c-.29 0-.521-.232-.521-.522s.232-.521.521-.521h13.386a.52.52 0 01.522.521c-.058.29-.29.522-.579.522z"/><path fill="var(--color7, #57b6bb)" d="M17.482 27.62h-2.086V12.675h6.78v5.036h.521c.232 0 .406 0 .579.058v-5.036h1.101c.29 0 .579-.29.579-.579V6.997c0-.29-.29-.579-.579-.579h-6.432c.522-.58.869-1.391.869-2.26A3.364 3.364 0 0015.453.797c-1.101 0-2.086.522-2.666 1.333A3.682 3.682 0 009.542.218a3.636 3.636 0 00-3.651 3.651c0 .985.406 1.854 1.043 2.55H.792c-.29 0-.579.29-.579.579v5.041c0 .29.29.579.579.579h1.101v15.525c0 .29.29.579.579.579h15.414a6.173 6.173 0 01-.406-1.101zm6.374-20.045v3.94h-8.46v-3.94h8.46zm-10.662-3.36c0-1.275.985-2.26 2.26-2.26s2.26.985 2.26 2.26-.985 2.26-2.26 2.26h-2.26v-2.26zm-3.709-2.84a2.535 2.535 0 012.55 2.55v2.55h-2.55a2.535 2.535 0 01-2.55-2.55c.058-1.391 1.159-2.55 2.55-2.55zm.29 26.245H3.053V12.675h6.78V27.62h-.058zm0-16.104h-8.46v-3.94h8.46v3.94zm4.52 16.104h-3.361V12.675h3.361V27.62zm0-16.104h-3.361v-3.94h3.361v3.94z"/></symbol><symbol id="tea-opt" viewBox="0 0 33 32"><path fill="var(--color8, #8a8cdc)" d="M32.15 15.924v-4.145h-6.788c.155-.155.311-.311.415-.518h.933c1.295 0 2.332-1.036 2.332-2.332s-1.036-2.332-2.332-2.332h-7.513v2.591c0 1.036.415 1.917 1.088 2.591h-5.752v4.145h1.036v-1.036h.725l1.036 2.073h.829v12.954c0 .57-.466 1.036-1.036 1.036s-1.036-.466-1.036-1.036h-1.036c0 1.14.933 2.073 2.073 2.073s2.073-.933 2.073-2.073v-7.254h8.291v7.254c0 1.14.933 2.073 2.073 2.073s2.073-.933 2.073-2.073h-1.036c0 .57-.466 1.036-1.036 1.036s-1.036-.466-1.036-1.036V16.961h.829l1.036-2.073h.725v1.036h1.036zm-5.441-8.291c.725 0 1.295.57 1.295 1.295s-.57 1.295-1.295 1.295h-.415c.104-.311.155-.674.155-1.036V7.633h.259zm-6.477 1.555V7.634h5.182v1.554c0 1.451-1.14 2.591-2.591 2.591s-2.591-1.14-2.591-2.591zm-1.037 12.436v-1.036h8.291v1.036h-8.291zm8.291-2.072h-8.291v-2.591h8.291v2.591zm1.244-3.628H17.952l-.518-1.036h11.814l-.518 1.036zm-13.162-2.072v-1.036h15.545v1.036H15.568zM12.457 30.433c0 .311-.207.518-.518.518s-.518-.207-.518-.518v-8.291h.518c.57 0 1.036-.466 1.036-1.036V20.07c0-.57-.466-1.036-1.036-1.036H3.648L3.13 8.152c0-.881-.674-1.554-1.555-1.554S.02 7.272.02 8.152v.518h1.036v-.518c0-.311.207-.518.518-.518s.518.207.518.518l.518 11.4v2.591h1.036v8.291c0 .311-.207.518-.518.518s-.518-.207-.518-.518v-.518H1.574v.518c0 .881.674 1.555 1.555 1.555s1.555-.674 1.555-1.555v-8.291h5.7v8.291c0 .881.674 1.555 1.554 1.555s1.555-.674 1.555-1.555v-.518h-1.036v.518zM3.648 20.07h8.291v1.036H3.648V20.07zM20.758 2.762c-.311.311-.518.777-.518 1.244s.207.933.518 1.244l.674.674.725-.725-.674-.674c-.155-.155-.207-.311-.207-.518s.052-.363.207-.518l.311-.311c.311-.311.518-.777.518-1.244s-.207-.933-.518-1.244L21.12.016l-.725.725.674.674c.155.155.207.311.207.518s-.052.363-.207.518l-.311.311zM23.857 2.762c-.311.311-.518.777-.518 1.244s.207.933.518 1.244l.674.674.725-.725-.674-.674c-.155-.155-.207-.311-.207-.518s.052-.363.207-.518l.311-.311c.311-.311.518-.777.518-1.244s-.207-.933-.518-1.244l-.674-.674-.725.725.674.674c.155.155.207.311.207.518s-.052.363-.207.518l-.311.311z"/></symbol></defs></svg>