<svg aria-hidden="true" style="position: absolute; width: 0; height: 0; overflow: hidden;" version="1.1" xmlns="http://www.w3.org/2000/svg" xmlns:xlink="http://www.w3.org/1999/xlink">
<defs>
<symbol id="icon-car-red" viewBox="0 0 32 32">
<path fill="#e7426a" style="fill: var(--color1, #e7426a)" d="M29.82 16.185l-3.71-4.406c-0.093-0.093-0.232-0.186-0.371-0.186h-5.101v7.42h-18.551v3.246c0 0.278 0.186 0.464 0.464 0.464h2.69c-0.046 0.139-0.046 0.325-0.046 0.464 0 1.299 1.020 2.319 2.319 2.319s2.319-1.020 2.319-2.319c0-0.139 0-0.325-0.046-0.464h12.754c-0.046 0.139-0.046 0.325-0.046 0.464 0 1.299 1.020 2.319 2.319 2.319s2.319-1.020 2.319-2.319c0-0.139 0-0.325-0.046-0.464h2.365c0.278 0 0.464-0.186 0.464-0.464v-5.797c0-0.093-0.046-0.186-0.093-0.278zM28.475 16h-3.2v-1.623h1.809l1.391 1.623zM7.513 24.58c-0.788 0-1.391-0.603-1.391-1.391 0-0.232 0.046-0.464 0.186-0.696 0.232-0.417 0.696-0.696 1.206-0.696 0.139 0 0.232 0 0.371 0.046 0.232 0.046 0.464 0.186 0.603 0.371 0.093 0.093 0.139 0.185 0.232 0.278 0.139 0.232 0.186 0.464 0.186 0.696 0 0.788-0.649 1.391-1.391 1.391zM24.812 24.58c-0.788 0-1.391-0.603-1.391-1.391 0-0.232 0.046-0.464 0.185-0.696 0.232-0.417 0.696-0.696 1.206-0.696 0.139 0 0.232 0 0.371 0.046 0.232 0.046 0.464 0.186 0.603 0.371 0.093 0.093 0.139 0.185 0.232 0.278 0.139 0.232 0.186 0.464 0.186 0.696 0 0.788-0.603 1.391-1.391 1.391zM28.986 21.797h-2.319c0-0.046-0.046-0.046-0.046-0.093-0.046-0.046-0.093-0.093-0.139-0.139s-0.046-0.046-0.093-0.093-0.093-0.093-0.139-0.093c-0.046-0.046-0.046-0.046-0.093-0.046-0.046-0.046-0.093-0.046-0.139-0.093-0.046 0-0.046-0.046-0.093-0.046-0.046-0.046-0.093-0.046-0.139-0.093-0.046 0-0.093-0.046-0.093-0.046-0.046 0-0.093-0.046-0.185-0.046-0.046 0-0.093 0-0.093-0.046-0.046 0-0.139-0.046-0.185-0.046s-0.046 0-0.093 0c-0.093 0-0.185 0-0.278 0s-0.185 0-0.278 0c-0.046 0-0.046 0-0.093 0s-0.139 0-0.186 0.046c-0.046 0-0.093 0-0.093 0.046-0.046 0-0.093 0.046-0.186 0.046-0.046 0-0.093 0.046-0.093 0.046-0.046 0.046-0.093 0.046-0.139 0.093-0.046 0-0.046 0.046-0.093 0.046-0.046 0.046-0.093 0.046-0.139 0.093-0.046 0-0.046 0.046-0.093 0.046-0.046 0.046-0.093 0.093-0.139 0.093-0.046 0.046-0.046 0.046-0.093 0.093s-0.093 0.093-0.139 0.139c0 0.046-0.046 0.046-0.046 0.093h-13.681c0-0.046-0.046-0.046-0.046-0.093-0.046-0.046-0.093-0.093-0.139-0.139s-0.046-0.046-0.093-0.093-0.093-0.093-0.139-0.093c-0.046-0.046-0.046-0.046-0.093-0.046-0.046-0.046-0.093-0.046-0.139-0.093-0.046 0-0.046-0.046-0.093-0.046-0.046-0.046-0.093-0.046-0.139-0.093-0.046 0-0.093-0.046-0.093-0.046-0.046 0-0.093-0.046-0.186-0.046-0.046 0-0.093 0-0.093-0.046-0.046 0-0.139-0.046-0.186-0.046s-0.046 0-0.093 0c-0.093 0-0.186 0-0.278 0s-0.186 0-0.278 0c-0.046 0-0.046 0-0.093 0s-0.139 0-0.185 0.046c-0.046 0-0.093 0-0.093 0.046-0.046 0-0.093 0.046-0.139 0.046s-0.093 0.046-0.139 0.046c-0.046 0-0.093 0.046-0.139 0.046s-0.093 0.046-0.139 0.046c-0.046 0.046-0.093 0.046-0.139 0.093s-0.093 0.046-0.093 0.093-0.046 0.046-0.093 0.093-0.093 0.046-0.093 0.093c-0.139 0.046-0.139 0.093-0.186 0.139s-0.046 0.093-0.093 0.093h-2.643v-1.855h18.087c0.278 0 0.464-0.186 0.464-0.464v-6.957h3.942l0.788 0.928h-1.484c-0.278 0-0.464 0.185-0.464 0.464v2.551c0 0.278 0.186 0.464 0.464 0.464h4.174v4.87z"></path>
<path fill="#e7426a" style="fill: var(--color1, #e7426a)" d="M17.948 10.017c-0.417-2.18-2.319-3.757-4.591-3.757h-3.617c-2.226 0-4.128 1.577-4.591 3.757-0.557 0.186-0.974 0.696-0.974 1.299 0 0.371 0.139 0.696 0.371 0.928-0.232 0.232-0.371 0.557-0.371 0.928 0 0.603 0.417 1.159 0.974 1.299 0.417 2.18 2.319 3.757 4.591 3.757h3.617c2.226 0 4.128-1.577 4.591-3.757 0.557-0.186 0.974-0.696 0.974-1.299 0-0.371-0.139-0.696-0.371-0.928 0.232-0.232 0.371-0.557 0.371-0.928 0.046-0.603-0.371-1.113-0.974-1.299zM9.739 7.188h3.617c1.716 0 3.154 1.159 3.617 2.783h-0.186l-0.093-0.093c-0.186-0.278-0.51-0.371-0.835-0.371h-0.278c-0.325 0-0.649 0.139-0.881 0.371-0.046 0.046-0.139 0.093-0.232 0.093h-0.278c-0.093 0-0.186-0.046-0.232-0.093-0.232-0.278-0.557-0.371-0.881-0.371h-0.278c-0.325 0-0.649 0.139-0.881 0.371-0.046 0.046-0.139 0.093-0.232 0.093h-0.278c-0.093 0-0.186-0.046-0.232-0.093-0.186-0.278-0.51-0.371-0.835-0.371h-0.278c-0.325 0-0.649 0.139-0.881 0.371-0.046 0.046-0.139 0.093-0.232 0.093h-0.278c-0.093 0-0.186-0.046-0.232-0.093-0.232-0.278-0.557-0.371-0.881-0.371h-0.278c-0.325 0-0.649 0.139-0.881 0.371l-0.093 0.046h-0.139c0.417-1.577 1.901-2.736 3.571-2.736zM5.565 10.852h1.113l0.371-0.371c0.093-0.046 0.139-0.093 0.232-0.093h0.278c0.093 0 0.185 0.046 0.232 0.093 0.232 0.232 0.557 0.371 0.881 0.371h0.278c0.325 0 0.649-0.139 0.881-0.371 0.046-0.046 0.139-0.093 0.232-0.093h0.278c0.093 0 0.185 0.046 0.232 0.093 0.232 0.232 0.557 0.371 0.881 0.371h0.278c0.325 0 0.649-0.139 0.881-0.371 0.046-0.046 0.139-0.093 0.186-0.093h0.278c0.093 0 0.186 0.046 0.232 0.093 0.232 0.232 0.557 0.371 0.881 0.371h0.278c0.325 0 0.649-0.139 0.881-0.371 0.046-0.046 0.139-0.093 0.232-0.093h0.278c0.093 0 0.186 0.046 0.232 0.093l0.371 0.371h1.113c0.232 0 0.464 0.186 0.464 0.464s-0.185 0.464-0.464 0.464h-12.012c-0.232 0-0.464-0.185-0.464-0.464s0.232-0.464 0.464-0.464zM13.403 17.299h-3.617c-1.716 0-3.154-1.159-3.617-2.783h10.852c-0.464 1.67-1.902 2.783-3.617 2.783zM17.577 13.635h-12.012c-0.232 0-0.464-0.186-0.464-0.464s0.186-0.464 0.464-0.464h11.965c0.232 0 0.464 0.185 0.464 0.464s-0.186 0.464-0.417 0.464z"></path>
</symbol>
<symbol id="icon-hand" viewBox="0 0 32 32">
<path fill="#e7426a" style="fill: var(--color1, #e7426a)" d="M25.453 7.401c-0.353-1.873-1.962-3.227-3.885-3.227h-3.061c-1.884 0-3.493 1.355-3.885 3.227-0.471 0.159-0.824 0.598-0.824 1.116 0 0.319 0.118 0.598 0.314 0.797-0.196 0.199-0.314 0.478-0.314 0.797 0 0.518 0.353 0.996 0.824 1.116 0.353 1.873 1.962 3.228 3.885 3.228h3.061c1.884 0 3.493-1.355 3.885-3.228 0.471-0.159 0.824-0.598 0.824-1.116 0-0.319-0.118-0.598-0.314-0.797 0.196-0.199 0.314-0.478 0.314-0.797 0.039-0.518-0.314-0.956-0.824-1.116zM18.507 4.971h3.061c1.452 0 2.669 0.996 3.061 2.391h-0.157l-0.078-0.080c-0.157-0.239-0.432-0.319-0.706-0.319h-0.235c-0.275 0-0.549 0.12-0.746 0.319-0.039 0.040-0.118 0.080-0.196 0.080h-0.235c-0.079 0-0.157-0.040-0.196-0.080-0.196-0.239-0.471-0.319-0.746-0.319h-0.235c-0.275 0-0.549 0.12-0.746 0.319-0.039 0.040-0.118 0.080-0.196 0.080h-0.235c-0.078 0-0.157-0.040-0.196-0.080-0.157-0.239-0.432-0.319-0.706-0.319h-0.235c-0.275 0-0.549 0.12-0.746 0.319-0.039 0.040-0.118 0.080-0.196 0.080h-0.235c-0.078 0-0.157-0.040-0.196-0.080-0.196-0.239-0.471-0.319-0.746-0.319h-0.235c-0.275 0-0.549 0.12-0.746 0.319l-0.078 0.040h-0.118c0.353-1.355 1.609-2.351 3.022-2.351zM14.975 8.119h0.942l0.314-0.319c0.078-0.040 0.118-0.080 0.196-0.080h0.235c0.079 0 0.157 0.040 0.196 0.080 0.196 0.199 0.471 0.319 0.746 0.319h0.235c0.275 0 0.549-0.12 0.746-0.319 0.039-0.040 0.118-0.080 0.196-0.080h0.235c0.078 0 0.157 0.040 0.196 0.080 0.196 0.199 0.471 0.319 0.746 0.319h0.235c0.275 0 0.549-0.12 0.746-0.319 0.039-0.040 0.118-0.080 0.157-0.080h0.235c0.078 0 0.157 0.040 0.196 0.080 0.196 0.199 0.471 0.319 0.746 0.319h0.235c0.275 0 0.549-0.12 0.746-0.319 0.039-0.040 0.118-0.080 0.196-0.080h0.235c0.079 0 0.157 0.040 0.196 0.080l0.314 0.319h0.942c0.196 0 0.392 0.159 0.392 0.398s-0.157 0.398-0.392 0.398h-10.165c-0.196 0-0.393-0.159-0.393-0.398s0.196-0.398 0.393-0.398zM21.607 13.657h-3.061c-1.452 0-2.669-0.996-3.061-2.391h9.183c-0.392 1.434-1.609 2.391-3.061 2.391zM25.14 10.509h-10.165c-0.196 0-0.393-0.159-0.393-0.398s0.157-0.398 0.393-0.398h10.125c0.196 0 0.392 0.159 0.392 0.398s-0.157 0.398-0.353 0.398z"></path>
<path fill="#ee3686" style="fill: var(--color2, #ee3686); stroke: var(--color1, #e7426a)" stroke="#e7426a" stroke-linejoin="miter" stroke-linecap="butt" stroke-miterlimit="4" stroke-width="0.6957" d="M3.54 19.744l0.001-0.001 1.6-1.419c0 0 0-0 0-0 0.341-0.303 0.874-0.274 1.179 0.071 1.29 1.455 2.582 2.914 3.873 4.372 0.435 0.492 0.871 0.983 1.306 1.474l-7.958-4.498zM3.54 19.744c-0.328 0.293-0.377 0.794-0.099 1.143l0.006 0.007M3.54 19.744l-0.093 1.15M3.446 20.893l0.006 0.007M3.446 20.893l0.006 0.007M3.452 20.9l5.195 5.867M3.452 20.9l5.195 5.867M8.647 26.768c0.305 0.343 0.836 0.373 1.178 0.071l0-0M8.647 26.768l1.178 0.071M9.826 26.838l1.602-1.419M9.826 26.838l1.602-1.419M11.427 25.42c0.343-0.304 0.374-0.835 0.071-1.178l-0.071 1.178zM3.451 19.646v0l0.002-0.002 1.602-1.418c0.397-0.352 1.009-0.315 1.361 0.083 0 0 0 0 0 0l0.311 0.351 0.256-0.345c0.514-0.694 1.105-1.345 1.775-1.861l0-0c1.566-1.207 3.648-1.763 5.332-0.735 1.060 0.648 2.252 1.189 3.511 1.414l0.030 0.006h3.624c0.614 0 1.051 0.349 1.192 0.917l0.136 0.55 4.252-3.678c0.54-0.467 1.234-0.389 1.702 0.149 0.47 0.547 0.444 1.269-0.102 1.743l-6.367 5.52c-0.958 0.83-2.028 1.259-3.294 1.319v0l-7.174 0.34 0.172 0.449c0.144 0.375 0.041 0.801-0.261 1.067v0l-1.601 1.419c-0.398 0.352-1.009 0.315-1.362-0.083l-5.179-5.848c-0.35-0.395-0.313-1.016 0.080-1.359zM22.407 18.932l-0.048 0.042-0.030 0.056c-0.186 0.346-0.531 0.606-1.072 0.606h-7.814c-0.036 0-0.066-0.030-0.066-0.067s0.030-0.067 0.066-0.067h7.814c0.316 0 0.599-0.112 0.802-0.324 0.201-0.21 0.298-0.493 0.298-0.791 0-0.292-0.093-0.574-0.293-0.786-0.202-0.215-0.486-0.329-0.808-0.329h-3.607l-0.039-0.004c-1.267-0.223-2.471-0.755-3.587-1.437-1.735-1.060-3.8-0.341-5.184 0.725-0.728 0.56-1.336 1.257-1.857 1.982l-0.162 0.226 4.533 5.118 7.416-0.352c1.233-0.057 2.284-0.48 3.216-1.288 0 0 0-0 0-0l6.367-5.521c0.242-0.21 0.374-0.485 0.382-0.777 0.008-0.287-0.105-0.561-0.295-0.782l-0-0.001c-0.185-0.215-0.433-0.365-0.713-0.398-0.286-0.034-0.568 0.059-0.804 0.263l-0 0-4.515 3.905z"></path>
</symbol>
<symbol id="icon-present-red" viewBox="0 0 32 32">
<path fill="#e7426a" style="fill: var(--color1, #e7426a)" d="M13.391 5.565c1.167 0 2.189 0.655 2.712 1.616 0.52-0.69 1.342-1.141 2.268-1.141 1.566 0 2.846 1.28 2.846 2.846 0 0.726-0.282 1.392-0.734 1.897h5.477c0.126 0 0.246 0.050 0.335 0.139s0.139 0.21 0.139 0.335v4.269c0 0.126-0.050 0.246-0.139 0.335s-0.21 0.139-0.335 0.139h-1.186v9.96c0 0.126-0.050 0.246-0.139 0.335s-0.21 0.139-0.335 0.139h-16.601c-0.126 0-0.246-0.050-0.335-0.139s-0.139-0.21-0.139-0.335v-9.96h-1.186c-0.126 0-0.246-0.050-0.335-0.139s-0.139-0.21-0.139-0.335v-4.269c0-0.126 0.050-0.246 0.139-0.335s0.21-0.139 0.335-0.139h5.128c-0.532-0.555-0.86-1.309-0.86-2.134 0-1.697 1.386-3.083 3.083-3.083zM13.391 6.514c-1.184 0-2.134 0.95-2.134 2.134s0.95 2.134 2.134 2.134h2.134v-2.134c0-1.184-0.95-2.134-2.134-2.134zM18.372 6.988c-1.053 0-1.897 0.844-1.897 1.897v1.897h1.897c1.053 0 1.897-0.844 1.897-1.897s-0.844-1.897-1.897-1.897zM25.486 11.731h-4.98v3.32h4.98v-3.32zM19.557 11.731h-7.115v3.32h7.115v-3.32zM11.494 11.731h-4.98v3.32h4.98v-3.32zM23.826 16h-5.455v9.486h5.455v-9.486zM17.423 16h-2.846v9.486h2.846v-9.486zM13.628 16h-5.455v9.486h5.455v-9.486z"></path>
</symbol>
</defs>
</svg>
