<svg
  aria-hidden="true"
  style="position:absolute;width:0;height:0"
  xmlns="http://www.w3.org/2000/svg"
  overflow="hidden"
><defs><symbol id="arrow-right" viewBox="0 0 43 32"><path
        d="M1.847 14.215h34.514l-8.235-8.384c-.721-.734-.721-1.925 0-2.659s1.891-.734 2.612 0l11.388 11.593a1.905 1.905 0 010 2.659L30.738 29.018a1.826 1.826 0 01-2.612 0 1.905 1.905 0 010-2.659l8.235-8.384H1.847c-1.02 0-1.847-.842-1.847-1.88s.827-1.88 1.847-1.88z"
      /></symbol><symbol id="car-macaroon" viewBox="0 0 46 32"><path
        fill="var(--color1, #4e9dd3)"
        d="M45.714 16.359l-6.116-7.262c-.153-.153-.382-.306-.612-.306h-8.409v12.231H-.001v5.351c0 .459.306.764.764.764h4.434c-.076.229-.076.535-.076.764 0 2.14 1.682 3.822 3.822 3.822s3.822-1.682 3.822-3.822c0-.229 0-.535-.076-.764h21.022c-.076.229-.076.535-.076.764 0 2.14 1.682 3.822 3.822 3.822s3.822-1.682 3.822-3.822c0-.229 0-.535-.076-.764h3.899c.459 0 .764-.306.764-.764v-9.556c0-.153-.076-.306-.153-.459zm-2.217-.306h-5.275v-2.676h2.981l2.293 2.676zM8.944 30.196c-1.3 0-2.293-.994-2.293-2.293 0-.382.076-.764.306-1.147a2.282 2.282 0 011.988-1.147c.229 0 .382 0 .612.076a1.7 1.7 0 01.994.612c.153.153.229.306.382.459.229.382.306.764.306 1.147a2.3 2.3 0 01-2.293 2.293zm28.514 0c-1.3 0-2.293-.994-2.293-2.293 0-.382.076-.764.306-1.147a2.282 2.282 0 011.988-1.147c.229 0 .382 0 .612.076a1.7 1.7 0 01.994.612c.153.153.229.306.382.459.229.382.306.764.306 1.147 0 1.3-.994 2.293-2.293 2.293zm6.88-4.587h-3.822c0-.076-.076-.076-.076-.153l-.229-.229-.153-.153c-.077-.077-.153-.153-.229-.153-.076-.076-.076-.076-.153-.076-.076-.076-.153-.076-.229-.153-.076 0-.076-.076-.153-.076-.076-.076-.153-.076-.229-.153-.076 0-.153-.076-.153-.076-.076 0-.153-.076-.306-.076-.076 0-.153 0-.153-.076-.076 0-.229-.076-.306-.076h-1.224c-.077 0-.229 0-.306.076-.076 0-.153 0-.153.076-.076 0-.153.076-.306.076-.076 0-.153.076-.153.076-.076.076-.153.076-.229.153-.076 0-.076.076-.153.076-.076.076-.153.076-.229.153-.076 0-.076.076-.153.076-.076.076-.153.153-.229.153l-.153.153-.229.229c0 .076-.076.076-.076.153H12.003c0-.076-.076-.076-.076-.153l-.229-.229-.153-.153c-.077-.077-.153-.153-.229-.153-.076-.076-.076-.076-.153-.076-.076-.076-.153-.076-.229-.153-.076 0-.076-.076-.153-.076-.076-.076-.153-.076-.229-.153-.076 0-.153-.076-.153-.076-.076 0-.153-.076-.306-.076-.076 0-.153 0-.153-.076-.076 0-.229-.076-.306-.076H8.41c-.077 0-.229 0-.306.076-.076 0-.153 0-.153.076-.076 0-.153.076-.229.076s-.153.076-.229.076c-.076 0-.153.076-.229.076s-.153.076-.229.076c-.076.076-.153.076-.229.153s-.153.076-.153.153-.076.076-.153.153-.153.076-.153.153c-.229.076-.229.153-.306.229s-.076.153-.153.153H1.531v-3.058h29.813c.459 0 .764-.306.764-.764V10.32h6.498l1.3 1.529H37.46c-.459 0-.764.306-.764.764v4.204c0 .459.306.764.764.764h6.88v8.027z"
      /><path
        fill="var(--color1, #4e9dd3)"
        d="M26.144 6.192C25.456 2.599 22.322 0 18.576 0h-5.963C8.944 0 5.809 2.599 5.045 6.192c-.917.306-1.605 1.147-1.605 2.14 0 .612.229 1.147.612 1.529a2.135 2.135 0 00-.612 1.529c0 .994.688 1.911 1.605 2.14.688 3.593 3.822 6.192 7.568 6.192h5.963c3.669 0 6.804-2.599 7.568-6.192.917-.306 1.605-1.147 1.605-2.14a2.13 2.13 0 00-.612-1.529c.382-.382.612-.917.612-1.529.076-.994-.612-1.835-1.605-2.14zM12.613 1.529h5.963c2.828 0 5.198 1.911 5.963 4.587h-.306l-.153-.153c-.306-.459-.841-.612-1.376-.612h-.459c-.535 0-1.07.229-1.452.612a.584.584 0 01-.382.153h-.459a.58.58 0 01-.382-.153c-.382-.459-.917-.612-1.452-.612h-.459c-.535 0-1.07.229-1.452.612a.584.584 0 01-.382.153h-.459a.58.58 0 01-.382-.153c-.306-.459-.841-.612-1.376-.612h-.459c-.535 0-1.07.229-1.452.612a.584.584 0 01-.382.153h-.459a.58.58 0 01-.382-.153c-.382-.459-.917-.612-1.452-.612h-.459c-.535 0-1.07.229-1.452.612l-.153.076h-.229c.688-2.599 3.134-4.51 5.886-4.51zm-6.88 6.039h1.835l.612-.612c.153-.076.229-.153.382-.153h.459a.58.58 0 01.382.153c.382.382.917.612 1.452.612h.459c.535 0 1.07-.229 1.452-.612a.584.584 0 01.382-.153h.459a.58.58 0 01.382.153c.382.382.917.612 1.452.612h.459c.535 0 1.07-.229 1.452-.612.076-.076.229-.153.306-.153h.459a.58.58 0 01.382.153c.382.382.917.612 1.452.612h.459c.535 0 1.07-.229 1.452-.612a.584.584 0 01.382-.153h.459a.58.58 0 01.382.153l.612.612h1.835c.382 0 .764.306.764.764s-.306.764-.764.764H5.733c-.382 0-.764-.306-.764-.764s.382-.764.764-.764zm12.919 10.626h-5.963c-2.828 0-5.198-1.911-5.963-4.587h17.888c-.764 2.752-3.134 4.587-5.963 4.587zm6.88-6.039H5.733c-.382 0-.764-.306-.764-.764s.306-.764.764-.764h19.723c.382 0 .764.306.764.764s-.306.764-.688.764z"
      /></symbol><symbol id="heart-macaroon" viewBox="0 0 36 32"><path
        fill="var(--color1, #4e9dd3)"
        d="M26.298 12.633a6.088 6.088 0 00-5.98-4.998h-4.757c-2.922 0-5.436 2.152-5.98 4.998a1.785 1.785 0 00-1.291 1.735c0 .486.204.902.476 1.249-.272.347-.476.764-.476 1.25 0 .833.544 1.527 1.291 1.735a6.088 6.088 0 005.98 4.998h4.757c2.922 0 5.436-2.152 5.98-4.998a1.785 1.785 0 001.291-1.735c0-.486-.204-.902-.476-1.25.272-.347.476-.764.476-1.249 0-.833-.544-1.527-1.291-1.735zM15.561 8.816h4.757c2.242 0 4.145 1.527 4.757 3.679h-.204l-.136-.139a1.574 1.574 0 00-1.155-.486h-.34c-.408 0-.815.139-1.155.486a.515.515 0 01-.272.139h-.34c-.136 0-.204-.069-.272-.139a1.574 1.574 0 00-1.155-.486h-.34c-.408 0-.815.139-1.155.486a.515.515 0 01-.272.139h-.34c-.136 0-.204-.069-.272-.139a1.576 1.576 0 00-1.155-.486h-.34c-.408 0-.815.139-1.155.486a.515.515 0 01-.272.139h-.34c-.136 0-.204-.069-.272-.139a1.574 1.574 0 00-1.155-.486h-.34c-.408 0-.815.139-1.155.486l-.136.139h-.476c.544-2.082 2.446-3.679 4.689-3.679zm-5.436 4.928h1.427l.476-.486c.068-.069.204-.069.34-.069h.34c.136 0 .204.069.272.139.34.347.748.486 1.155.486h.34c.408 0 .815-.139 1.155-.486a.515.515 0 01.272-.139h.408c.136 0 .204.069.272.139.34.347.747.486 1.155.486h.34c.408 0 .815-.139 1.155-.486a.515.515 0 01.272-.139h.34c.136 0 .204.069.272.139.34.347.747.486 1.155.486h.476c.408 0 .815-.139 1.155-.486.068-.139.204-.139.272-.139h.34c.136 0 .204.069.272.139l.476.486h1.563c.34 0 .611.278.611.625s-.272.625-.611.625H10.128c-.34 0-.612-.278-.612-.625s.272-.694.612-.694zm10.193 8.677h-4.757c-2.242 0-4.145-1.527-4.757-3.679h14.202c-.544 2.082-2.446 3.679-4.689 3.679zm5.504-4.929H10.125c-.34 0-.612-.278-.612-.625s.272-.625.612-.625h15.697c.34 0 .611.278.611.625s-.34.625-.611.625z"
      /><path
        fill="var(--color1, #4e9dd3)"
        d="M8.289 1.388c4.349 0 8.494 4.165 8.698 4.373.272.278.612.347.883.347s.612-.139.883-.347c.068 0 2.106-2.082 4.893-3.332 1.427-.625 2.718-.972 3.941-.972 1.767 0 3.33.694 4.689 2.082 1.699 1.666 2.378 3.679 2.174 5.97-.748 8.469-13.455 18.464-16.58 20.824-1.359-1.041-4.485-3.471-7.679-6.594C4.823 18.255 1.765 13.396 1.357 9.44c-.136-2.291.544-4.234 2.174-5.97 1.495-1.527 3.194-2.082 4.757-2.082zm0-1.388C6.115 0 4.212.833 2.581 2.499.61 4.581-.205 6.872-.001 9.579c.408 4.304 3.534 9.371 9.309 15.063 3.33 3.263 6.591 5.831 7.815 6.733l.815.625.815-.625c3.805-2.846 16.309-12.842 17.124-21.796.272-2.777-.612-5.137-2.582-7.08C31.664.833 29.762 0 27.587 0c-1.427 0-2.922.347-4.485 1.111a18.551 18.551 0 00-4.825 3.262h-.068l-.34.347C17.257 4.026 12.976 0 8.288 0z"
      /></symbol><symbol id="nut" viewBox="0 0 24 32"><path
        fill="var(--color1, #4e9dd3)"
        d="M18.369 6.115a.752.752 0 00-1.292 0 62.26 62.26 0 00-3.048 5.926A72.813 72.813 0 008.505.364L8.504.362a.73.73 0 00-.138-.164.748.748 0 00-.135-.102L8.229.095a.731.731 0 00-.156-.064L8.032.02a.676.676 0 00-.346 0l-.041.011a.72.72 0 00-.155.063l-.003.001a.748.748 0 00-.166.131.73.73 0 00-.107.135l-.001.002C6.919.854 0 12.478 0 20.123c0 8.755 4.06 11.875 7.859 11.875 1.002 0 1.99-.224 2.894-.655s1.698-1.059 2.325-1.837a5.568 5.568 0 004.645 2.493c3.152 0 6.52-2.568 6.52-9.777 0-6.243-5.634-15.707-5.874-16.107zM7.859 30.499c-.357-.113-1.641-2.165-1.641-10.374 0-4.659.943-11.072 1.641-15.185.699 4.112 1.642 10.524 1.642 15.185 0 8.21-1.284 10.261-1.642 10.374zM1.505 20.125c0-4.531 2.721-10.793 4.771-14.868-.695 4.153-1.562 10.262-1.562 14.868 0 3.609.243 7.678 1.174 9.993-2.747-1.136-4.382-4.75-4.382-9.993zm8.326 9.993c.931-2.315 1.174-6.384 1.174-9.993 0-4.606-.868-10.714-1.562-14.867a58.986 58.986 0 013.768 9.141v.002c.307 1.011.556 2.038.745 3.077l.009.051c.037.211.069.418.097.621.004.029.009.057.012.086.026.19.047.376.065.559l.012.107c.016.176.028.347.038.516l.008.113c.01.202.015.4.015.593 0 .198-.002.393-.007.586-.07 2.897-.662 5.316-1.723 7.021-.009.017-.016.034-.023.051a5.718 5.718 0 01-2.629 2.335zm7.892.382c-1.556 0-2.836-.804-3.723-2.33.917-1.631 1.541-3.846 1.684-6.751l.009-.198c.015-.356.025-.719.025-1.095 0-.221-.007-.448-.019-.681-.005-.105-.015-.212-.022-.318-.009-.124-.017-.247-.029-.374-.014-.146-.032-.294-.049-.441-.01-.086-.02-.172-.032-.26a22.2 22.2 0 00-.083-.55l-.025-.158a25.076 25.076 0 00-.124-.669l-.01-.049a29.685 29.685 0 00-.596-2.405 61.704 61.704 0 012.992-6.201c1.485 2.691 5.015 9.573 5.015 14.202 0 5.106-1.922 8.277-5.015 8.277z"
      /></symbol><symbol id="action" viewBox="0 0 15 15"><path
        fill="var(--color1, #e7426a)"
        d="M15 7.5a7.5 7.5 0 11-15 0 7.5 7.5 0 0115 0z"
      /><path
        fill="var(--color2, #fff)"
        d="M6.949 6.931c-.281.288-.644.431-1.088.431s-.806-.144-1.088-.431c-.275-.294-.413-.659-.413-1.097 0-.444.141-.813.422-1.106.281-.3.641-.45 1.078-.45.444 0 .806.15 1.088.45.288.294.431.663.431 1.106 0 .438-.144.803-.431 1.097zm-1.171 3.694h-.506l3.994-6.253h.516l-4.003 6.253zm4.434-.319c-.281.288-.644.431-1.088.431s-.806-.144-1.088-.431c-.275-.294-.412-.659-.412-1.097 0-.444.141-.813.422-1.106.281-.3.641-.45 1.078-.45.444 0 .806.15 1.088.45.281.294.422.663.422 1.106 0 .438-.141.803-.422 1.097zM5.187 6.594c.175.2.4.3.675.3s.503-.1.684-.3a1.11 1.11 0 00.272-.759c0-.312-.091-.569-.272-.769a.855.855 0 00-.684-.309c-.275 0-.5.103-.675.309-.175.2-.263.456-.263.769 0 .3.087.553.263.759zM8.44 9.969c.181.2.409.3.684.3s.503-.1.684-.3a1.11 1.11 0 00.272-.759c0-.312-.091-.569-.272-.769-.175-.206-.403-.309-.684-.309s-.509.103-.684.309c-.175.2-.262.456-.262.769 0 .3.087.553.262.759z"
      /></symbol><symbol id="cart" viewBox="0 0 15 15"><path
        stroke-linejoin="round"
        stroke-linecap="round"
        stroke-miterlimit="10"
        stroke-width=".682"
        d="M12.273 3.821H2.728v10.506h9.545V3.821z"
      /><path
        stroke-linejoin="round"
        stroke-linecap="round"
        stroke-miterlimit="10"
        stroke-width=".682"
        d="M4.969 5.102V2.411c0-.961.705-1.73 1.538-1.73h1.986c.833 0 1.538.769 1.538 1.73v2.691"
      /></symbol><symbol id="facebook" viewBox="0 0 15 15"><path
        d="M10.461 7.775H8.554v6.988h-2.89V7.775H4.29V5.319h1.374V3.73c0-1.136.54-2.916 2.916-2.916l2.141.009v2.384H9.168c-.255 0-.613.127-.613.669v1.445h2.16l-.252 2.454z"
      /></symbol><symbol id="instagram" viewBox="0 0 15 15"><path
        d="M10.571.123H4.105A3.987 3.987 0 00.123 4.105v6.466a3.986 3.986 0 003.982 3.982h6.466a3.986 3.986 0 003.982-3.982V4.105A3.986 3.986 0 0010.571.123zm2.702 10.448a2.705 2.705 0 01-2.702 2.702H4.105a2.705 2.705 0 01-2.702-2.702V4.105a2.705 2.705 0 012.702-2.702h6.466a2.705 2.705 0 012.702 2.702v6.466z"
      /><path
        d="M7.339 3.62c-2.05 0-3.719 1.668-3.719 3.719s1.668 3.718 3.719 3.718c2.05 0 3.718-1.668 3.718-3.718S9.389 3.62 7.339 3.62zm0 6.156c-1.344 0-2.438-1.094-2.438-2.438S5.995 4.9 7.339 4.9s2.438 1.094 2.438 2.438a2.441 2.441 0 01-2.438 2.438zM11.213 2.534a.941.941 0 00-.939.939.945.945 0 00.939.939c.248 0 .489-.101.664-.275s.275-.417.275-.664a.942.942 0 00-.939-.939z"
      /></symbol><symbol id="phone" viewBox="0 0 15 15"><path
        fill="none"
        stroke="var(--color3, #000)"
        stroke-linejoin="round"
        stroke-linecap="round"
        stroke-miterlimit="10"
        stroke-width=".75"
        d="M10.262 14.237H4.738a1.362 1.362 0 01-1.363-1.363V2.113c0-.717.574-1.363 1.363-1.363h5.524c.717 0 1.363.574 1.363 1.363v10.761c0 .717-.646 1.363-1.363 1.363zM4.666 11.511h5.667"
      /><path
        d="M7.392 13.376a.502.502 0 100-1.005.502.502 0 000 1.005z"
      /></symbol><symbol id="vk" viewBox="0 0 15 15"><path
        d="M7.361 11.871h.888s.268-.029.405-.177c.126-.136.122-.39.122-.39s-.017-1.192.536-1.368c.545-.173 1.246 1.152 1.988 1.661.561.386.988.301.988.301l1.985-.028s1.038-.064.546-.88c-.04-.067-.287-.604-1.476-1.708-1.244-1.155-1.078-.968.421-2.966.913-1.217 1.278-1.96 1.164-2.278-.109-.303-.78-.223-.78-.223l-2.235.014s-.166-.023-.289.051c-.12.072-.197.24-.197.24s-.354.942-.825 1.742c-.995 1.69-1.393 1.779-1.556 1.674-.378-.245-.284-.982-.284-1.507 0-1.637.248-2.32-.484-2.497-.243-.059-.422-.097-1.043-.104-.797-.008-1.472.002-1.854.19-.254.124-.45.402-.331.418.148.02.482.09.66.332.229.312.221 1.011.221 1.011s.132 1.928-.307 2.167c-.301.164-.714-.171-1.602-1.704-.455-.785-.798-1.653-.798-1.653s-.066-.162-.184-.249a.93.93 0 00-.343-.139l-2.124.014s-.319.009-.436.147c-.104.123-.008.378-.008.378s1.663 3.89 3.545 5.85C5.4 11.987 7.36 11.869 7.36 11.869z"
      /></symbol><symbol id="close" viewBox="0 0 15 15"><path
        d="M15 1.511L13.489 0 7.5 5.989 1.511 0 0 1.511 5.989 7.5 0 13.489 1.511 15 7.5 9.011 13.489 15 15 13.489 9.011 7.5 15 1.511z"
      /></symbol></defs></svg>
