<svg
  aria-hidden="true"
  style="position:absolute;width:0;height:0"
  xmlns="http://www.w3.org/2000/svg"
  overflow="hidden"
><defs><symbol id="building-opt" viewBox="0 0 28 32"><path
        fill="var(--color1, #92c2d6)"
        d="M4.149 2.343v-.001l.001.001-.288 1.362.599-.354.636-.37.637.37.599.354-.288-1.362.001-.001v.001l1-.968-1.389-.085L5.096.017 4.535 1.29l-1.389.085 1 .968zM8.55 2.343v-.001l.001.001-.288 1.362.599-.354.636-.37.637.37.599.354-.288-1.362.001-.001v.001l1.001-.968-1.389-.085L9.498.017 8.937 1.29l-1.389.085 1.001.968zM12.926 2.343v-.001l.001.001-.144.681-.144.681.599-.354.636-.37.637.37.599.354-.288-1.362.001-.001v.001l1.001-.968-1.389-.085-.561-1.273-.561 1.273-1.389.085 1 .968zM17.368 2.343v-.001l.001.001-.288 1.362.599-.354.637-.37.637.37.599.354-.144-.681-.144-.681.001-.001v.001l1-.968-1.389-.085-.561-1.273-.561 1.273-1.389.085 1 .968zM21.746 2.343v-.001l.001.001-.288 1.362.599-.354.637-.37.637.37.599.354-.144-.681-.144-.681.001-.001v.001l1-.968-1.389-.085-.561-1.273-.561 1.273-1.389.085 1 .968zM27.233 6.594h-.915v-1.78c0-.3-.244-.544-.544-.544H2.035c-.3 0-.544.243-.544.544v1.78H.576c-.3 0-.544.243-.544.544V31.05c0 .3.243.544.544.544h26.655c.3 0 .544-.244.544-.544V7.138c0-.3-.244-.544-.544-.544zM2.579 5.358h22.652v1.237H2.579V5.358zm12.753 25.149h-2.853v-5.814h2.853v5.814zm11.357 0h-10.27V24.15c0-.3-.244-.544-.544-.544h-3.94c-.3 0-.544.244-.544.544v6.357H1.121V7.682h.739a.538.538 0 00.176.032h23.739a.538.538 0 00.176-.032h.739v22.825h-.001z"
      /><path
        fill="var(--color1, #92c2d6)"
        d="M8.049 9.035h-3.94c-.3 0-.544.243-.544.544v2.553c0 .3.243.544.544.544h3.94c.3 0 .544-.243.544-.544V9.579c0-.3-.243-.544-.544-.544zm-.544 2.553H4.652v-1.465h2.853v1.465zM15.875 9.035h-3.94c-.3 0-.544.243-.544.544v2.553c0 .3.243.544.544.544h3.94c.3 0 .544-.243.544-.544V9.579c0-.3-.244-.544-.544-.544zm-.543 2.553h-2.853v-1.465h2.853v1.465zM23.702 9.035h-3.94c-.3 0-.544.243-.544.544v2.553c0 .3.244.544.544.544h3.94c.3 0 .544-.243.544-.544V9.579c0-.3-.244-.544-.544-.544zm-.543 2.553h-2.853v-1.465h2.853v1.465zM8.049 13.891h-3.94c-.3 0-.544.243-.544.544v2.553c0 .3.243.544.544.544h3.94c.3 0 .544-.244.544-.544v-2.553c0-.3-.243-.544-.544-.544zm-.544 2.553H4.652v-1.465h2.853v1.465zM15.875 13.891h-3.94c-.3 0-.544.243-.544.544v2.553c0 .3.243.544.544.544h3.94c.3 0 .544-.244.544-.544v-2.553c0-.3-.244-.544-.544-.544zm-.543 2.553h-2.853v-1.465h2.853v1.465zM23.702 13.891h-3.94c-.3 0-.544.243-.544.544v2.553c0 .3.244.544.544.544h3.94c.3 0 .544-.244.544-.544v-2.553c0-.3-.244-.544-.544-.544zm-.543 2.553h-2.853v-1.465h2.853v1.465zM8.049 18.748h-3.94c-.3 0-.544.244-.544.544v2.553c0 .3.243.544.544.544h3.94c.3 0 .544-.244.544-.544v-2.553c0-.3-.243-.544-.544-.544zm-.544 2.553H4.652v-1.466h2.853v1.466zM15.875 18.748h-3.94c-.3 0-.544.244-.544.544v2.553c0 .3.243.544.544.544h3.94c.3 0 .544-.244.544-.544v-2.553c0-.3-.244-.544-.544-.544zm-.543 2.553h-2.853v-1.466h2.853v1.466zM23.702 18.748h-3.94c-.3 0-.544.244-.544.544v2.553c0 .3.244.544.544.544h3.94c.3 0 .544-.244.544-.544v-2.553c0-.3-.244-.544-.544-.544zm-.543 2.553h-2.853v-1.466h2.853v1.466zM8.049 23.604h-3.94c-.3 0-.544.244-.544.544v2.553c0 .3.243.544.544.544h3.94c.3 0 .544-.244.544-.544v-2.553c0-.3-.243-.544-.544-.544zm-.544 2.553H4.652v-1.466h2.853v1.466zM23.702 23.604h-3.94c-.3 0-.544.244-.544.544v2.553c0 .3.244.544.544.544h3.94c.3 0 .544-.244.544-.544v-2.553c0-.3-.244-.544-.544-.544zm-.543 2.553h-2.853v-1.466h2.853v1.466z"
      /></symbol><symbol id="cake-opt" viewBox="0 0 23 32"><path
        fill="var(--color2, #e58383)"
        d="M1.182 29.917l.446 1.28c.081.248.365.372.851.372h18.486c.486 0 .77-.124.851-.372l.446-1.28c.608 0 1.135-.537 1.135-1.156v-.578c0-.619-.527-1.156-1.135-1.156h-.568V15.011c0-.248-.162-.413-.405-.413h-.973V6.587c0-.248-.162-.413-.405-.413h-2.878V.847c0-.248-.162-.413-.405-.413H6.817c-.243 0-.405.165-.405.413v5.327H3.534c-.243 0-.405.165-.405.413v8.052h-.973c-.243 0-.405.165-.405.413v12.016h-.568c-.608 0-1.135.537-1.135 1.156v.537c.041.619.527 1.156 1.135 1.156zm19.824.826H2.317l-.284-.826h19.378l-.284.826h-.122zm-3.527-8.961c-.243 0-.405.165-.405.413a1.51 1.51 0 01-1.5 1.528c-.851 0-1.5-.702-1.5-1.528 0-.248-.162-.413-.405-.413s-.405.165-.405.413c0 .867-.689 1.528-1.5 1.528s-1.5-.702-1.5-1.528c0-.248-.162-.413-.405-.413s-.405.165-.405.413a1.51 1.51 0 01-1.5 1.528c-.851 0-1.5-.702-1.5-1.528 0-.248-.162-.413-.405-.413s-.405.165-.405.413a1.51 1.51 0 01-1.5 1.528c-.851 0-1.5-.702-1.5-1.528v-2.23c.405.372.932.578 1.5.578.811 0 1.5-.413 1.905-1.032a2.313 2.313 0 001.905 1.032c.811 0 1.5-.413 1.905-1.032.405.619 1.135 1.032 1.905 1.032s1.5-.413 1.905-1.032a2.313 2.313 0 001.905 1.032c.811 0 1.5-.413 1.905-1.032a2.313 2.313 0 001.905 1.032c.568 0 1.095-.206 1.5-.578v2.271a1.51 1.51 0 01-1.5 1.528c-.851 0-1.5-.702-1.5-1.528 0-.248-.162-.454-.405-.454zM16.263 1.26v1.734c0 .702-.568 1.239-1.216 1.239s-1.216-.578-1.216-1.239c0-.248-.162-.413-.405-.413s-.405.165-.405.413c0 .702-.568 1.239-1.216 1.239-.689 0-1.216-.578-1.216-1.239 0-.248-.162-.413-.405-.413s-.405.165-.405.413c0 .702-.568 1.239-1.216 1.239s-1.216-.578-1.216-1.239V1.26h8.919zm-9.04 3.386c.324.289.77.454 1.216.454.689 0 1.257-.33 1.622-.867.365.496.973.867 1.622.867.689 0 1.257-.33 1.622-.867.365.496.973.867 1.622.867.446 0 .892-.165 1.216-.413v1.528H7.224V4.646zm12.283 2.353v3.097c0 .702-.568 1.239-1.216 1.239s-1.216-.578-1.216-1.239c0-.248-.162-.413-.405-.413s-.405.165-.405.413c0 .702-.568 1.239-1.216 1.239s-1.216-.578-1.216-1.239c0-.248-.162-.413-.405-.413s-.405.165-.405.413c0 .702-.568 1.239-1.216 1.239-.689 0-1.216-.578-1.216-1.239 0-.248-.162-.413-.405-.413s-.405.165-.405.413c0 .702-.568 1.239-1.216 1.239s-1.216-.578-1.216-1.239c0-.248-.162-.413-.405-.413s-.405.165-.405.413c0 .702-.568 1.239-1.216 1.239s-1.216-.578-1.216-1.239V7.04h15.405v-.041zM3.979 11.707c.324.289.77.454 1.216.454.689 0 1.257-.33 1.622-.867.365.496.973.867 1.622.867.689 0 1.257-.33 1.622-.867.365.496.973.867 1.622.867.689 0 1.257-.33 1.622-.867.365.496.973.867 1.622.867s1.257-.33 1.622-.867c.365.496.973.867 1.622.867.446 0 .892-.165 1.216-.413v2.891H3.982v-2.932zm16.946 3.716v2.725a1.51 1.51 0 01-1.5 1.528c-.851 0-1.5-.702-1.5-1.528 0-.248-.162-.413-.405-.413s-.405.165-.405.413a1.51 1.51 0 01-1.5 1.528c-.851 0-1.5-.702-1.5-1.528 0-.248-.162-.413-.405-.413s-.405.165-.405.413c0 .867-.689 1.528-1.5 1.528s-1.5-.702-1.5-1.528c0-.248-.162-.413-.405-.413s-.405.165-.405.413a1.51 1.51 0 01-1.5 1.528c-.851 0-1.5-.702-1.5-1.528 0-.248-.162-.413-.405-.413s-.405.165-.405.413a1.51 1.51 0 01-1.5 1.528c-.851 0-1.5-.702-1.5-1.528v-2.684h18.243v-.041zM2.56 23.971c.405.372.932.578 1.5.578.811 0 1.5-.413 1.905-1.032a2.313 2.313 0 001.905 1.032c.811 0 1.5-.413 1.905-1.032.405.619 1.135 1.032 1.905 1.032s1.5-.413 1.905-1.032a2.313 2.313 0 001.905 1.032c.811 0 1.5-.413 1.905-1.032a2.313 2.313 0 001.905 1.032c.568 0 1.095-.206 1.5-.578v3.056H2.557v-3.056zM.898 28.224c0-.165.162-.33.324-.33h21.081c.162 0 .324.165.324.33v.537c0 .165-.162.33-.324.33H1.222c-.162 0-.324-.165-.324-.33v-.537z"
      /></symbol><symbol id="cart-opt" viewBox="0 0 35 32"><path
        fill="var(--color3, #d17eac)"
        d="M.964.539c-.434 0-.786.357-.786.798s.352.798.786.798h4.08l4.141 19.884c-.042.455.374.896.823.873h19.661c.416.006.798-.376.798-.798s-.382-.804-.798-.798H10.647l-.664-3.193h21.258a.816.816 0 00.762-.624l2.752-11.975c.102-.463-.294-.97-.762-.973H7.156l-.7-3.368a.814.814 0 00-.774-.624H.963zm6.525 5.589h25.522l-2.396 10.378H9.652L7.489 6.128zm6.451 18.361c-1.945 0-3.539 1.618-3.539 3.593s1.594 3.593 3.539 3.593 3.539-1.618 3.539-3.593c0-1.975-1.594-3.593-3.539-3.593zm11.797 0c-1.945 0-3.539 1.618-3.539 3.593s1.594 3.593 3.539 3.593 3.539-1.618 3.539-3.593c0-1.975-1.594-3.593-3.539-3.593zM13.94 26.086c1.095 0 1.966.884 1.966 1.996s-.871 1.996-1.966 1.996-1.966-.884-1.966-1.996.871-1.996 1.966-1.996zm11.797 0c1.095 0 1.966.884 1.966 1.996s-.871 1.996-1.966 1.996-1.966-.884-1.966-1.996.871-1.996 1.966-1.996z"
      /></symbol><symbol id="cofee-opt" viewBox="0 0 29 32"><path
        fill="var(--color4, #cc9180)"
        d="M22.777 14.419v-3.03h4.078a1.98 1.98 0 001.977-1.977V2.267A1.98 1.98 0 0026.855.29H4.607A4.04 4.04 0 00.573 4.324V31.58h28.26v-5.045h-5.605a3.507 3.507 0 001.066-2.525v-.505h1.515c.838 0 1.515-.678 1.515-1.515v-3.03c0-.838-.678-1.515-1.515-1.515h-1.515v-1.509H13.189v8.075c0 .986.407 1.879 1.066 2.525H9.66v-15.14h5.045v3.03h3.03v-3.03h2.02v3.03h3.024v-.006zm-1.01-1.01h-1.01v-2.02h1.01v2.02zm4.041 5.051c.277 0 .505.228.505.505v3.03a.507.507 0 01-.505.505h-1.515v-4.041h1.515zm-11.611 5.55v-7.065h9.085v7.065a2.528 2.528 0 01-2.525 2.525h-4.034a2.528 2.528 0 01-2.525-2.525zm2.525-10.601h-1.01v-2.02h1.01v2.02zm1.011-3.024H8.648v17.16h19.174v3.03H1.583V4.323a3.025 3.025 0 013.024-3.024h22.248c.536 0 .967.437.967.967v7.145a.974.974 0 01-.967.973h-9.122z"
      /><path
        fill="var(--color4, #cc9180)"
        d="M6.11 2.814c-1.392 0-2.525 1.133-2.525 2.525S4.718 7.864 6.11 7.864s2.525-1.133 2.525-2.525A2.524 2.524 0 006.11 2.814zm0 4.034a1.514 1.514 0 110-3.03 1.514 1.514 0 110 3.03zM19.245 4.828h-1.01v1.01h1.01v-1.01zM21.249 4.828h-1.01v1.01h1.01v-1.01zM17.203 4.828h-1.01v1.01h1.01v-1.01z"
      /></symbol><symbol id="house-opt" viewBox="0 0 32 32"><path
        fill="var(--color5, #fbbc8f)"
        d="M30.427 11.056L27.503 6.97V2.135c0-.941-.749-1.703-1.676-1.703H6.195c-.927 0-1.676.761-1.676 1.703V6.97l-2.923 4.086C-.531 14.027.38 16.482 3.562 16.895v12.97c0 .941.749 1.703 1.676 1.703h21.548c.927 0 1.676-.761 1.676-1.703v-12.97c3.18-.412 4.093-2.869 1.966-5.839zM5.716 2.135c0-.268.215-.486.479-.486h19.632c.264 0 .479.218.479.486v4.119H5.716V2.135zm6.464 5.336l-2.2 8.27H5.932l4.62-8.27h1.628zm1.241 0h1.839v8.27h-4.039l2.2-8.27zm3.035 0h1.839l2.2 8.27h-4.039v-8.27zm5.28 8.27l-2.2-8.27h1.628l4.62 8.27h-4.048zM1.778 14.677c-.339-.676-.052-1.735.786-2.906L5.641 7.47h3.534l-4.62 8.27h-.003c-1.424 0-2.436-.388-2.774-1.064zm17.791 15.674h-6.704V20.135h6.704v10.216zm7.216 0h-6.019V19.648a.723.723 0 00-.719-.73h-7.661a.723.723 0 00-.718.73v10.703H5.237a.483.483 0 01-.479-.487V16.956h22.505v12.908a.483.483 0 01-.479.487zm3.46-15.674c-.339.676-1.35 1.064-2.775 1.064h-.309l-4.62-8.27h3.841l3.078 4.301c.838 1.17 1.125 2.229.786 2.905z"
      /></symbol><symbol id="piramid-opt" viewBox="0 0 40 32"><path
        fill="var(--color6, #e67285)"
        d="M25.226 3.438C24.88 1.648 23.264.287 21.418.287h-3.039c-1.846 0-3.462 1.362-3.808 3.151-.5.156-.846.584-.846 1.128 0 .311.115.584.308.778a1.095 1.095 0 00-.308.778c0 .545.346.973.808 1.128a3.886 3.886 0 003.808 3.151h3.039c1.846 0 3.462-1.362 3.808-3.151a1.18 1.18 0 00.808-1.128 1.09 1.09 0 00-.308-.778c.192-.195.308-.467.308-.778.038-.545-.308-.973-.769-1.128zm-6.847-2.374h3.039a3.1 3.1 0 013 2.334h-.154l-.077-.078a.977.977 0 00-.731-.311h-.231c-.269 0-.539.117-.731.311a.292.292 0 01-.192.078h-.231a.29.29 0 01-.192-.078.977.977 0 00-.731-.311h-.231c-.269 0-.539.117-.731.311a.29.29 0 01-.192.078h-.231a.29.29 0 01-.192-.078.977.977 0 00-.731-.311h-.231c-.269 0-.539.117-.731.311a.29.29 0 01-.192.078h-.231a.29.29 0 01-.192-.078.977.977 0 00-.731-.311h-.231a1.05 1.05 0 00-.731.311l-.077.078h-.154c.385-1.362 1.616-2.334 3.039-2.334zm-3.501 3.113h.923l.308-.311c.077-.039.154-.078.192-.078h.231a.29.29 0 01.192.078c.192.195.462.311.731.311h.231c.269 0 .539-.117.731-.311.077-.039.154-.078.192-.078h.231a.29.29 0 01.192.078c.192.195.462.311.731.311h.231c.269 0 .539-.117.731-.311.077-.039.154-.078.192-.078h.231a.29.29 0 01.192.078c.192.195.462.311.731.311h.231c.269 0 .539-.117.731-.311.077-.039.154-.078.192-.078h.231a.29.29 0 01.192.078l.308.311h.923c.231 0 .385.156.385.389s-.154.389-.385.389H14.878c-.231 0-.385-.156-.385-.389s.192-.389.385-.389zm6.54 5.446h-3.039a3.1 3.1 0 01-3-2.334h9.078c-.385 1.362-1.616 2.334-3.039 2.334zm3.462-3.112H14.879c-.231 0-.385-.156-.385-.389s.154-.389.385-.389H24.88c.231 0 .385.156.385.389s-.154.389-.385.389zM11.737 24.681a3.886 3.886 0 00-3.808-3.151H4.89c-1.846 0-3.462 1.362-3.808 3.151-.5.156-.846.584-.846 1.128 0 .311.115.584.308.778a1.095 1.095 0 00-.308.778c0 .545.346.973.808 1.128a3.886 3.886 0 003.808 3.151h3.039c1.846 0 3.462-1.362 3.808-3.151a1.18 1.18 0 00.808-1.128 1.09 1.09 0 00-.308-.778c.192-.195.308-.467.308-.778.038-.545-.308-.973-.769-1.128zM4.89 22.307h3.039a3.1 3.1 0 013 2.334h-.154l-.077-.078a1.043 1.043 0 00-.731-.311h-.231c-.269 0-.539.117-.731.311a.29.29 0 01-.192.078h-.231a.29.29 0 01-.192-.078 1.043 1.043 0 00-.731-.311h-.231c-.269 0-.539.117-.731.311a.29.29 0 01-.192.078h-.231a.29.29 0 01-.192-.078 1.043 1.043 0 00-.731-.311H5.12c-.269 0-.539.117-.731.311a.29.29 0 01-.192.078h-.231a.29.29 0 01-.192-.078 1.043 1.043 0 00-.731-.311h-.231c-.269 0-.539.117-.731.311l-.077.078H1.85c.385-1.362 1.616-2.334 3.039-2.334zM1.389 25.42h.923l.308-.311a.29.29 0 01.192-.078h.231a.29.29 0 01.192.078c.192.195.462.311.731.311h.231c.269 0 .539-.117.731-.311a.29.29 0 01.192-.078h.231a.29.29 0 01.192.078c.192.195.462.311.731.311h.231c.269 0 .539-.117.731-.311a.292.292 0 01.192-.078h.231a.29.29 0 01.192.078c.192.195.462.311.731.311h.231c.269 0 .539-.117.731-.311a.29.29 0 01.192-.078h.231a.29.29 0 01.192.078l.308.311h.923c.231 0 .385.156.385.389s-.154.389-.385.389H1.389c-.231 0-.385-.156-.385-.389s.154-.389.385-.389zm6.501 5.446H4.851a3.1 3.1 0 01-3-2.334h9.078c-.385 1.362-1.616 2.334-3.039 2.334zm3.501-3.112H1.39c-.231 0-.385-.156-.385-.389s.154-.389.385-.389h10.001c.231 0 .385.156.385.389a.388.388 0 01-.385.389zM25.358 24.681a3.886 3.886 0 00-3.808-3.151h-3.039c-1.846 0-3.462 1.362-3.808 3.151a1.18 1.18 0 00-.808 1.128c0 .311.115.584.308.778a1.095 1.095 0 00-.308.778c0 .545.346.973.808 1.128a3.886 3.886 0 003.808 3.151h3.039c1.846 0 3.462-1.362 3.808-3.151a1.18 1.18 0 00.808-1.128 1.09 1.09 0 00-.308-.778c.192-.195.308-.467.308-.778 0-.545-.346-.973-.808-1.128zm-6.847-2.374h3.039a3.1 3.1 0 013 2.334h-.154l-.077-.078a1.043 1.043 0 00-.731-.311h-.231a1.05 1.05 0 00-.731.311.29.29 0 01-.192.078h-.231a.29.29 0 01-.192-.078 1.043 1.043 0 00-.731-.311h-.231c-.269 0-.539.117-.731.311a.29.29 0 01-.192.078h-.231a.29.29 0 01-.192-.078 1.043 1.043 0 00-.731-.311h-.231c-.269 0-.539.117-.731.311a.29.29 0 01-.192.078h-.231a.29.29 0 01-.192-.078 1.043 1.043 0 00-.731-.311h-.231c-.269 0-.539.117-.731.311l-.077.078h-.154c.385-1.362 1.616-2.334 3.039-2.334zM15.01 25.42h.923l.308-.311a.29.29 0 01.192-.078h.231a.29.29 0 01.192.078c.192.195.462.311.731.311h.231c.269 0 .539-.117.731-.311a.29.29 0 01.192-.078h.231a.29.29 0 01.192.078c.192.195.462.311.731.311h.231c.269 0 .538-.117.731-.311a.29.29 0 01.192-.078h.231a.29.29 0 01.192.078c.192.195.462.311.731.311h.231c.269 0 .539-.117.731-.311a.29.29 0 01.192-.078h.231a.29.29 0 01.192.078l.308.311h.923c.231 0 .385.156.385.389s-.154.389-.385.389H15.01c-.231 0-.385-.156-.385-.389s.192-.389.385-.389zm6.539 5.446H18.51a3.1 3.1 0 01-3-2.334h9.078c-.385 1.362-1.616 2.334-3.039 2.334zm3.462-3.112H15.01c-.231 0-.385-.156-.385-.389s.154-.389.385-.389h10.001c.231 0 .385.156.385.389a.388.388 0 01-.385.389zM38.962 24.681a3.886 3.886 0 00-3.808-3.151h-3.039c-1.846 0-3.462 1.362-3.808 3.151a1.18 1.18 0 00-.808 1.128c0 .311.115.584.308.778a1.095 1.095 0 00-.308.778c0 .545.346.973.808 1.128a3.886 3.886 0 003.808 3.151h3.039c1.846 0 3.462-1.362 3.808-3.151a1.18 1.18 0 00.808-1.128 1.09 1.09 0 00-.308-.778c.192-.195.308-.467.308-.778.038-.545-.308-.973-.808-1.128zm-6.847-2.374h3.039a3.1 3.1 0 013 2.334H38l-.077-.078a1.043 1.043 0 00-.731-.311h-.231c-.269 0-.539.117-.731.311a.29.29 0 01-.192.078h-.231a.29.29 0 01-.192-.078 1.043 1.043 0 00-.731-.311h-.231a1.05 1.05 0 00-.731.311.29.29 0 01-.192.078h-.231a.29.29 0 01-.192-.078 1.043 1.043 0 00-.731-.311h-.231c-.269 0-.539.117-.731.311a.29.29 0 01-.192.078h-.231a.29.29 0 01-.192-.078 1.043 1.043 0 00-.731-.311h-.231a1.05 1.05 0 00-.731.311l-.077.078h-.154c.385-1.362 1.616-2.334 3.039-2.334zm-3.462 3.113h.923l.308-.311a.29.29 0 01.192-.078h.231a.29.29 0 01.192.078c.192.195.462.311.731.311h.231c.269 0 .538-.117.731-.311a.29.29 0 01.192-.078h.231a.29.29 0 01.192.078c.192.195.462.311.731.311h.231c.269 0 .539-.117.731-.311a.29.29 0 01.192-.078h.231a.29.29 0 01.192.078c.192.195.462.311.731.311h.231c.269 0 .539-.117.731-.311a.29.29 0 01.192-.078h.231a.29.29 0 01.192.078l.308.311h.923c.231 0 .385.156.385.389s-.154.389-.385.389H28.653c-.231 0-.385-.156-.385-.389s.154-.389.385-.389zm6.501 5.446h-3.039a3.1 3.1 0 01-3-2.334h9.078c-.385 1.362-1.616 2.334-3.039 2.334zm3.5-3.112H28.653c-.231 0-.385-.156-.385-.389s.154-.389.385-.389h10.001c.231 0 .385.156.385.389 0 .195-.192.389-.385.389zM18.544 14.057a3.886 3.886 0 00-3.808-3.151h-3.039c-1.846 0-3.462 1.362-3.808 3.151a1.18 1.18 0 00-.808 1.128c0 .311.115.584.308.778a1.095 1.095 0 00-.308.778c0 .545.346.973.808 1.128a3.886 3.886 0 003.808 3.151h3.039c1.846 0 3.462-1.362 3.808-3.151a1.18 1.18 0 00.808-1.128 1.09 1.09 0 00-.308-.778c.192-.194.308-.467.308-.778 0-.545-.346-1.011-.808-1.128zm-6.847-2.412h3.039a3.1 3.1 0 013 2.334h-.154l-.077-.078a1.047 1.047 0 00-.731-.311h-.231c-.269 0-.539.117-.731.311a.29.29 0 01-.192.078h-.231a.29.29 0 01-.192-.078 1.047 1.047 0 00-.731-.311h-.231c-.269 0-.539.117-.731.311a.29.29 0 01-.192.078h-.231a.29.29 0 01-.192-.078 1.047 1.047 0 00-.731-.311h-.231c-.269 0-.539.117-.731.311a.29.29 0 01-.192.078h-.231a.29.29 0 01-.192-.078 1.047 1.047 0 00-.731-.311h-.231a1.05 1.05 0 00-.731.311l-.077.078h-.154c.385-1.362 1.616-2.334 3.039-2.334zm-3.501 3.112h.923l.308-.311a.29.29 0 01.192-.078h.231a.29.29 0 01.192.078c.192.194.462.311.731.311h.231c.269 0 .539-.117.731-.311a.29.29 0 01.192-.078h.231a.29.29 0 01.192.078c.192.194.462.311.731.311h.231c.269 0 .539-.117.731-.311a.29.29 0 01.192-.078h.231a.29.29 0 01.192.078c.192.194.462.311.731.311h.231c.269 0 .539-.117.731-.311a.29.29 0 01.192-.078h.231a.29.29 0 01.192.078l.308.311h.923c.231 0 .385.156.385.389s-.154.389-.385.389H8.196c-.231 0-.385-.156-.385-.389s.192-.389.385-.389zm6.54 5.447h-3.039a3.1 3.1 0 01-3-2.334h9.078c-.423 1.362-1.616 2.334-3.039 2.334zm3.462-3.112H8.197c-.231 0-.385-.156-.385-.389s.154-.389.385-.389h10.001c.231 0 .385.156.385.389s-.154.389-.385.389zM32.175 14.057a3.886 3.886 0 00-3.808-3.151h-3.039c-1.846 0-3.462 1.362-3.808 3.151a1.18 1.18 0 00-.808 1.128c0 .311.115.584.308.778a1.095 1.095 0 00-.308.778c0 .545.346.973.808 1.128a3.886 3.886 0 003.808 3.151h3.039c1.846 0 3.462-1.362 3.808-3.151a1.18 1.18 0 00.808-1.128 1.09 1.09 0 00-.308-.778c.192-.194.308-.467.308-.778 0-.545-.346-1.011-.808-1.128zm-6.847-2.412h3.039a3.1 3.1 0 013 2.334h-.154l-.077-.078a1.047 1.047 0 00-.731-.311h-.231c-.269 0-.539.117-.731.311a.29.29 0 01-.192.078h-.231a.29.29 0 01-.192-.078 1.047 1.047 0 00-.731-.311h-.231a1.05 1.05 0 00-.731.311.29.29 0 01-.192.078h-.231a.29.29 0 01-.192-.078 1.047 1.047 0 00-.731-.311h-.231c-.269 0-.539.117-.731.311a.29.29 0 01-.192.078h-.231a.29.29 0 01-.192-.078 1.047 1.047 0 00-.731-.311h-.231a1.05 1.05 0 00-.731.311l-.077.078h-.154c.385-1.362 1.616-2.334 3.039-2.334zm-3.5 3.112h.923l.308-.311a.29.29 0 01.192-.078h.231a.29.29 0 01.192.078c.192.194.462.311.731.311h.231c.269 0 .538-.117.731-.311a.29.29 0 01.192-.078h.231a.29.29 0 01.192.078c.192.194.462.311.731.311h.231c.269 0 .539-.117.731-.311a.29.29 0 01.192-.078h.231a.29.29 0 01.192.078c.192.194.462.311.731.311h.231c.269 0 .539-.117.731-.311a.29.29 0 01.192-.078h.231a.29.29 0 01.192.078l.308.311h.923c.231 0 .385.156.385.389s-.154.389-.385.389H21.828c-.231 0-.385-.156-.385-.389s.192-.389.385-.389zm6.539 5.447h-3.039a3.1 3.1 0 01-3-2.334h9.078c-.385 1.362-1.616 2.334-3.039 2.334zm3.462-3.112H21.828c-.231 0-.385-.156-.385-.389s.154-.389.385-.389h10.001c.231 0 .385.156.385.389s-.154.389-.385.389z"
      /></symbol><symbol id="present-opt" viewBox="0 0 34 32"><path
        fill="var(--color7, #57b6bb)"
        d="M32.32 22.38c-.464-2.434-2.608-4.172-5.099-4.172h-4.056c-2.492 0-4.636 1.796-5.099 4.172a1.495 1.495 0 00-1.101 1.449c0 .406.174.753.406 1.043-.232.29-.406.637-.406 1.043 0 .695.464 1.275 1.101 1.449.464 2.434 2.608 4.172 5.099 4.172h4.056c2.492 0 4.636-1.796 5.099-4.172a1.495 1.495 0 001.101-1.449c0-.406-.174-.753-.406-1.043.232-.29.406-.637.406-1.043 0-.637-.464-1.275-1.101-1.449zm-9.156-3.129h4.056c1.912 0 3.535 1.275 4.056 3.071h-.174l-.116-.116a1.356 1.356 0 00-.985-.406h-.29c-.348 0-.695.116-.985.406a.44.44 0 01-.232.116h-.29c-.116 0-.174-.058-.232-.116a1.356 1.356 0 00-.985-.406h-.29c-.348 0-.695.116-.985.406a.44.44 0 01-.232.116h-.29c-.116 0-.174-.058-.232-.116a1.356 1.356 0 00-.985-.406h-.29c-.348 0-.695.116-.985.406a.44.44 0 01-.232.116h-.29c-.116 0-.174-.058-.232-.116a1.356 1.356 0 00-.985-.406h-.29c-.348 0-.695.116-.985.406l-.348.116h-.174a4.105 4.105 0 013.998-3.071zm-4.635 4.114h1.217l.406-.406a.44.44 0 01.232-.116h.29c.116 0 .174.058.232.116.29.29.637.406.985.406h.348c.348 0 .695-.116.985-.406a.44.44 0 01.232-.116h.29c.116 0 .174.058.232.116.29.29.637.406.985.406h.29c.348 0 .695-.116.985-.406a.44.44 0 01.232-.116h.406c.116 0 .174.058.232.116.29.29.637.406.985.406h.29c.348 0 .695-.116.985-.406a.44.44 0 01.232-.116h.29c.116 0 .174.058.232.116l.406.406h1.217c.29 0 .522.232.522.522s-.232.522-.522.522H18.533c-.29 0-.521-.232-.521-.522s.232-.522.521-.522zm8.692 7.186h-4.056c-1.912 0-3.535-1.275-4.056-3.071H31.22a4.105 4.105 0 01-3.998 3.071zm4.635-4.115H18.528c-.29 0-.521-.232-.521-.522s.232-.521.521-.521h13.386a.52.52 0 01.522.521c-.058.29-.29.522-.579.522z"
      /><path
        fill="var(--color7, #57b6bb)"
        d="M17.482 27.62h-2.086V12.675h6.78v5.036h.521c.232 0 .406 0 .579.058v-5.036h1.101c.29 0 .579-.29.579-.579V6.997c0-.29-.29-.579-.579-.579h-6.432c.522-.58.869-1.391.869-2.26A3.364 3.364 0 0015.453.797c-1.101 0-2.086.522-2.666 1.333A3.682 3.682 0 009.542.218a3.636 3.636 0 00-3.651 3.651c0 .985.406 1.854 1.043 2.55H.792c-.29 0-.579.29-.579.579v5.041c0 .29.29.579.579.579h1.101v15.525c0 .29.29.579.579.579h15.414a6.173 6.173 0 01-.406-1.101zm6.374-20.045v3.94h-8.46v-3.94h8.46zm-10.662-3.36c0-1.275.985-2.26 2.26-2.26s2.26.985 2.26 2.26-.985 2.26-2.26 2.26h-2.26v-2.26zm-3.709-2.84a2.535 2.535 0 012.55 2.55v2.55h-2.55a2.535 2.535 0 01-2.55-2.55c.058-1.391 1.159-2.55 2.55-2.55zm.29 26.245H3.053V12.675h6.78V27.62h-.058zm0-16.104h-8.46v-3.94h8.46v3.94zm4.52 16.104h-3.361V12.675h3.361V27.62zm0-16.104h-3.361v-3.94h3.361v3.94z"
      /></symbol><symbol id="tea-opt" viewBox="0 0 33 32"><path
        fill="var(--color8, #8a8cdc)"
        d="M32.15 15.924v-4.145h-6.788c.155-.155.311-.311.415-.518h.933c1.295 0 2.332-1.036 2.332-2.332s-1.036-2.332-2.332-2.332h-7.513v2.591c0 1.036.415 1.917 1.088 2.591h-5.752v4.145h1.036v-1.036h.725l1.036 2.073h.829v12.954c0 .57-.466 1.036-1.036 1.036s-1.036-.466-1.036-1.036h-1.036c0 1.14.933 2.073 2.073 2.073s2.073-.933 2.073-2.073v-7.254h8.291v7.254c0 1.14.933 2.073 2.073 2.073s2.073-.933 2.073-2.073h-1.036c0 .57-.466 1.036-1.036 1.036s-1.036-.466-1.036-1.036V16.961h.829l1.036-2.073h.725v1.036h1.036zm-5.441-8.291c.725 0 1.295.57 1.295 1.295s-.57 1.295-1.295 1.295h-.415c.104-.311.155-.674.155-1.036V7.633h.259zm-6.477 1.555V7.634h5.182v1.554c0 1.451-1.14 2.591-2.591 2.591s-2.591-1.14-2.591-2.591zm-1.037 12.436v-1.036h8.291v1.036h-8.291zm8.291-2.072h-8.291v-2.591h8.291v2.591zm1.244-3.628H17.952l-.518-1.036h11.814l-.518 1.036zm-13.162-2.072v-1.036h15.545v1.036H15.568zM12.457 30.433c0 .311-.207.518-.518.518s-.518-.207-.518-.518v-8.291h.518c.57 0 1.036-.466 1.036-1.036V20.07c0-.57-.466-1.036-1.036-1.036H3.648L3.13 8.152c0-.881-.674-1.554-1.555-1.554S.02 7.272.02 8.152v.518h1.036v-.518c0-.311.207-.518.518-.518s.518.207.518.518l.518 11.4v2.591h1.036v8.291c0 .311-.207.518-.518.518s-.518-.207-.518-.518v-.518H1.574v.518c0 .881.674 1.555 1.555 1.555s1.555-.674 1.555-1.555v-8.291h5.7v8.291c0 .881.674 1.555 1.554 1.555s1.555-.674 1.555-1.555v-.518h-1.036v.518zM3.648 20.07h8.291v1.036H3.648V20.07zM20.758 2.762c-.311.311-.518.777-.518 1.244s.207.933.518 1.244l.674.674.725-.725-.674-.674c-.155-.155-.207-.311-.207-.518s.052-.363.207-.518l.311-.311c.311-.311.518-.777.518-1.244s-.207-.933-.518-1.244L21.12.016l-.725.725.674.674c.155.155.207.311.207.518s-.052.363-.207.518l-.311.311zM23.857 2.762c-.311.311-.518.777-.518 1.244s.207.933.518 1.244l.674.674.725-.725-.674-.674c-.155-.155-.207-.311-.207-.518s.052-.363.207-.518l.311-.311c.311-.311.518-.777.518-1.244s-.207-.933-.518-1.244l-.674-.674-.725.725.674.674c.155.155.207.311.207.518s-.052.363-.207.518l-.311.311z"
      /></symbol>
<symbol id="icon-close" viewBox="0 0 32 32"><path
        d="M32 3.223L28.777 0 16 12.777 3.223 0 0 3.223 12.777 16 0 28.777 3.223 32 16 19.223 28.777 32 32 28.777 19.223 16 32 3.223z"
      /></symbol><symbol id="icon-car-red" viewBox="0 0 32 32"><path
        fill="var(--color1, #e7426a)"
        d="M29.82 16.185l-3.71-4.406c-.093-.093-.232-.186-.371-.186h-5.101v7.42H2.087v3.246c0 .278.186.464.464.464h2.69c-.046.139-.046.325-.046.464 0 1.299 1.02 2.319 2.319 2.319s2.319-1.02 2.319-2.319c0-.139 0-.325-.046-.464h12.754c-.046.139-.046.325-.046.464 0 1.299 1.02 2.319 2.319 2.319s2.319-1.02 2.319-2.319c0-.139 0-.325-.046-.464h2.365c.278 0 .464-.186.464-.464v-5.797a.646.646 0 00-.093-.278zM28.475 16h-3.2v-1.623h1.809L28.475 16zM7.513 24.58a1.366 1.366 0 01-1.391-1.391c0-.232.046-.464.186-.696a1.386 1.386 0 011.206-.696c.139 0 .232 0 .371.046.232.046.464.186.603.371.093.093.139.185.232.278a1.395 1.395 0 01-1.205 2.087zm17.299 0a1.366 1.366 0 01-1.391-1.391c0-.232.046-.464.185-.696a1.386 1.386 0 011.206-.696c.139 0 .232 0 .371.046.232.046.464.186.603.371.093.093.139.185.232.278.139.232.186.464.186.696 0 .788-.603 1.391-1.391 1.391zm4.174-2.783h-2.319c0-.046-.046-.046-.046-.093l-.139-.139-.093-.093c-.047-.047-.093-.093-.139-.093-.046-.046-.046-.046-.093-.046-.046-.046-.093-.046-.139-.093-.046 0-.046-.046-.093-.046-.046-.046-.093-.046-.139-.093-.046 0-.093-.046-.093-.046-.046 0-.093-.046-.185-.046-.046 0-.093 0-.093-.046-.046 0-.139-.046-.185-.046h-.742c-.047 0-.139 0-.186.046-.046 0-.093 0-.093.046-.046 0-.093.046-.186.046-.046 0-.093.046-.093.046-.046.046-.093.046-.139.093-.046 0-.046.046-.093.046-.046.046-.093.046-.139.093-.046 0-.046.046-.093.046-.046.046-.093.093-.139.093l-.093.093-.139.139c0 .046-.046.046-.046.093H9.368c0-.046-.046-.046-.046-.093l-.139-.139-.093-.093c-.047-.047-.093-.093-.139-.093-.046-.046-.046-.046-.093-.046-.046-.046-.093-.046-.139-.093-.046 0-.046-.046-.093-.046-.046-.046-.093-.046-.139-.093-.046 0-.093-.046-.093-.046-.046 0-.093-.046-.186-.046-.046 0-.093 0-.093-.046-.046 0-.139-.046-.186-.046h-.742c-.047 0-.139 0-.185.046-.046 0-.093 0-.093.046-.046 0-.093.046-.139.046s-.093.046-.139.046c-.046 0-.093.046-.139.046s-.093.046-.139.046c-.046.046-.093.046-.139.093s-.093.046-.093.093-.046.046-.093.093-.093.046-.093.093c-.139.046-.139.093-.186.139s-.046.093-.093.093H3.013v-1.855H21.1c.278 0 .464-.186.464-.464v-6.957h3.942l.788.928H24.81c-.278 0-.464.185-.464.464v2.551c0 .278.186.464.464.464h4.174v4.87z"
      /><path
        fill="var(--color1, #e7426a)"
        d="M17.948 10.017c-.417-2.18-2.319-3.757-4.591-3.757H9.74c-2.226 0-4.128 1.577-4.591 3.757-.557.186-.974.696-.974 1.299 0 .371.139.696.371.928a1.296 1.296 0 00-.371.928c0 .603.417 1.159.974 1.299.417 2.18 2.319 3.757 4.591 3.757h3.617c2.226 0 4.128-1.577 4.591-3.757.557-.186.974-.696.974-1.299 0-.371-.139-.696-.371-.928.232-.232.371-.557.371-.928.046-.603-.371-1.113-.974-1.299zM9.739 7.188h3.617c1.716 0 3.154 1.159 3.617 2.783h-.186l-.093-.093c-.186-.278-.51-.371-.835-.371h-.278c-.325 0-.649.139-.881.371a.355.355 0 01-.232.093h-.278a.35.35 0 01-.232-.093c-.232-.278-.557-.371-.881-.371h-.278c-.325 0-.649.139-.881.371a.355.355 0 01-.232.093h-.278a.35.35 0 01-.232-.093c-.186-.278-.51-.371-.835-.371h-.278c-.325 0-.649.139-.881.371a.355.355 0 01-.232.093h-.278a.35.35 0 01-.232-.093c-.232-.278-.557-.371-.881-.371h-.278c-.325 0-.649.139-.881.371l-.093.046h-.139c.417-1.577 1.901-2.736 3.571-2.736zm-4.174 3.664h1.113l.371-.371c.093-.046.139-.093.232-.093h.278c.093 0 .185.046.232.093.232.232.557.371.881.371h.278c.325 0 .649-.139.881-.371a.355.355 0 01.232-.093h.278c.093 0 .185.046.232.093.232.232.557.371.881.371h.278c.325 0 .649-.139.881-.371a.353.353 0 01.186-.093h.278a.35.35 0 01.232.093c.232.232.557.371.881.371h.278c.325 0 .649-.139.881-.371a.355.355 0 01.232-.093h.278a.35.35 0 01.232.093l.371.371h1.113c.232 0 .464.186.464.464s-.185.464-.464.464H5.563a.465.465 0 010-.928zm7.838 6.447H9.786c-1.716 0-3.154-1.159-3.617-2.783h10.852c-.464 1.67-1.902 2.783-3.617 2.783zm4.174-3.664H5.565c-.232 0-.464-.186-.464-.464s.186-.464.464-.464H17.53c.232 0 .464.185.464.464s-.186.464-.417.464z"
      /></symbol><symbol id="icon-hand" viewBox="0 0 32 32"><path
        fill="var(--color1, #e7426a)"
        d="M25.453 7.401a3.937 3.937 0 00-3.885-3.227h-3.061c-1.884 0-3.493 1.355-3.885 3.227-.471.159-.824.598-.824 1.116 0 .319.118.598.314.797a1.122 1.122 0 00-.314.797c0 .518.353.996.824 1.116a3.938 3.938 0 003.885 3.228h3.061c1.884 0 3.493-1.355 3.885-3.228.471-.159.824-.598.824-1.116 0-.319-.118-.598-.314-.797.196-.199.314-.478.314-.797.039-.518-.314-.956-.824-1.116zm-6.946-2.43h3.061c1.452 0 2.669.996 3.061 2.391h-.157l-.078-.08c-.157-.239-.432-.319-.706-.319h-.235c-.275 0-.549.12-.746.319a.297.297 0 01-.196.08h-.235a.295.295 0 01-.196-.08c-.196-.239-.471-.319-.746-.319h-.235c-.275 0-.549.12-.746.319a.297.297 0 01-.196.08h-.235a.297.297 0 01-.196-.08c-.157-.239-.432-.319-.706-.319h-.235c-.275 0-.549.12-.746.319a.297.297 0 01-.196.08h-.235a.297.297 0 01-.196-.08c-.196-.239-.471-.319-.746-.319h-.235c-.275 0-.549.12-.746.319l-.078.04h-.118c.353-1.355 1.609-2.351 3.022-2.351zm-3.532 3.148h.942l.314-.319c.078-.04.118-.08.196-.08h.235c.079 0 .157.04.196.08.196.199.471.319.746.319h.235c.275 0 .549-.12.746-.319a.297.297 0 01.196-.08h.235c.078 0 .157.04.196.08.196.199.471.319.746.319h.235c.275 0 .549-.12.746-.319a.295.295 0 01.157-.08h.235c.078 0 .157.04.196.08.196.199.471.319.746.319h.235c.275 0 .549-.12.746-.319a.297.297 0 01.196-.08h.235c.079 0 .157.04.196.08l.314.319h.942c.196 0 .392.159.392.398s-.157.398-.392.398H14.972c-.196 0-.393-.159-.393-.398s.196-.398.393-.398zm6.632 5.538h-3.061c-1.452 0-2.669-.996-3.061-2.391h9.183c-.392 1.434-1.609 2.391-3.061 2.391zm3.533-3.148H14.975c-.196 0-.393-.159-.393-.398s.157-.398.393-.398H25.1c.196 0 .392.159.392.398s-.157.398-.353.398z"
      /><path
        fill="var(--color2, #ee3686)"
        stroke="var(--color1, #e7426a)"
        stroke-width=".696"
        d="M3.54 19.744l.001-.001 1.6-1.419s0 0 0 0a.838.838 0 011.179.071l3.873 4.372 1.306 1.474-7.958-4.498zm0 0a.835.835 0 00-.099 1.143l.006.007m.093-1.15l-.093 1.15m-.001-.001l.006.007m-.006-.007l.006.007m0 0l5.195 5.867M3.452 20.9l5.195 5.867m0 .001a.84.84 0 001.178.071h0m-1.178-.071l1.178.071m.001-.001l1.602-1.419m-1.602 1.419l1.602-1.419m-.001.001a.839.839 0 00.071-1.178l-.071 1.178zm-7.976-5.774v0l.002-.002 1.602-1.418a.966.966 0 011.361.083s0 0 0 0l.311.351.256-.345c.514-.694 1.105-1.345 1.775-1.861h0c1.566-1.207 3.648-1.763 5.332-.735 1.06.648 2.252 1.189 3.511 1.414l.03.006h3.624c.614 0 1.051.349 1.192.917l.136.55 4.252-3.678c.54-.467 1.234-.389 1.702.149.47.547.444 1.269-.102 1.743l-6.367 5.52c-.958.83-2.028 1.259-3.294 1.319v0l-7.174.34.172.449a.962.962 0 01-.261 1.067v0L9.91 26.934a.967.967 0 01-1.362-.083l-5.179-5.848a.97.97 0 01.08-1.359zm18.956-.714l-.048.042-.03.056c-.186.346-.531.606-1.072.606h-7.814c-.036 0-.066-.03-.066-.067s.03-.067.066-.067h7.814c.316 0 .599-.112.802-.324.201-.21.298-.493.298-.791a1.13 1.13 0 00-.293-.786 1.083 1.083 0 00-.808-.329h-3.607l-.039-.004c-1.267-.223-2.471-.755-3.587-1.437-1.735-1.06-3.8-.341-5.184.725-.728.56-1.336 1.257-1.857 1.982l-.162.226 4.533 5.118 7.416-.352a5.096 5.096 0 003.216-1.288s0 0 0 0l6.367-5.521a1.06 1.06 0 00.382-.777 1.156 1.156 0 00-.295-.782v-.001a1.121 1.121 0 00-.713-.398 1.032 1.032 0 00-.804.263h0l-4.515 3.905z"
      /></symbol><symbol id="icon-present-red" viewBox="0 0 32 32"><path
        fill="var(--color1, #e7426a)"
        d="M13.391 5.565c1.167 0 2.189.655 2.712 1.616a2.839 2.839 0 012.268-1.141 2.853 2.853 0 012.846 2.846c0 .726-.282 1.392-.734 1.897h5.477a.473.473 0 01.474.474v4.269a.473.473 0 01-.474.474h-1.186v9.96a.473.473 0 01-.474.474H7.699a.473.473 0 01-.474-.474V16H6.039a.473.473 0 01-.474-.474v-4.269a.473.473 0 01.474-.474h5.128a3.08 3.08 0 01-.86-2.134 3.09 3.09 0 013.083-3.083zm0 .949c-1.184 0-2.134.95-2.134 2.134s.95 2.134 2.134 2.134h2.134V8.648c0-1.184-.95-2.134-2.134-2.134zm4.981.474a1.89 1.89 0 00-1.897 1.897v1.897h1.897c1.053 0 1.897-.844 1.897-1.897s-.844-1.897-1.897-1.897zm7.114 4.743h-4.98v3.32h4.98v-3.32zm-5.929 0h-7.115v3.32h7.115v-3.32zm-8.063 0h-4.98v3.32h4.98v-3.32zM23.826 16h-5.455v9.486h5.455V16zm-6.403 0h-2.846v9.486h2.846V16zm-3.795 0H8.173v9.486h5.455V16z"
      /></symbol><symbol id="arrow-down" viewBox="0 0 51 32"><path
        d="M51.2 6.054L45.227 0 25.6 19.892 5.973 0 0 6.054 25.6 32 51.2 6.054z"
      /></symbol><symbol id="arrow-up" viewBox="0 0 51 32"><path
        d="M51.2 25.946L45.227 32 25.6 12.108 5.973 32 0 25.946 25.6 0l25.6 25.946z"
      /></symbol><symbol id="arrow-right" viewBox="0 0 43 32"><path
        d="M1.847 14.215h34.514l-8.235-8.384c-.721-.734-.721-1.925 0-2.659s1.891-.734 2.612 0l11.388 11.593a1.905 1.905 0 010 2.659L30.738 29.018a1.826 1.826 0 01-2.612 0 1.905 1.905 0 010-2.659l8.235-8.384H1.847c-1.02 0-1.847-.842-1.847-1.88s.827-1.88 1.847-1.88z"
      /></symbol><symbol id="car-macaroon" viewBox="0 0 46 32"><path
        fill="var(--color1, #4e9dd3)"
        d="M45.714 16.359l-6.116-7.262c-.153-.153-.382-.306-.612-.306h-8.409v12.231H-.001v5.351c0 .459.306.764.764.764h4.434c-.076.229-.076.535-.076.764 0 2.14 1.682 3.822 3.822 3.822s3.822-1.682 3.822-3.822c0-.229 0-.535-.076-.764h21.022c-.076.229-.076.535-.076.764 0 2.14 1.682 3.822 3.822 3.822s3.822-1.682 3.822-3.822c0-.229 0-.535-.076-.764h3.899c.459 0 .764-.306.764-.764v-9.556c0-.153-.076-.306-.153-.459zm-2.217-.306h-5.275v-2.676h2.981l2.293 2.676zM8.944 30.196c-1.3 0-2.293-.994-2.293-2.293 0-.382.076-.764.306-1.147a2.282 2.282 0 011.988-1.147c.229 0 .382 0 .612.076a1.7 1.7 0 01.994.612c.153.153.229.306.382.459.229.382.306.764.306 1.147a2.3 2.3 0 01-2.293 2.293zm28.514 0c-1.3 0-2.293-.994-2.293-2.293 0-.382.076-.764.306-1.147a2.282 2.282 0 011.988-1.147c.229 0 .382 0 .612.076a1.7 1.7 0 01.994.612c.153.153.229.306.382.459.229.382.306.764.306 1.147 0 1.3-.994 2.293-2.293 2.293zm6.88-4.587h-3.822c0-.076-.076-.076-.076-.153l-.229-.229-.153-.153c-.077-.077-.153-.153-.229-.153-.076-.076-.076-.076-.153-.076-.076-.076-.153-.076-.229-.153-.076 0-.076-.076-.153-.076-.076-.076-.153-.076-.229-.153-.076 0-.153-.076-.153-.076-.076 0-.153-.076-.306-.076-.076 0-.153 0-.153-.076-.076 0-.229-.076-.306-.076h-1.224c-.077 0-.229 0-.306.076-.076 0-.153 0-.153.076-.076 0-.153.076-.306.076-.076 0-.153.076-.153.076-.076.076-.153.076-.229.153-.076 0-.076.076-.153.076-.076.076-.153.076-.229.153-.076 0-.076.076-.153.076-.076.076-.153.153-.229.153l-.153.153-.229.229c0 .076-.076.076-.076.153H12.003c0-.076-.076-.076-.076-.153l-.229-.229-.153-.153c-.077-.077-.153-.153-.229-.153-.076-.076-.076-.076-.153-.076-.076-.076-.153-.076-.229-.153-.076 0-.076-.076-.153-.076-.076-.076-.153-.076-.229-.153-.076 0-.153-.076-.153-.076-.076 0-.153-.076-.306-.076-.076 0-.153 0-.153-.076-.076 0-.229-.076-.306-.076H8.41c-.077 0-.229 0-.306.076-.076 0-.153 0-.153.076-.076 0-.153.076-.229.076s-.153.076-.229.076c-.076 0-.153.076-.229.076s-.153.076-.229.076c-.076.076-.153.076-.229.153s-.153.076-.153.153-.076.076-.153.153-.153.076-.153.153c-.229.076-.229.153-.306.229s-.076.153-.153.153H1.531v-3.058h29.813c.459 0 .764-.306.764-.764V10.32h6.498l1.3 1.529H37.46c-.459 0-.764.306-.764.764v4.204c0 .459.306.764.764.764h6.88v8.027z"
      /><path
        fill="var(--color1, #4e9dd3)"
        d="M26.144 6.192C25.456 2.599 22.322 0 18.576 0h-5.963C8.944 0 5.809 2.599 5.045 6.192c-.917.306-1.605 1.147-1.605 2.14 0 .612.229 1.147.612 1.529a2.135 2.135 0 00-.612 1.529c0 .994.688 1.911 1.605 2.14.688 3.593 3.822 6.192 7.568 6.192h5.963c3.669 0 6.804-2.599 7.568-6.192.917-.306 1.605-1.147 1.605-2.14a2.13 2.13 0 00-.612-1.529c.382-.382.612-.917.612-1.529.076-.994-.612-1.835-1.605-2.14zM12.613 1.529h5.963c2.828 0 5.198 1.911 5.963 4.587h-.306l-.153-.153c-.306-.459-.841-.612-1.376-.612h-.459c-.535 0-1.07.229-1.452.612a.584.584 0 01-.382.153h-.459a.58.58 0 01-.382-.153c-.382-.459-.917-.612-1.452-.612h-.459c-.535 0-1.07.229-1.452.612a.584.584 0 01-.382.153h-.459a.58.58 0 01-.382-.153c-.306-.459-.841-.612-1.376-.612h-.459c-.535 0-1.07.229-1.452.612a.584.584 0 01-.382.153h-.459a.58.58 0 01-.382-.153c-.382-.459-.917-.612-1.452-.612h-.459c-.535 0-1.07.229-1.452.612l-.153.076h-.229c.688-2.599 3.134-4.51 5.886-4.51zm-6.88 6.039h1.835l.612-.612c.153-.076.229-.153.382-.153h.459a.58.58 0 01.382.153c.382.382.917.612 1.452.612h.459c.535 0 1.07-.229 1.452-.612a.584.584 0 01.382-.153h.459a.58.58 0 01.382.153c.382.382.917.612 1.452.612h.459c.535 0 1.07-.229 1.452-.612.076-.076.229-.153.306-.153h.459a.58.58 0 01.382.153c.382.382.917.612 1.452.612h.459c.535 0 1.07-.229 1.452-.612a.584.584 0 01.382-.153h.459a.58.58 0 01.382.153l.612.612h1.835c.382 0 .764.306.764.764s-.306.764-.764.764H5.733c-.382 0-.764-.306-.764-.764s.382-.764.764-.764zm12.919 10.626h-5.963c-2.828 0-5.198-1.911-5.963-4.587h17.888c-.764 2.752-3.134 4.587-5.963 4.587zm6.88-6.039H5.733c-.382 0-.764-.306-.764-.764s.306-.764.764-.764h19.723c.382 0 .764.306.764.764s-.306.764-.688.764z"
      /></symbol><symbol id="heart-macaroon" viewBox="0 0 36 32"><path
        fill="var(--color1, #4e9dd3)"
        d="M26.298 12.633a6.088 6.088 0 00-5.98-4.998h-4.757c-2.922 0-5.436 2.152-5.98 4.998a1.785 1.785 0 00-1.291 1.735c0 .486.204.902.476 1.249-.272.347-.476.764-.476 1.25 0 .833.544 1.527 1.291 1.735a6.088 6.088 0 005.98 4.998h4.757c2.922 0 5.436-2.152 5.98-4.998a1.785 1.785 0 001.291-1.735c0-.486-.204-.902-.476-1.25.272-.347.476-.764.476-1.249 0-.833-.544-1.527-1.291-1.735zM15.561 8.816h4.757c2.242 0 4.145 1.527 4.757 3.679h-.204l-.136-.139a1.574 1.574 0 00-1.155-.486h-.34c-.408 0-.815.139-1.155.486a.515.515 0 01-.272.139h-.34c-.136 0-.204-.069-.272-.139a1.574 1.574 0 00-1.155-.486h-.34c-.408 0-.815.139-1.155.486a.515.515 0 01-.272.139h-.34c-.136 0-.204-.069-.272-.139a1.576 1.576 0 00-1.155-.486h-.34c-.408 0-.815.139-1.155.486a.515.515 0 01-.272.139h-.34c-.136 0-.204-.069-.272-.139a1.574 1.574 0 00-1.155-.486h-.34c-.408 0-.815.139-1.155.486l-.136.139h-.476c.544-2.082 2.446-3.679 4.689-3.679zm-5.436 4.928h1.427l.476-.486c.068-.069.204-.069.34-.069h.34c.136 0 .204.069.272.139.34.347.748.486 1.155.486h.34c.408 0 .815-.139 1.155-.486a.515.515 0 01.272-.139h.408c.136 0 .204.069.272.139.34.347.747.486 1.155.486h.34c.408 0 .815-.139 1.155-.486a.515.515 0 01.272-.139h.34c.136 0 .204.069.272.139.34.347.747.486 1.155.486h.476c.408 0 .815-.139 1.155-.486.068-.139.204-.139.272-.139h.34c.136 0 .204.069.272.139l.476.486h1.563c.34 0 .611.278.611.625s-.272.625-.611.625H10.128c-.34 0-.612-.278-.612-.625s.272-.694.612-.694zm10.193 8.677h-4.757c-2.242 0-4.145-1.527-4.757-3.679h14.202c-.544 2.082-2.446 3.679-4.689 3.679zm5.504-4.929H10.125c-.34 0-.612-.278-.612-.625s.272-.625.612-.625h15.697c.34 0 .611.278.611.625s-.34.625-.611.625z"
      /><path
        fill="var(--color1, #4e9dd3)"
        d="M8.289 1.388c4.349 0 8.494 4.165 8.698 4.373.272.278.612.347.883.347s.612-.139.883-.347c.068 0 2.106-2.082 4.893-3.332 1.427-.625 2.718-.972 3.941-.972 1.767 0 3.33.694 4.689 2.082 1.699 1.666 2.378 3.679 2.174 5.97-.748 8.469-13.455 18.464-16.58 20.824-1.359-1.041-4.485-3.471-7.679-6.594C4.823 18.255 1.765 13.396 1.357 9.44c-.136-2.291.544-4.234 2.174-5.97 1.495-1.527 3.194-2.082 4.757-2.082zm0-1.388C6.115 0 4.212.833 2.581 2.499.61 4.581-.205 6.872-.001 9.579c.408 4.304 3.534 9.371 9.309 15.063 3.33 3.263 6.591 5.831 7.815 6.733l.815.625.815-.625c3.805-2.846 16.309-12.842 17.124-21.796.272-2.777-.612-5.137-2.582-7.08C31.664.833 29.762 0 27.587 0c-1.427 0-2.922.347-4.485 1.111a18.551 18.551 0 00-4.825 3.262h-.068l-.34.347C17.257 4.026 12.976 0 8.288 0z"
      /></symbol><symbol id="nut" viewBox="0 0 24 32"><path
        fill="var(--color1, #4e9dd3)"
        d="M18.369 6.115a.752.752 0 00-1.292 0 62.26 62.26 0 00-3.048 5.926A72.813 72.813 0 008.505.364L8.504.362a.73.73 0 00-.138-.164.748.748 0 00-.135-.102L8.229.095a.731.731 0 00-.156-.064L8.032.02a.676.676 0 00-.346 0l-.041.011a.72.72 0 00-.155.063l-.003.001a.748.748 0 00-.166.131.73.73 0 00-.107.135l-.001.002C6.919.854 0 12.478 0 20.123c0 8.755 4.06 11.875 7.859 11.875 1.002 0 1.99-.224 2.894-.655s1.698-1.059 2.325-1.837a5.568 5.568 0 004.645 2.493c3.152 0 6.52-2.568 6.52-9.777 0-6.243-5.634-15.707-5.874-16.107zM7.859 30.499c-.357-.113-1.641-2.165-1.641-10.374 0-4.659.943-11.072 1.641-15.185.699 4.112 1.642 10.524 1.642 15.185 0 8.21-1.284 10.261-1.642 10.374zM1.505 20.125c0-4.531 2.721-10.793 4.771-14.868-.695 4.153-1.562 10.262-1.562 14.868 0 3.609.243 7.678 1.174 9.993-2.747-1.136-4.382-4.75-4.382-9.993zm8.326 9.993c.931-2.315 1.174-6.384 1.174-9.993 0-4.606-.868-10.714-1.562-14.867a58.986 58.986 0 013.768 9.141v.002c.307 1.011.556 2.038.745 3.077l.009.051c.037.211.069.418.097.621.004.029.009.057.012.086.026.19.047.376.065.559l.012.107c.016.176.028.347.038.516l.008.113c.01.202.015.4.015.593 0 .198-.002.393-.007.586-.07 2.897-.662 5.316-1.723 7.021-.009.017-.016.034-.023.051a5.718 5.718 0 01-2.629 2.335zm7.892.382c-1.556 0-2.836-.804-3.723-2.33.917-1.631 1.541-3.846 1.684-6.751l.009-.198c.015-.356.025-.719.025-1.095 0-.221-.007-.448-.019-.681-.005-.105-.015-.212-.022-.318-.009-.124-.017-.247-.029-.374-.014-.146-.032-.294-.049-.441-.01-.086-.02-.172-.032-.26a22.2 22.2 0 00-.083-.55l-.025-.158a25.076 25.076 0 00-.124-.669l-.01-.049a29.685 29.685 0 00-.596-2.405 61.704 61.704 0 012.992-6.201c1.485 2.691 5.015 9.573 5.015 14.202 0 5.106-1.922 8.277-5.015 8.277z"
      /></symbol><symbol id="action" viewBox="0 0 15 15"><path
        fill="var(--color1, #e7426a)"
        d="M15 7.5a7.5 7.5 0 11-15 0 7.5 7.5 0 0115 0z"
      /><path
        fill="var(--color2, #fff)"
        d="M6.949 6.931c-.281.288-.644.431-1.088.431s-.806-.144-1.088-.431c-.275-.294-.413-.659-.413-1.097 0-.444.141-.813.422-1.106.281-.3.641-.45 1.078-.45.444 0 .806.15 1.088.45.288.294.431.663.431 1.106 0 .438-.144.803-.431 1.097zm-1.171 3.694h-.506l3.994-6.253h.516l-4.003 6.253zm4.434-.319c-.281.288-.644.431-1.088.431s-.806-.144-1.088-.431c-.275-.294-.412-.659-.412-1.097 0-.444.141-.813.422-1.106.281-.3.641-.45 1.078-.45.444 0 .806.15 1.088.45.281.294.422.663.422 1.106 0 .438-.141.803-.422 1.097zM5.187 6.594c.175.2.4.3.675.3s.503-.1.684-.3a1.11 1.11 0 00.272-.759c0-.312-.091-.569-.272-.769a.855.855 0 00-.684-.309c-.275 0-.5.103-.675.309-.175.2-.263.456-.263.769 0 .3.087.553.263.759zM8.44 9.969c.181.2.409.3.684.3s.503-.1.684-.3a1.11 1.11 0 00.272-.759c0-.312-.091-.569-.272-.769-.175-.206-.403-.309-.684-.309s-.509.103-.684.309c-.175.2-.262.456-.262.769 0 .3.087.553.262.759z"
      /></symbol><symbol id="cart" viewBox="0 0 15 15"><path
        stroke-linejoin="round"
        stroke-linecap="round"
        stroke-miterlimit="10"
        stroke-width=".682"
        d="M12.273 3.821H2.728v10.506h9.545V3.821z"
      /><path
        stroke-linejoin="round"
        stroke-linecap="round"
        stroke-miterlimit="10"
        stroke-width=".682"
        d="M4.969 5.102V2.411c0-.961.705-1.73 1.538-1.73h1.986c.833 0 1.538.769 1.538 1.73v2.691"
      /></symbol><symbol id="facebook" viewBox="0 0 15 15"><path
        d="M10.461 7.775H8.554v6.988h-2.89V7.775H4.29V5.319h1.374V3.73c0-1.136.54-2.916 2.916-2.916l2.141.009v2.384H9.168c-.255 0-.613.127-.613.669v1.445h2.16l-.252 2.454z"
      /></symbol><symbol id="instagram" viewBox="0 0 15 15"><path
        d="M10.571.123H4.105A3.987 3.987 0 00.123 4.105v6.466a3.986 3.986 0 003.982 3.982h6.466a3.986 3.986 0 003.982-3.982V4.105A3.986 3.986 0 0010.571.123zm2.702 10.448a2.705 2.705 0 01-2.702 2.702H4.105a2.705 2.705 0 01-2.702-2.702V4.105a2.705 2.705 0 012.702-2.702h6.466a2.705 2.705 0 012.702 2.702v6.466z"
      /><path
        d="M7.339 3.62c-2.05 0-3.719 1.668-3.719 3.719s1.668 3.718 3.719 3.718c2.05 0 3.718-1.668 3.718-3.718S9.389 3.62 7.339 3.62zm0 6.156c-1.344 0-2.438-1.094-2.438-2.438S5.995 4.9 7.339 4.9s2.438 1.094 2.438 2.438a2.441 2.441 0 01-2.438 2.438zM11.213 2.534a.941.941 0 00-.939.939.945.945 0 00.939.939c.248 0 .489-.101.664-.275s.275-.417.275-.664a.942.942 0 00-.939-.939z"
      /></symbol><symbol id="phone" viewBox="0 0 15 15"><path
        fill="none"
        stroke="var(--color3, #000)"
        stroke-linejoin="round"
        stroke-linecap="round"
        stroke-miterlimit="10"
        stroke-width=".75"
        d="M10.262 14.237H4.738a1.362 1.362 0 01-1.363-1.363V2.113c0-.717.574-1.363 1.363-1.363h5.524c.717 0 1.363.574 1.363 1.363v10.761c0 .717-.646 1.363-1.363 1.363zM4.666 11.511h5.667"
      /><path
        d="M7.392 13.376a.502.502 0 100-1.005.502.502 0 000 1.005z"
      /></symbol><symbol id="vk" viewBox="0 0 15 15"><path
        d="M7.361 11.871h.888s.268-.029.405-.177c.126-.136.122-.39.122-.39s-.017-1.192.536-1.368c.545-.173 1.246 1.152 1.988 1.661.561.386.988.301.988.301l1.985-.028s1.038-.064.546-.88c-.04-.067-.287-.604-1.476-1.708-1.244-1.155-1.078-.968.421-2.966.913-1.217 1.278-1.96 1.164-2.278-.109-.303-.78-.223-.78-.223l-2.235.014s-.166-.023-.289.051c-.12.072-.197.24-.197.24s-.354.942-.825 1.742c-.995 1.69-1.393 1.779-1.556 1.674-.378-.245-.284-.982-.284-1.507 0-1.637.248-2.32-.484-2.497-.243-.059-.422-.097-1.043-.104-.797-.008-1.472.002-1.854.19-.254.124-.45.402-.331.418.148.02.482.09.66.332.229.312.221 1.011.221 1.011s.132 1.928-.307 2.167c-.301.164-.714-.171-1.602-1.704-.455-.785-.798-1.653-.798-1.653s-.066-.162-.184-.249a.93.93 0 00-.343-.139l-2.124.014s-.319.009-.436.147c-.104.123-.008.378-.008.378s1.663 3.89 3.545 5.85C5.4 11.987 7.36 11.869 7.36 11.869z"
      /></symbol><symbol id="close" viewBox="0 0 15 15"><path
        d="M15 1.511L13.489 0 7.5 5.989 1.511 0 0 1.511 5.989 7.5 0 13.489 1.511 15 7.5 9.011 13.489 15 15 13.489 9.011 7.5 15 1.511z"
      /></symbol>
      
      <symbol id="cake" viewBox="0 0 24 32"><path
        fill="var(--color1, #e58383)"
        d="M1.167 30.302l.458 1.316c.083.255.375.382.875.382h19c.5 0 .792-.127.875-.382l.458-1.316c.625 0 1.167-.552 1.167-1.188v-.594c0-.637-.542-1.188-1.167-1.188h-.583v-12.35c0-.255-.167-.424-.417-.424h-1V6.325c0-.255-.167-.424-.417-.424h-2.958V.426c0-.255-.167-.424-.417-.424H6.958c-.25 0-.417.17-.417.424v5.475H3.583c-.25 0-.417.17-.417.424v8.276h-1c-.25 0-.417.17-.417.424v12.35h-.583c-.625 0-1.167.552-1.167 1.188v.552c.042.637.542 1.188 1.167 1.188zm20.375.849H2.333l-.292-.849h19.917l-.292.849h-.125zm-3.625-9.209c-.25 0-.417.17-.417.424 0 .891-.708 1.57-1.542 1.57-.875 0-1.542-.721-1.542-1.57 0-.255-.167-.424-.417-.424s-.417.17-.417.424c0 .891-.708 1.57-1.542 1.57s-1.542-.721-1.542-1.57c0-.255-.167-.424-.417-.424s-.417.17-.417.424c0 .891-.708 1.57-1.542 1.57-.875 0-1.542-.721-1.542-1.57 0-.255-.167-.424-.417-.424s-.417.17-.417.424c0 .891-.708 1.57-1.542 1.57-.875 0-1.542-.721-1.542-1.57v-2.292c.417.382.958.594 1.542.594a2.32 2.32 0 001.958-1.061 2.378 2.378 0 001.958 1.061 2.32 2.32 0 001.958-1.061c.417.637 1.167 1.061 1.958 1.061s1.542-.424 1.958-1.061a2.378 2.378 0 001.958 1.061 2.32 2.32 0 001.958-1.061 2.378 2.378 0 001.958 1.061c.583 0 1.125-.212 1.542-.594v2.334c0 .891-.708 1.57-1.542 1.57-.875 0-1.542-.721-1.542-1.57 0-.255-.167-.467-.417-.467zM16.667.849v1.782c0 .721-.583 1.273-1.25 1.273s-1.25-.594-1.25-1.273c0-.255-.167-.424-.417-.424s-.417.17-.417.424c0 .721-.583 1.273-1.25 1.273-.708 0-1.25-.594-1.25-1.273 0-.255-.167-.424-.417-.424s-.417.17-.417.424c0 .721-.583 1.273-1.25 1.273s-1.25-.594-1.25-1.273V.849h9.167zm-9.292 3.48c.333.297.792.467 1.25.467.708 0 1.292-.34 1.667-.891.375.509 1 .891 1.667.891.708 0 1.292-.34 1.667-.891.375.509 1 .891 1.667.891.458 0 .917-.17 1.25-.424v1.57H7.376V4.329zM20 6.748v3.183c0 .721-.583 1.273-1.25 1.273s-1.25-.594-1.25-1.273c0-.255-.167-.424-.417-.424s-.417.17-.417.424c0 .721-.583 1.273-1.25 1.273s-1.25-.594-1.25-1.273c0-.255-.167-.424-.417-.424s-.417.17-.417.424c0 .721-.583 1.273-1.25 1.273-.708 0-1.25-.594-1.25-1.273 0-.255-.167-.424-.417-.424s-.417.17-.417.424c0 .721-.583 1.273-1.25 1.273s-1.25-.594-1.25-1.273c0-.255-.167-.424-.417-.424s-.417.17-.417.424c0 .721-.583 1.273-1.25 1.273s-1.25-.594-1.25-1.273V6.79h15.833v-.042zM4.042 11.586c.333.297.792.467 1.25.467a1.97 1.97 0 001.667-.891c.375.509 1 .891 1.667.891a1.97 1.97 0 001.667-.891c.375.509 1 .891 1.667.891a1.97 1.97 0 001.667-.891c.375.509 1 .891 1.667.891s1.292-.339 1.667-.891c.375.509 1 .891 1.667.891.458 0 .917-.17 1.25-.424V14.6H4.045v-3.013zm17.416 3.82v2.801c0 .891-.708 1.57-1.542 1.57-.875 0-1.542-.721-1.542-1.57 0-.255-.167-.424-.417-.424s-.417.17-.417.424c0 .891-.708 1.57-1.542 1.57-.875 0-1.542-.721-1.542-1.57 0-.255-.167-.424-.417-.424s-.417.17-.417.424c0 .891-.708 1.57-1.542 1.57s-1.542-.721-1.542-1.57c0-.255-.167-.424-.417-.424s-.417.17-.417.424c0 .891-.708 1.57-1.542 1.57-.875 0-1.542-.721-1.542-1.57 0-.255-.167-.424-.417-.424s-.417.17-.417.424c0 .891-.708 1.57-1.542 1.57-.875 0-1.542-.721-1.542-1.57v-2.759h18.75v-.042zM2.583 24.191c.417.382.958.594 1.542.594a2.32 2.32 0 001.958-1.061 2.378 2.378 0 001.958 1.061 2.32 2.32 0 001.958-1.061c.417.637 1.167 1.061 1.958 1.061s1.542-.424 1.958-1.061a2.378 2.378 0 001.958 1.061 2.32 2.32 0 001.958-1.061 2.378 2.378 0 001.958 1.061c.583 0 1.125-.212 1.542-.594v3.141H2.581v-3.141zM.875 28.562c0-.17.167-.34.333-.34h21.667c.167 0 .333.17.333.34v.552c0 .17-.167.34-.333.34H1.208c-.167 0-.333-.17-.333-.34v-.552z"
      /></symbol><symbol id="macarons-pyramid" viewBox="0 0 40 32"><path
        fill="var(--color2, #e67285)"
        d="M25.13 3.639C24.786 1.862 23.182.51 21.349.51h-3.017c-1.833 0-3.437 1.352-3.781 3.129-.496.155-.84.579-.84 1.12 0 .309.115.579.306.772a1.085 1.085 0 00-.306.772c0 .541.344.966.802 1.12a3.86 3.86 0 003.781 3.129h3.017c1.833 0 3.437-1.352 3.781-3.129a1.17 1.17 0 00.802-1.12c0-.309-.115-.579-.306-.772.191-.193.306-.463.306-.772.038-.541-.306-.966-.764-1.12zm-6.798-2.356h3.017c1.413 0 2.635.966 2.979 2.318h-.153l-.076-.077a.973.973 0 00-.726-.309h-.229a1.04 1.04 0 00-.726.309.289.289 0 01-.191.077h-.229a.294.294 0 01-.191-.077.973.973 0 00-.726-.309h-.229a1.04 1.04 0 00-.726.309.289.289 0 01-.191.077h-.229a.294.294 0 01-.191-.077.973.973 0 00-.726-.309h-.229a1.04 1.04 0 00-.726.309.289.289 0 01-.191.077h-.229a.294.294 0 01-.191-.077.973.973 0 00-.726-.309h-.229a1.04 1.04 0 00-.726.309l-.076.077h-.153c.382-1.352 1.604-2.318 3.017-2.318zm-3.475 3.09h.917l.306-.309a.627.627 0 01.191-.077h.229c.076 0 .153.039.191.077.191.193.458.309.726.309h.229c.267 0 .535-.116.726-.309a.627.627 0 01.191-.077h.229c.076 0 .153.039.191.077.191.193.458.309.726.309h.229c.267 0 .535-.116.726-.309a.627.627 0 01.191-.077h.229c.076 0 .153.039.191.077.191.193.458.309.726.309h.229c.267 0 .535-.116.726-.309a.627.627 0 01.191-.077h.229c.076 0 .153.039.191.077l.306.309h.917c.229 0 .382.154.382.386s-.153.386-.382.386h-9.93c-.229 0-.382-.154-.382-.386s.191-.386.382-.386zm6.492 5.408h-3.017a3.079 3.079 0 01-2.979-2.318h9.013c-.382 1.352-1.604 2.318-3.017 2.318zm3.437-3.09h-9.93c-.229 0-.382-.154-.382-.386s.153-.386.382-.386h9.93c.229 0 .382.154.382.386s-.153.386-.382.386zM11.725 24.729A3.86 3.86 0 007.944 21.6H4.927c-1.833 0-3.437 1.352-3.781 3.129-.496.154-.84.579-.84 1.12 0 .309.115.579.306.773a1.084 1.084 0 00-.306.773c0 .541.344.966.802 1.12a3.86 3.86 0 003.781 3.129h3.017c1.833 0 3.437-1.352 3.781-3.129a1.17 1.17 0 00.802-1.12c0-.309-.115-.579-.306-.773.191-.193.306-.463.306-.773.038-.541-.306-.966-.764-1.12zm-6.798-2.356h3.017c1.413 0 2.635.966 2.979 2.318h-.153l-.076-.077a1.038 1.038 0 00-.726-.309h-.229a1.04 1.04 0 00-.726.309.289.289 0 01-.191.077h-.229a.294.294 0 01-.191-.077 1.038 1.038 0 00-.726-.309h-.229a1.04 1.04 0 00-.726.309.289.289 0 01-.191.077h-.229a.294.294 0 01-.191-.077 1.038 1.038 0 00-.726-.309h-.229a1.04 1.04 0 00-.726.309.289.289 0 01-.191.077h-.229a.294.294 0 01-.191-.077 1.038 1.038 0 00-.726-.309h-.229a1.04 1.04 0 00-.726.309l-.076.077h-.153c.382-1.352 1.604-2.318 3.017-2.318zm-3.475 3.09h.917l.306-.309a.289.289 0 01.191-.077h.229c.076 0 .153.039.191.077.191.193.458.309.726.309h.229c.267 0 .535-.116.726-.309a.289.289 0 01.191-.077h.229c.076 0 .153.039.191.077.191.193.458.309.726.309h.229c.267 0 .535-.116.726-.309a.289.289 0 01.191-.077h.229c.076 0 .153.039.191.077.191.193.458.309.726.309h.229c.267 0 .535-.116.726-.309a.289.289 0 01.191-.077h.229c.076 0 .153.039.191.077l.306.309h.917c.229 0 .382.154.382.386s-.153.386-.382.386h-9.93c-.229 0-.382-.155-.382-.386s.153-.386.382-.386zm6.454 5.407H4.889a3.079 3.079 0 01-2.979-2.318h9.013c-.382 1.352-1.604 2.318-3.017 2.318zm3.476-3.09h-9.93c-.229 0-.382-.154-.382-.386s.153-.386.382-.386h9.93c.229 0 .382.154.382.386a.385.385 0 01-.382.386zM25.245 24.729a3.86 3.86 0 00-3.781-3.129h-3.017c-1.833 0-3.437 1.352-3.781 3.129a1.17 1.17 0 00-.802 1.12c0 .309.115.579.306.773a1.084 1.084 0 00-.306.773c0 .541.344.966.802 1.12a3.86 3.86 0 003.781 3.129h3.017c1.833 0 3.437-1.352 3.781-3.129a1.17 1.17 0 00.802-1.12c0-.309-.115-.579-.306-.773.191-.193.306-.463.306-.773a1.17 1.17 0 00-.802-1.12zm-6.798-2.356h3.017c1.413 0 2.635.966 2.979 2.318h-.153l-.076-.077a1.038 1.038 0 00-.726-.309h-.229a1.04 1.04 0 00-.726.309.289.289 0 01-.191.077h-.229a.294.294 0 01-.191-.077 1.038 1.038 0 00-.726-.309h-.229a1.04 1.04 0 00-.726.309.289.289 0 01-.191.077h-.229a.294.294 0 01-.191-.077 1.038 1.038 0 00-.726-.309h-.229a1.04 1.04 0 00-.726.309.289.289 0 01-.191.077h-.229a.294.294 0 01-.191-.077 1.038 1.038 0 00-.726-.309h-.229a1.04 1.04 0 00-.726.309l-.076.077h-.153c.382-1.352 1.604-2.318 3.017-2.318zm-3.476 3.09h.917l.306-.309a.289.289 0 01.191-.077h.229c.076 0 .153.039.191.077.191.193.458.309.726.309h.229c.267 0 .535-.116.726-.309a.289.289 0 01.191-.077h.229c.076 0 .153.039.191.077.191.193.458.309.726.309h.229c.267 0 .535-.116.726-.309a.289.289 0 01.191-.077h.229c.076 0 .153.039.191.077.191.193.458.309.726.309h.229c.267 0 .535-.116.726-.309a.289.289 0 01.191-.077h.229c.076 0 .153.039.191.077l.306.309h.917c.229 0 .382.154.382.386s-.153.386-.382.386h-9.93c-.229 0-.382-.155-.382-.386s.191-.386.382-.386zm6.493 5.407h-3.017a3.079 3.079 0 01-2.979-2.318h9.013c-.382 1.352-1.604 2.318-3.017 2.318zm3.437-3.09h-9.93c-.229 0-.382-.154-.382-.386s.153-.386.382-.386h9.93c.229 0 .382.154.382.386a.385.385 0 01-.382.386zM38.764 24.729a3.86 3.86 0 00-3.781-3.129h-3.017c-1.833 0-3.437 1.352-3.781 3.129a1.17 1.17 0 00-.802 1.12c0 .309.115.579.306.773a1.084 1.084 0 00-.306.773c0 .541.344.966.802 1.12a3.86 3.86 0 003.781 3.129h3.017c1.833 0 3.437-1.352 3.781-3.129a1.17 1.17 0 00.802-1.12c0-.309-.115-.579-.306-.773.191-.193.306-.463.306-.773.038-.541-.306-.966-.802-1.12zm-6.798-2.356h3.017c1.413 0 2.635.966 2.979 2.318h-.153l-.076-.077a1.038 1.038 0 00-.726-.309h-.229a1.04 1.04 0 00-.726.309.289.289 0 01-.191.077h-.229a.294.294 0 01-.191-.077 1.038 1.038 0 00-.726-.309h-.229a1.04 1.04 0 00-.726.309.289.289 0 01-.191.077h-.229a.294.294 0 01-.191-.077 1.038 1.038 0 00-.726-.309h-.229a1.04 1.04 0 00-.726.309.289.289 0 01-.191.077h-.229a.294.294 0 01-.191-.077 1.038 1.038 0 00-.726-.309h-.229a1.04 1.04 0 00-.726.309l-.076.077h-.153c.382-1.352 1.604-2.318 3.017-2.318zm-3.437 3.09h.917l.306-.309a.289.289 0 01.191-.077h.229c.076 0 .153.039.191.077.191.193.458.309.726.309h.229c.267 0 .535-.116.726-.309a.289.289 0 01.191-.077h.229c.076 0 .153.039.191.077.191.193.458.309.726.309h.229c.267 0 .535-.116.726-.309a.289.289 0 01.191-.077h.229c.076 0 .153.039.191.077.191.193.458.309.726.309h.229c.267 0 .535-.116.726-.309a.289.289 0 01.191-.077h.229c.076 0 .153.039.191.077l.306.309h.917c.229 0 .382.154.382.386s-.153.386-.382.386h-9.93c-.229 0-.382-.155-.382-.386s.153-.386.382-.386zm6.454 5.407h-3.017a3.079 3.079 0 01-2.979-2.318H38c-.382 1.352-1.604 2.318-3.017 2.318zm3.476-3.09h-9.93c-.229 0-.382-.154-.382-.386s.153-.386.382-.386h9.93c.229 0 .382.154.382.386 0 .193-.191.386-.382.386zM18.485 14.184a3.86 3.86 0 00-3.781-3.129h-3.017c-1.833 0-3.437 1.352-3.781 3.129a1.17 1.17 0 00-.802 1.12c0 .309.115.579.306.773a1.084 1.084 0 00-.306.773c0 .541.344.966.802 1.12a3.86 3.86 0 003.781 3.129h3.017c1.833 0 3.437-1.352 3.781-3.129a1.17 1.17 0 00.802-1.12c0-.309-.115-.579-.306-.773.191-.193.306-.464.306-.773 0-.541-.344-1.004-.802-1.12zm-6.798-2.395h3.017c1.413 0 2.635.966 2.979 2.318h-.153l-.076-.077a1.038 1.038 0 00-.726-.309h-.229a1.04 1.04 0 00-.726.309.289.289 0 01-.191.077h-.229a.294.294 0 01-.191-.077 1.038 1.038 0 00-.726-.309h-.229a1.04 1.04 0 00-.726.309.289.289 0 01-.191.077h-.229a.294.294 0 01-.191-.077 1.038 1.038 0 00-.726-.309h-.229a1.04 1.04 0 00-.726.309.289.289 0 01-.191.077h-.229a.294.294 0 01-.191-.077 1.038 1.038 0 00-.726-.309h-.229a1.04 1.04 0 00-.726.309l-.076.077h-.153c.382-1.352 1.604-2.318 3.017-2.318zm-3.475 3.09h.917l.306-.309a.289.289 0 01.191-.077h.229c.076 0 .153.039.191.077.191.193.458.309.726.309h.229c.267 0 .535-.116.726-.309a.289.289 0 01.191-.077h.229c.076 0 .153.039.191.077.191.193.458.309.726.309h.229c.267 0 .535-.116.726-.309a.289.289 0 01.191-.077h.229c.076 0 .153.039.191.077.191.193.458.309.726.309h.229c.267 0 .535-.116.726-.309a.289.289 0 01.191-.077h.229c.076 0 .153.039.191.077l.306.309h.917c.229 0 .382.155.382.386s-.153.386-.382.386h-9.93c-.229 0-.382-.155-.382-.386s.191-.386.382-.386zm6.492 5.408h-3.017a3.079 3.079 0 01-2.979-2.318h9.013c-.42 1.352-1.604 2.318-3.017 2.318zm3.437-3.09h-9.93c-.229 0-.382-.154-.382-.386s.153-.386.382-.386h9.93c.229 0 .382.154.382.386s-.153.386-.382.386zM32.004 14.184a3.86 3.86 0 00-3.781-3.129h-3.017c-1.833 0-3.437 1.352-3.781 3.129a1.17 1.17 0 00-.802 1.12c0 .309.115.579.306.773a1.084 1.084 0 00-.306.773c0 .541.344.966.802 1.12a3.86 3.86 0 003.781 3.129h3.017c1.833 0 3.437-1.352 3.781-3.129a1.17 1.17 0 00.802-1.12c0-.309-.115-.579-.306-.773.191-.193.306-.464.306-.773 0-.541-.344-1.004-.802-1.12zm-6.798-2.395h3.017c1.413 0 2.635.966 2.979 2.318h-.153l-.076-.077a1.038 1.038 0 00-.726-.309h-.229a1.04 1.04 0 00-.726.309.289.289 0 01-.191.077h-.229a.294.294 0 01-.191-.077 1.038 1.038 0 00-.726-.309h-.229a1.04 1.04 0 00-.726.309.289.289 0 01-.191.077h-.229a.294.294 0 01-.191-.077 1.038 1.038 0 00-.726-.309h-.229a1.04 1.04 0 00-.726.309.289.289 0 01-.191.077h-.229a.294.294 0 01-.191-.077 1.038 1.038 0 00-.726-.309h-.229a1.04 1.04 0 00-.726.309l-.076.077h-.153c.382-1.352 1.604-2.318 3.017-2.318zm-3.475 3.09h.917l.306-.309a.289.289 0 01.191-.077h.229c.076 0 .153.039.191.077.191.193.458.309.726.309h.229c.267 0 .535-.116.726-.309a.289.289 0 01.191-.077h.229c.076 0 .153.039.191.077.191.193.458.309.726.309h.229c.267 0 .535-.116.726-.309a.289.289 0 01.191-.077h.229c.076 0 .153.039.191.077.191.193.458.309.726.309h.229c.267 0 .535-.116.726-.309a.289.289 0 01.191-.077h.229c.076 0 .153.039.191.077l.306.309h.917c.229 0 .382.155.382.386s-.153.386-.382.386h-9.93c-.229 0-.382-.155-.382-.386s.191-.386.382-.386zm6.493 5.408h-3.017a3.079 3.079 0 01-2.979-2.318h9.013c-.382 1.352-1.604 2.318-3.017 2.318zm3.437-3.09h-9.93c-.229 0-.382-.154-.382-.386s.153-.386.382-.386h9.93c.229 0 .382.154.382.386s-.153.386-.382.386z"
      /></symbol><symbol id="macarons-square" viewBox="0 0 32 32"><path
        fill="var(--color3, #f4976e)"
        d="M30.7 1.3v29.399H1.301V1.3H30.7zm0-.815H1.301a.818.818 0 00-.816.816V30.7c0 .449.367.816.816.816H30.7a.818.818 0 00.816-.816V1.301A.818.818 0 0030.7.485z"
      /><path
        fill="var(--color3, #f4976e)"
        d="M16.428 9.496a1.14 1.14 0 00-.326-.816c.204-.204.326-.489.326-.816 0-.571-.367-1.019-.856-1.183a4.154 4.154 0 00-4.078-3.303H8.273a4.115 4.115 0 00-4.037 3.303 1.237 1.237 0 00-.856 1.183c0 .326.122.612.326.816a1.138 1.138 0 00-.326.816c0 .571.367 1.019.856 1.182.367 1.916 2.08 3.303 4.037 3.303h3.221c1.957 0 3.67-1.427 4.037-3.303.53-.163.897-.652.897-1.182zM8.273 4.195h3.221a3.28 3.28 0 013.181 2.447h-.163l-.082-.082a1.113 1.113 0 00-.775-.326h-.245c-.285 0-.571.122-.775.326a.31.31 0 01-.204.082h-.245a.31.31 0 01-.204-.082 1.113 1.113 0 00-.775-.326h-.245c-.285 0-.571.122-.775.326a.31.31 0 01-.204.082h-.245a.31.31 0 01-.204-.082 1.113 1.113 0 00-.775-.326h-.245c-.285 0-.571.122-.775.326a.31.31 0 01-.204.082H7.29a.31.31 0 01-.204-.082 1.113 1.113 0 00-.775-.326h-.245c-.285 0-.571.122-.775.326l-.082.082h-.163a3.365 3.365 0 013.221-2.447zm-3.67 3.262h.979l.326-.326a.31.31 0 01.204-.082h.245a.31.31 0 01.204.082c.204.204.489.326.775.326h.245c.285 0 .571-.122.775-.326a.31.31 0 01.204-.082h.245a.31.31 0 01.204.082c.204.204.489.326.775.326h.245c.285 0 .571-.122.775-.326a.31.31 0 01.204-.082h.245a.31.31 0 01.204.082c.204.204.489.326.775.326h.245c.285 0 .571-.122.775-.326a.31.31 0 01.204-.082h.245a.31.31 0 01.204.082l.326.326h.979c.245 0 .408.163.408.408s-.163.408-.408.408H4.608c-.245 0-.408-.163-.408-.408s.163-.408.408-.408zm0 1.632h10.602c.245 0 .408.163.408.408s-.163.408-.408.408H4.603c-.245 0-.408-.163-.408-.408s.163-.408.408-.408zm6.891 4.077H8.273a3.28 3.28 0 01-3.181-2.447h9.623a3.365 3.365 0 01-3.221 2.447zM27.764 21.362c-.367-1.916-2.08-3.303-4.037-3.303h-3.221c-1.957 0-3.67 1.427-4.037 3.303a1.237 1.237 0 00-.856 1.183c0 .326.122.612.326.816a1.138 1.138 0 00-.326.816c0 .571.367 1.019.856 1.183.367 1.916 2.08 3.303 4.037 3.303h3.221c1.957 0 3.67-1.427 4.037-3.303.489-.163.856-.612.856-1.183a1.14 1.14 0 00-.326-.816c.204-.204.326-.489.326-.816.041-.571-.326-1.019-.856-1.183zm-7.258-2.487h3.221a3.277 3.277 0 013.18 2.447h-.163l-.082-.082a1.113 1.113 0 00-.775-.326h-.245c-.285 0-.571.122-.775.326a.31.31 0 01-.204.082h-.245a.31.31 0 01-.204-.082 1.113 1.113 0 00-.775-.326h-.245c-.285 0-.571.122-.775.326a.31.31 0 01-.204.082h-.245a.31.31 0 01-.204-.082 1.113 1.113 0 00-.775-.326h-.245c-.285 0-.571.122-.775.326a.31.31 0 01-.204.082h-.245a.31.31 0 01-.204-.082 1.113 1.113 0 00-.775-.326h-.245c-.285 0-.571.122-.775.326l-.082.082h-.163a3.365 3.365 0 013.221-2.447zm-3.67 3.262h.979l.326-.326a.31.31 0 01.204-.082h.245a.31.31 0 01.204.082c.204.204.489.326.775.326h.245c.285 0 .571-.122.775-.326a.31.31 0 01.204-.082h.245a.31.31 0 01.204.082c.204.204.489.326.775.326h.245c.285 0 .571-.122.775-.326a.31.31 0 01.204-.082h.245a.31.31 0 01.204.082c.204.204.489.326.775.326h.245c.285 0 .571-.122.775-.326a.31.31 0 01.204-.082h.245a.31.31 0 01.204.082l.326.326h.979c.245 0 .408.163.408.408s-.163.408-.408.408H16.841c-.245 0-.408-.163-.408-.408s.163-.408.408-.408zm6.891 5.708h-3.221a3.28 3.28 0 01-3.181-2.447h9.623a3.365 3.365 0 01-3.221 2.447zm3.711-3.262H16.836c-.245 0-.408-.163-.408-.408s.163-.408.408-.408h10.602c.245 0 .408.163.408.408s-.204.408-.408.408zM10.638 16.469a1.237 1.237 0 00-1.183-.856 1.14 1.14 0 00-.816.326 1.138 1.138 0 00-.816-.326c-.571 0-1.019.367-1.182.856-1.917.367-3.303 2.08-3.303 4.037v3.221c0 1.957 1.427 3.67 3.303 4.037.163.489.612.856 1.182.856.326 0 .612-.122.816-.326.204.204.489.326.816.326.571 0 1.019-.367 1.183-.856 1.916-.367 3.303-2.08 3.303-4.037v-3.221c.041-1.957-1.386-3.67-3.303-4.037zm-6.443 7.258v-3.221a3.28 3.28 0 012.447-3.181v.163l-.082.082a1.113 1.113 0 00-.326.775v.245c0 .285.122.571.326.775a.31.31 0 01.082.204v.245a.31.31 0 01-.082.204 1.113 1.113 0 00-.326.775v.245c0 .285.122.571.326.775a.31.31 0 01.082.204v.245a.31.31 0 01-.082.204 1.113 1.113 0 00-.326.775v.245c0 .285.122.571.326.775a.31.31 0 01.082.204v.245a.31.31 0 01-.082.204 1.113 1.113 0 00-.326.775v.245c0 .285.122.571.326.775l.082.082v.163a3.365 3.365 0 01-2.447-3.221zm3.67 4.119c-.245 0-.408-.163-.408-.408v-.979l-.326-.326a.31.31 0 01-.082-.204v-.245a.31.31 0 01.082-.204c.204-.204.326-.489.326-.775v-.245c0-.285-.122-.571-.326-.775a.31.31 0 01-.082-.204v-.245a.31.31 0 01.082-.204c.204-.204.326-.489.326-.775v-.245c0-.285-.122-.571-.326-.775a.31.31 0 01-.082-.204v-.245a.31.31 0 01.082-.204c.204-.204.326-.489.326-.775v-.245c0-.285-.122-.571-.326-.775a.31.31 0 01-.082-.204v-.245a.31.31 0 01.082-.204l.326-.326v-.979c0-.245.163-.408.408-.408s.408.163.408.408v10.602a.439.439 0 01-.408.408zm2.039-.408c0 .245-.163.408-.408.408s-.408-.163-.408-.408V16.836c0-.245.163-.408.408-.408s.408.163.408.408v10.602zm3.262-3.711a3.277 3.277 0 01-2.447 3.18v-9.582a3.28 3.28 0 012.447 3.181v3.221zM25.317 4.236a1.237 1.237 0 00-1.183-.856c-.326 0-.612.122-.815.326a1.138 1.138 0 00-.816-.326c-.571 0-1.019.367-1.183.856-1.916.367-3.303 2.08-3.303 4.037v3.221c0 1.957 1.427 3.67 3.303 4.037.163.489.612.856 1.183.856.326 0 .612-.122.816-.326.204.204.489.326.815.326.571 0 1.019-.367 1.183-.856 1.916-.367 3.303-2.08 3.303-4.037V8.273c.041-1.957-1.386-3.67-3.303-4.037zm-6.442 7.258V8.273a3.28 3.28 0 012.447-3.181v9.623a3.365 3.365 0 01-2.447-3.221zm3.669 4.119c-.245 0-.408-.163-.408-.408V4.603c0-.245.163-.408.408-.408s.408.163.408.408v10.602a.439.439 0 01-.408.408zm2.039-1.387v.979c0 .245-.163.408-.408.408s-.408-.163-.408-.408V4.603c0-.245.163-.408.408-.408s.408.163.408.408v.979l.326.326a.31.31 0 01.082.204v.245a.31.31 0 01-.082.204 1.113 1.113 0 00-.326.775v.245c0 .285.122.571.326.775a.31.31 0 01.082.204v.245a.31.31 0 01-.082.204 1.113 1.113 0 00-.326.775v.245c0 .285.122.571.326.775a.31.31 0 01.082.204v.245a.31.31 0 01-.082.204 1.113 1.113 0 00-.326.775v.245c0 .285.122.571.326.775a.31.31 0 01.082.204v.245a.31.31 0 01-.082.204l-.326.326zm3.262-2.732a3.28 3.28 0 01-2.447 3.181v-.163l.082-.082c.204-.204.326-.489.326-.775v-.245c0-.285-.122-.571-.326-.775a.31.31 0 01-.082-.204v-.245a.31.31 0 01.082-.204c.204-.204.326-.489.326-.775v-.245c0-.285-.122-.571-.326-.775a.31.31 0 01-.082-.204v-.245a.31.31 0 01.082-.204c.204-.204.326-.489.326-.775v-.245c0-.285-.122-.571-.326-.775a.31.31 0 01-.082-.204V7.29a.31.31 0 01.082-.204c.204-.204.326-.489.326-.775v-.245c0-.285-.122-.571-.326-.775l-.082-.082v-.163a3.28 3.28 0 012.447 3.181v3.262z"
      /></symbol><symbol id="paint" viewBox="0 0 32 32"><path
        fill="var(--color4, #9fce9e)"
        d="M24.956 11.639c.283-2.177-.667-4.162-2.538-5.309a11.92 11.92 0 00-9.959-1.158c-3.155 1.044-5.662 3.29-7.061 6.324-2.483 5.392-.562 11.84 4.468 14.998a11.725 11.725 0 001.11.619c1.972.966 4.237.695 5.911-.707 1.759-1.474 2.452-3.779 1.809-6.014v-.001c-.28-.97-.231-1.813.146-2.503.376-.688 1.057-1.184 2.025-1.474 2.225-.667 3.792-2.496 4.088-4.774zm-6.982 5.774c-.499.915-.578 2.04-.228 3.252.533 1.853-.04 3.762-1.494 4.981-1.39 1.165-3.199 1.381-4.84.577a10.95 10.95 0 01-1.018-.567c-4.61-2.895-6.371-8.804-4.096-13.746C7.58 9.128 9.879 7.068 12.77 6.111a10.93 10.93 0 019.128 1.061c1.532.938 2.308 2.561 2.076 4.339-.245 1.886-1.544 3.401-3.39 3.954-1.21.361-2.112 1.035-2.61 1.948z"
      /><path
        fill="var(--color4, #9fce9e)"
        d="M21.073 7.513c-.95-.519-2.145-.167-2.664.783s-.167 2.145.783 2.663a1.963 1.963 0 001.881-3.447zm-1.407 2.578a.974.974 0 11.933-1.71.974.974 0 01-.932 1.71zM13.204 21.932c-.95-.519-2.145-.168-2.664.782s-.167 2.145.783 2.664c.95.519 2.145.167 2.663-.783s.168-2.145-.783-2.663zm-1.407 2.578c-.471-.257-.645-.85-.388-1.321s.85-.645 1.321-.388a.974.974 0 01-.933 1.708zM10.711 13.451c.519-.95.168-2.145-.782-2.664s-2.145-.167-2.664.783c-.519.95-.167 2.145.783 2.663s2.145.168 2.663-.783zm-2.189-.086a.974.974 0 11.932-1.71.974.974 0 01-.931 1.71zM7.764 16.877a1.967 1.967 0 00-1.33 2.437c.148.503.483.919.943 1.17s.991.308 1.494.16.918-.482 1.17-.943.309-.991.16-1.494a1.966 1.966 0 00-2.437-1.33zm.828 2.818a.995.995 0 01-1.208-.66.975.975 0 01.659-1.208.975.975 0 011.128 1.401.966.966 0 01-.58.467zM13.329 6.682a1.967 1.967 0 00-1.33 2.437c.153.519.502.928.944 1.169s.974.314 1.493.161c.503-.148.919-.483 1.17-.943s.308-.991.16-1.494c-.295-1.007-1.431-1.626-2.437-1.33zm.827 2.818a.974.974 0 11-.548-1.87.974.974 0 01.548 1.871zM27.133 18.452l.698-2.414c.459-.17.864-.492 1.117-.954.47-.862.311-3.498.274-4.017-.023-.336-.436-.561-.731-.399-.457.25-2.76 1.542-3.23 2.404a2.08 2.08 0 00-.198 1.455L23.41 16.42c-.014.016-.018.037-.029.054-.015.022-.036.039-.047.063l-4.833 10.387c-.302.665-.036 1.46.605 1.81s1.454.144 1.852-.474l6.119-9.68c.014-.023.017-.049.028-.073.008-.019.024-.034.03-.054zm-7.01 9.274a.412.412 0 01-.724-.39l4.609-9.904 1.95 1.064-5.834 9.23zm4.436-11.12l.987-1.131c.155.173.335.328.55.446s.443.185.673.221l-.417 1.442-1.794-.979zm2.012-1.554a1.113 1.113 0 01-.443-1.508c.194-.356 1.217-1.057 2.146-1.613.035 1.082-.001 2.321-.195 2.677-.294.538-.97.737-1.508.443z"
      /></symbol><symbol id="present" viewBox="0 0 34 32"><path
        fill="var(--color5, #57b6bb)"
        d="M32.756 22.736c-.468-2.454-2.63-4.207-5.142-4.207h-4.09c-2.513 0-4.675 1.811-5.142 4.207-.643.175-1.11.76-1.11 1.461 0 .409.175.76.409 1.052-.234.292-.409.643-.409 1.052 0 .701.467 1.285 1.11 1.461.467 2.454 2.63 4.207 5.142 4.207h4.09c2.513 0 4.675-1.811 5.142-4.207a1.507 1.507 0 001.11-1.461c0-.409-.175-.76-.409-1.052.234-.292.409-.643.409-1.052 0-.643-.468-1.285-1.11-1.461zm-9.232-3.155h4.09c1.928 0 3.564 1.286 4.09 3.097h-.175l-.117-.117a1.369 1.369 0 00-.993-.409h-.292c-.351 0-.701.117-.993.409a.444.444 0 01-.234.117h-.292c-.117 0-.175-.058-.234-.117a1.369 1.369 0 00-.993-.409h-.292c-.351 0-.701.117-.993.409a.444.444 0 01-.234.117h-.292c-.117 0-.175-.058-.234-.117a1.369 1.369 0 00-.993-.409h-.292c-.351 0-.701.117-.993.409a.444.444 0 01-.234.117h-.292c-.117 0-.175-.058-.234-.117a1.369 1.369 0 00-.993-.409h-.292c-.351 0-.701.117-.993.409l-.351.117h-.175a4.14 4.14 0 014.032-3.097zm-4.675 4.149h1.227l.409-.409a.444.444 0 01.234-.117h.292c.117 0 .175.058.234.117.292.292.643.409.993.409h.351c.351 0 .701-.117.993-.409a.444.444 0 01.234-.117h.292c.117 0 .175.058.234.117.292.292.643.409.993.409h.292c.351 0 .701-.117.993-.409a.444.444 0 01.234-.117h.409c.117 0 .175.058.234.117.292.292.643.409.993.409h.292c.351 0 .701-.117.993-.409a.444.444 0 01.234-.117h.292c.117 0 .175.058.234.117l.409.409h1.227c.292 0 .526.234.526.526s-.234.526-.526.526H18.848c-.292 0-.526-.234-.526-.526s.234-.526.526-.526zm8.765 7.246h-4.09c-1.928 0-3.564-1.286-4.09-3.097h12.212a4.14 4.14 0 01-4.032 3.097zm4.674-4.149h-13.44c-.292 0-.526-.234-.526-.526s.234-.526.526-.526h13.498c.292 0 .526.234.526.526-.058.292-.292.526-.584.526z"
      /><path
        fill="var(--color5, #57b6bb)"
        d="M17.797 28.018h-2.104v-15.07h6.837v5.078h.526c.234 0 .409 0 .584.058v-5.078h1.11c.292 0 .584-.292.584-.584V7.221c0-.292-.292-.584-.584-.584h-6.486a3.444 3.444 0 00.877-2.279A3.391 3.391 0 0015.752.969c-1.11 0-2.104.526-2.688 1.344A3.713 3.713 0 009.792.385a3.666 3.666 0 00-3.681 3.681c0 .993.409 1.87 1.052 2.571H.969c-.292 0-.584.292-.584.584v5.084c0 .292.292.584.584.584h1.11v15.655c0 .292.292.584.584.584h15.543a6.274 6.274 0 01-.409-1.11zm6.428-20.213v3.973h-8.531V7.805h8.531zM13.473 4.416c0-1.286.993-2.279 2.279-2.279s2.279.993 2.279 2.279-.993 2.279-2.279 2.279h-2.279V4.416zm-3.74-2.863a2.556 2.556 0 012.571 2.571v2.571H9.733a2.556 2.556 0 01-2.571-2.571c.058-1.402 1.169-2.571 2.571-2.571zm.293 26.465H3.248v-15.07h6.837v15.07h-.058zm0-16.239H1.495V7.806h8.531v3.973zm4.557 16.239h-3.389v-15.07h3.389v15.07zm0-16.239h-3.389V7.806h3.389v3.973z"
      /></symbol><symbol id="table" viewBox="0 0 31 32"><path
        fill="var(--color6, #8a8cdc)"
        d="M31.399 15.924v-4.032h-6.602c.151-.151.302-.302.403-.504h.907c1.26 0 2.268-1.008 2.268-2.268s-1.008-2.268-2.268-2.268h-7.308v2.52c0 1.008.403 1.865 1.058 2.52h-5.594v4.032h1.008v-1.008h.706l1.008 2.016h.806v12.6c0 .554-.454 1.008-1.008 1.008s-1.008-.454-1.008-1.008h-1.008c0 1.109.907 2.016 2.016 2.016s2.016-.907 2.016-2.016v-7.056h8.064v7.056c0 1.109.907 2.016 2.016 2.016s2.016-.907 2.016-2.016h-1.008c0 .554-.454 1.008-1.008 1.008s-1.008-.454-1.008-1.008v-12.6h.806l1.008-2.016h.706v1.008h1.008zM26.107 7.86c.706 0 1.26.554 1.26 1.26s-.554 1.26-1.26 1.26h-.403c.101-.302.151-.655.151-1.008V7.86h.252zm-6.3 1.512V7.86h5.04v1.512c0 1.411-1.109 2.52-2.52 2.52s-2.52-1.109-2.52-2.52zm-1.008 12.097v-1.008h8.064v1.008h-8.064zm8.064-2.016h-8.064v-2.52h8.064v2.52zm1.209-3.529H17.589l-.504-1.008h11.491l-.504 1.008zm-12.801-2.016V12.9h15.12v1.008h-15.12zM12.246 30.037c0 .302-.202.504-.504.504s-.504-.202-.504-.504v-8.064h.504c.554 0 1.008-.454 1.008-1.008v-1.008c0-.554-.454-1.008-1.008-1.008H3.678L3.174 8.365c0-.857-.655-1.512-1.512-1.512S.15 7.508.15 8.365v.504h1.008v-.504c0-.302.202-.504.504-.504s.504.202.504.504l.504 11.088v2.52h1.008v8.064c0 .302-.202.504-.504.504s-.504-.202-.504-.504v-.504H1.662v.504c0 .857.655 1.512 1.512 1.512s1.512-.655 1.512-1.512v-8.064h5.544v8.064c0 .857.655 1.512 1.512 1.512s1.512-.655 1.512-1.512v-.504h-1.008v.504zm-8.568-10.08h8.064v1.008H3.678v-1.008zM20.311 3.123c-.302.302-.504.756-.504 1.21s.202.907.504 1.21l.655.655.706-.706-.655-.655c-.151-.151-.202-.302-.202-.504s.05-.353.202-.504l.302-.302c.302-.302.504-.756.504-1.21s-.202-.907-.504-1.21l-.655-.655-.706.706.655.655c.151.151.202.302.202.504s-.05.353-.202.504l-.302.302zM23.335 3.123c-.302.302-.504.756-.504 1.21s.202.907.504 1.21l.655.655.706-.706-.655-.655c-.151-.151-.202-.302-.202-.504s.05-.353.202-.504l.302-.302c.302-.302.504-.756.504-1.21s-.202-.907-.504-1.21l-.655-.655-.706.706.655.655c.151.151.202.302.202.504s-.05.353-.202.504l-.302.302z"
      /></symbol>
      
      </defs></svg>
