<svg
  aria-hidden="true"
  style="position:absolute;width:0;height:0"
  xmlns="http://www.w3.org/2000/svg"
  overflow="hidden"
><defs><symbol id="arrow-down" viewBox="0 0 51 32"><path
        d="M51.2 6.054L45.227 0 25.6 19.892 5.973 0 0 6.054 25.6 32 51.2 6.054z"
      /></symbol><symbol id="arrow-up" viewBox="0 0 51 32"><path
        d="M51.2 25.946L45.227 32 25.6 12.108 5.973 32 0 25.946 25.6 0l25.6 25.946z"
      /></symbol><symbol id="arrow-right" viewBox="0 0 43 32"><path
        d="M1.847 14.215h34.514l-8.235-8.384c-.721-.734-.721-1.925 0-2.659s1.891-.734 2.612 0l11.388 11.593a1.905 1.905 0 010 2.659L30.738 29.018a1.826 1.826 0 01-2.612 0 1.905 1.905 0 010-2.659l8.235-8.384H1.847c-1.02 0-1.847-.842-1.847-1.88s.827-1.88 1.847-1.88z"
      /></symbol><symbol id="car-macaroon" viewBox="0 0 46 32"><path
        fill="var(--color1, #4e9dd3)"
        d="M45.714 16.359l-6.116-7.262c-.153-.153-.382-.306-.612-.306h-8.409v12.231H-.001v5.351c0 .459.306.764.764.764h4.434c-.076.229-.076.535-.076.764 0 2.14 1.682 3.822 3.822 3.822s3.822-1.682 3.822-3.822c0-.229 0-.535-.076-.764h21.022c-.076.229-.076.535-.076.764 0 2.14 1.682 3.822 3.822 3.822s3.822-1.682 3.822-3.822c0-.229 0-.535-.076-.764h3.899c.459 0 .764-.306.764-.764v-9.556c0-.153-.076-.306-.153-.459zm-2.217-.306h-5.275v-2.676h2.981l2.293 2.676zM8.944 30.196c-1.3 0-2.293-.994-2.293-2.293 0-.382.076-.764.306-1.147a2.282 2.282 0 011.988-1.147c.229 0 .382 0 .612.076a1.7 1.7 0 01.994.612c.153.153.229.306.382.459.229.382.306.764.306 1.147a2.3 2.3 0 01-2.293 2.293zm28.514 0c-1.3 0-2.293-.994-2.293-2.293 0-.382.076-.764.306-1.147a2.282 2.282 0 011.988-1.147c.229 0 .382 0 .612.076a1.7 1.7 0 01.994.612c.153.153.229.306.382.459.229.382.306.764.306 1.147 0 1.3-.994 2.293-2.293 2.293zm6.88-4.587h-3.822c0-.076-.076-.076-.076-.153l-.229-.229-.153-.153c-.077-.077-.153-.153-.229-.153-.076-.076-.076-.076-.153-.076-.076-.076-.153-.076-.229-.153-.076 0-.076-.076-.153-.076-.076-.076-.153-.076-.229-.153-.076 0-.153-.076-.153-.076-.076 0-.153-.076-.306-.076-.076 0-.153 0-.153-.076-.076 0-.229-.076-.306-.076h-1.224c-.077 0-.229 0-.306.076-.076 0-.153 0-.153.076-.076 0-.153.076-.306.076-.076 0-.153.076-.153.076-.076.076-.153.076-.229.153-.076 0-.076.076-.153.076-.076.076-.153.076-.229.153-.076 0-.076.076-.153.076-.076.076-.153.153-.229.153l-.153.153-.229.229c0 .076-.076.076-.076.153H12.003c0-.076-.076-.076-.076-.153l-.229-.229-.153-.153c-.077-.077-.153-.153-.229-.153-.076-.076-.076-.076-.153-.076-.076-.076-.153-.076-.229-.153-.076 0-.076-.076-.153-.076-.076-.076-.153-.076-.229-.153-.076 0-.153-.076-.153-.076-.076 0-.153-.076-.306-.076-.076 0-.153 0-.153-.076-.076 0-.229-.076-.306-.076H8.41c-.077 0-.229 0-.306.076-.076 0-.153 0-.153.076-.076 0-.153.076-.229.076s-.153.076-.229.076c-.076 0-.153.076-.229.076s-.153.076-.229.076c-.076.076-.153.076-.229.153s-.153.076-.153.153-.076.076-.153.153-.153.076-.153.153c-.229.076-.229.153-.306.229s-.076.153-.153.153H1.531v-3.058h29.813c.459 0 .764-.306.764-.764V10.32h6.498l1.3 1.529H37.46c-.459 0-.764.306-.764.764v4.204c0 .459.306.764.764.764h6.88v8.027z"
      /><path
        fill="var(--color1, #4e9dd3)"
        d="M26.144 6.192C25.456 2.599 22.322 0 18.576 0h-5.963C8.944 0 5.809 2.599 5.045 6.192c-.917.306-1.605 1.147-1.605 2.14 0 .612.229 1.147.612 1.529a2.135 2.135 0 00-.612 1.529c0 .994.688 1.911 1.605 2.14.688 3.593 3.822 6.192 7.568 6.192h5.963c3.669 0 6.804-2.599 7.568-6.192.917-.306 1.605-1.147 1.605-2.14a2.13 2.13 0 00-.612-1.529c.382-.382.612-.917.612-1.529.076-.994-.612-1.835-1.605-2.14zM12.613 1.529h5.963c2.828 0 5.198 1.911 5.963 4.587h-.306l-.153-.153c-.306-.459-.841-.612-1.376-.612h-.459c-.535 0-1.07.229-1.452.612a.584.584 0 01-.382.153h-.459a.58.58 0 01-.382-.153c-.382-.459-.917-.612-1.452-.612h-.459c-.535 0-1.07.229-1.452.612a.584.584 0 01-.382.153h-.459a.58.58 0 01-.382-.153c-.306-.459-.841-.612-1.376-.612h-.459c-.535 0-1.07.229-1.452.612a.584.584 0 01-.382.153h-.459a.58.58 0 01-.382-.153c-.382-.459-.917-.612-1.452-.612h-.459c-.535 0-1.07.229-1.452.612l-.153.076h-.229c.688-2.599 3.134-4.51 5.886-4.51zm-6.88 6.039h1.835l.612-.612c.153-.076.229-.153.382-.153h.459a.58.58 0 01.382.153c.382.382.917.612 1.452.612h.459c.535 0 1.07-.229 1.452-.612a.584.584 0 01.382-.153h.459a.58.58 0 01.382.153c.382.382.917.612 1.452.612h.459c.535 0 1.07-.229 1.452-.612.076-.076.229-.153.306-.153h.459a.58.58 0 01.382.153c.382.382.917.612 1.452.612h.459c.535 0 1.07-.229 1.452-.612a.584.584 0 01.382-.153h.459a.58.58 0 01.382.153l.612.612h1.835c.382 0 .764.306.764.764s-.306.764-.764.764H5.733c-.382 0-.764-.306-.764-.764s.382-.764.764-.764zm12.919 10.626h-5.963c-2.828 0-5.198-1.911-5.963-4.587h17.888c-.764 2.752-3.134 4.587-5.963 4.587zm6.88-6.039H5.733c-.382 0-.764-.306-.764-.764s.306-.764.764-.764h19.723c.382 0 .764.306.764.764s-.306.764-.688.764z"
      /></symbol><symbol id="heart-macaroon" viewBox="0 0 36 32"><path
        fill="var(--color1, #4e9dd3)"
        d="M26.298 12.633a6.088 6.088 0 00-5.98-4.998h-4.757c-2.922 0-5.436 2.152-5.98 4.998a1.785 1.785 0 00-1.291 1.735c0 .486.204.902.476 1.249-.272.347-.476.764-.476 1.25 0 .833.544 1.527 1.291 1.735a6.088 6.088 0 005.98 4.998h4.757c2.922 0 5.436-2.152 5.98-4.998a1.785 1.785 0 001.291-1.735c0-.486-.204-.902-.476-1.25.272-.347.476-.764.476-1.249 0-.833-.544-1.527-1.291-1.735zM15.561 8.816h4.757c2.242 0 4.145 1.527 4.757 3.679h-.204l-.136-.139a1.574 1.574 0 00-1.155-.486h-.34c-.408 0-.815.139-1.155.486a.515.515 0 01-.272.139h-.34c-.136 0-.204-.069-.272-.139a1.574 1.574 0 00-1.155-.486h-.34c-.408 0-.815.139-1.155.486a.515.515 0 01-.272.139h-.34c-.136 0-.204-.069-.272-.139a1.576 1.576 0 00-1.155-.486h-.34c-.408 0-.815.139-1.155.486a.515.515 0 01-.272.139h-.34c-.136 0-.204-.069-.272-.139a1.574 1.574 0 00-1.155-.486h-.34c-.408 0-.815.139-1.155.486l-.136.139h-.476c.544-2.082 2.446-3.679 4.689-3.679zm-5.436 4.928h1.427l.476-.486c.068-.069.204-.069.34-.069h.34c.136 0 .204.069.272.139.34.347.748.486 1.155.486h.34c.408 0 .815-.139 1.155-.486a.515.515 0 01.272-.139h.408c.136 0 .204.069.272.139.34.347.747.486 1.155.486h.34c.408 0 .815-.139 1.155-.486a.515.515 0 01.272-.139h.34c.136 0 .204.069.272.139.34.347.747.486 1.155.486h.476c.408 0 .815-.139 1.155-.486.068-.139.204-.139.272-.139h.34c.136 0 .204.069.272.139l.476.486h1.563c.34 0 .611.278.611.625s-.272.625-.611.625H10.128c-.34 0-.612-.278-.612-.625s.272-.694.612-.694zm10.193 8.677h-4.757c-2.242 0-4.145-1.527-4.757-3.679h14.202c-.544 2.082-2.446 3.679-4.689 3.679zm5.504-4.929H10.125c-.34 0-.612-.278-.612-.625s.272-.625.612-.625h15.697c.34 0 .611.278.611.625s-.34.625-.611.625z"
      /><path
        fill="var(--color1, #4e9dd3)"
        d="M8.289 1.388c4.349 0 8.494 4.165 8.698 4.373.272.278.612.347.883.347s.612-.139.883-.347c.068 0 2.106-2.082 4.893-3.332 1.427-.625 2.718-.972 3.941-.972 1.767 0 3.33.694 4.689 2.082 1.699 1.666 2.378 3.679 2.174 5.97-.748 8.469-13.455 18.464-16.58 20.824-1.359-1.041-4.485-3.471-7.679-6.594C4.823 18.255 1.765 13.396 1.357 9.44c-.136-2.291.544-4.234 2.174-5.97 1.495-1.527 3.194-2.082 4.757-2.082zm0-1.388C6.115 0 4.212.833 2.581 2.499.61 4.581-.205 6.872-.001 9.579c.408 4.304 3.534 9.371 9.309 15.063 3.33 3.263 6.591 5.831 7.815 6.733l.815.625.815-.625c3.805-2.846 16.309-12.842 17.124-21.796.272-2.777-.612-5.137-2.582-7.08C31.664.833 29.762 0 27.587 0c-1.427 0-2.922.347-4.485 1.111a18.551 18.551 0 00-4.825 3.262h-.068l-.34.347C17.257 4.026 12.976 0 8.288 0z"
      /></symbol><symbol id="nut" viewBox="0 0 24 32"><path
        fill="var(--color1, #4e9dd3)"
        d="M18.369 6.115a.752.752 0 00-1.292 0 62.26 62.26 0 00-3.048 5.926A72.813 72.813 0 008.505.364L8.504.362a.73.73 0 00-.138-.164.748.748 0 00-.135-.102L8.229.095a.731.731 0 00-.156-.064L8.032.02a.676.676 0 00-.346 0l-.041.011a.72.72 0 00-.155.063l-.003.001a.748.748 0 00-.166.131.73.73 0 00-.107.135l-.001.002C6.919.854 0 12.478 0 20.123c0 8.755 4.06 11.875 7.859 11.875 1.002 0 1.99-.224 2.894-.655s1.698-1.059 2.325-1.837a5.568 5.568 0 004.645 2.493c3.152 0 6.52-2.568 6.52-9.777 0-6.243-5.634-15.707-5.874-16.107zM7.859 30.499c-.357-.113-1.641-2.165-1.641-10.374 0-4.659.943-11.072 1.641-15.185.699 4.112 1.642 10.524 1.642 15.185 0 8.21-1.284 10.261-1.642 10.374zM1.505 20.125c0-4.531 2.721-10.793 4.771-14.868-.695 4.153-1.562 10.262-1.562 14.868 0 3.609.243 7.678 1.174 9.993-2.747-1.136-4.382-4.75-4.382-9.993zm8.326 9.993c.931-2.315 1.174-6.384 1.174-9.993 0-4.606-.868-10.714-1.562-14.867a58.986 58.986 0 013.768 9.141v.002c.307 1.011.556 2.038.745 3.077l.009.051c.037.211.069.418.097.621.004.029.009.057.012.086.026.19.047.376.065.559l.012.107c.016.176.028.347.038.516l.008.113c.01.202.015.4.015.593 0 .198-.002.393-.007.586-.07 2.897-.662 5.316-1.723 7.021-.009.017-.016.034-.023.051a5.718 5.718 0 01-2.629 2.335zm7.892.382c-1.556 0-2.836-.804-3.723-2.33.917-1.631 1.541-3.846 1.684-6.751l.009-.198c.015-.356.025-.719.025-1.095 0-.221-.007-.448-.019-.681-.005-.105-.015-.212-.022-.318-.009-.124-.017-.247-.029-.374-.014-.146-.032-.294-.049-.441-.01-.086-.02-.172-.032-.26a22.2 22.2 0 00-.083-.55l-.025-.158a25.076 25.076 0 00-.124-.669l-.01-.049a29.685 29.685 0 00-.596-2.405 61.704 61.704 0 012.992-6.201c1.485 2.691 5.015 9.573 5.015 14.202 0 5.106-1.922 8.277-5.015 8.277z"
      /></symbol><symbol id="action" viewBox="0 0 15 15"><path
        fill="var(--color1, #e7426a)"
        d="M15 7.5a7.5 7.5 0 11-15 0 7.5 7.5 0 0115 0z"
      /><path
        fill="var(--color2, #fff)"
        d="M6.949 6.931c-.281.288-.644.431-1.088.431s-.806-.144-1.088-.431c-.275-.294-.413-.659-.413-1.097 0-.444.141-.813.422-1.106.281-.3.641-.45 1.078-.45.444 0 .806.15 1.088.45.288.294.431.663.431 1.106 0 .438-.144.803-.431 1.097zm-1.171 3.694h-.506l3.994-6.253h.516l-4.003 6.253zm4.434-.319c-.281.288-.644.431-1.088.431s-.806-.144-1.088-.431c-.275-.294-.412-.659-.412-1.097 0-.444.141-.813.422-1.106.281-.3.641-.45 1.078-.45.444 0 .806.15 1.088.45.281.294.422.663.422 1.106 0 .438-.141.803-.422 1.097zM5.187 6.594c.175.2.4.3.675.3s.503-.1.684-.3a1.11 1.11 0 00.272-.759c0-.312-.091-.569-.272-.769a.855.855 0 00-.684-.309c-.275 0-.5.103-.675.309-.175.2-.263.456-.263.769 0 .3.087.553.263.759zM8.44 9.969c.181.2.409.3.684.3s.503-.1.684-.3a1.11 1.11 0 00.272-.759c0-.312-.091-.569-.272-.769-.175-.206-.403-.309-.684-.309s-.509.103-.684.309c-.175.2-.262.456-.262.769 0 .3.087.553.262.759z"
      /></symbol><symbol id="cart" viewBox="0 0 15 15"><path
        stroke-linejoin="round"
        stroke-linecap="round"
        stroke-miterlimit="10"
        stroke-width=".682"
        d="M12.273 3.821H2.728v10.506h9.545V3.821z"
      /><path
        stroke-linejoin="round"
        stroke-linecap="round"
        stroke-miterlimit="10"
        stroke-width=".682"
        d="M4.969 5.102V2.411c0-.961.705-1.73 1.538-1.73h1.986c.833 0 1.538.769 1.538 1.73v2.691"
      /></symbol><symbol id="facebook" viewBox="0 0 15 15"><path
        d="M10.461 7.775H8.554v6.988h-2.89V7.775H4.29V5.319h1.374V3.73c0-1.136.54-2.916 2.916-2.916l2.141.009v2.384H9.168c-.255 0-.613.127-.613.669v1.445h2.16l-.252 2.454z"
      /></symbol><symbol id="instagram" viewBox="0 0 15 15"><path
        d="M10.571.123H4.105A3.987 3.987 0 00.123 4.105v6.466a3.986 3.986 0 003.982 3.982h6.466a3.986 3.986 0 003.982-3.982V4.105A3.986 3.986 0 0010.571.123zm2.702 10.448a2.705 2.705 0 01-2.702 2.702H4.105a2.705 2.705 0 01-2.702-2.702V4.105a2.705 2.705 0 012.702-2.702h6.466a2.705 2.705 0 012.702 2.702v6.466z"
      /><path
        d="M7.339 3.62c-2.05 0-3.719 1.668-3.719 3.719s1.668 3.718 3.719 3.718c2.05 0 3.718-1.668 3.718-3.718S9.389 3.62 7.339 3.62zm0 6.156c-1.344 0-2.438-1.094-2.438-2.438S5.995 4.9 7.339 4.9s2.438 1.094 2.438 2.438a2.441 2.441 0 01-2.438 2.438zM11.213 2.534a.941.941 0 00-.939.939.945.945 0 00.939.939c.248 0 .489-.101.664-.275s.275-.417.275-.664a.942.942 0 00-.939-.939z"
      /></symbol><symbol id="phone" viewBox="0 0 15 15"><path
        fill="none"
        stroke="var(--color3, #000)"
        stroke-linejoin="round"
        stroke-linecap="round"
        stroke-miterlimit="10"
        stroke-width=".75"
        d="M10.262 14.237H4.738a1.362 1.362 0 01-1.363-1.363V2.113c0-.717.574-1.363 1.363-1.363h5.524c.717 0 1.363.574 1.363 1.363v10.761c0 .717-.646 1.363-1.363 1.363zM4.666 11.511h5.667"
      /><path
        d="M7.392 13.376a.502.502 0 100-1.005.502.502 0 000 1.005z"
      /></symbol><symbol id="vk" viewBox="0 0 15 15"><path
        d="M7.361 11.871h.888s.268-.029.405-.177c.126-.136.122-.39.122-.39s-.017-1.192.536-1.368c.545-.173 1.246 1.152 1.988 1.661.561.386.988.301.988.301l1.985-.028s1.038-.064.546-.88c-.04-.067-.287-.604-1.476-1.708-1.244-1.155-1.078-.968.421-2.966.913-1.217 1.278-1.96 1.164-2.278-.109-.303-.78-.223-.78-.223l-2.235.014s-.166-.023-.289.051c-.12.072-.197.24-.197.24s-.354.942-.825 1.742c-.995 1.69-1.393 1.779-1.556 1.674-.378-.245-.284-.982-.284-1.507 0-1.637.248-2.32-.484-2.497-.243-.059-.422-.097-1.043-.104-.797-.008-1.472.002-1.854.19-.254.124-.45.402-.331.418.148.02.482.09.66.332.229.312.221 1.011.221 1.011s.132 1.928-.307 2.167c-.301.164-.714-.171-1.602-1.704-.455-.785-.798-1.653-.798-1.653s-.066-.162-.184-.249a.93.93 0 00-.343-.139l-2.124.014s-.319.009-.436.147c-.104.123-.008.378-.008.378s1.663 3.89 3.545 5.85C5.4 11.987 7.36 11.869 7.36 11.869z"
      /></symbol><symbol id="close" viewBox="0 0 15 15"><path
        d="M15 1.511L13.489 0 7.5 5.989 1.511 0 0 1.511 5.989 7.5 0 13.489 1.511 15 7.5 9.011 13.489 15 15 13.489 9.011 7.5 15 1.511z"
      /></symbol>
      
      <symbol id="cake" viewBox="0 0 24 32"><path
        fill="var(--color1, #e58383)"
        d="M1.167 30.302l.458 1.316c.083.255.375.382.875.382h19c.5 0 .792-.127.875-.382l.458-1.316c.625 0 1.167-.552 1.167-1.188v-.594c0-.637-.542-1.188-1.167-1.188h-.583v-12.35c0-.255-.167-.424-.417-.424h-1V6.325c0-.255-.167-.424-.417-.424h-2.958V.426c0-.255-.167-.424-.417-.424H6.958c-.25 0-.417.17-.417.424v5.475H3.583c-.25 0-.417.17-.417.424v8.276h-1c-.25 0-.417.17-.417.424v12.35h-.583c-.625 0-1.167.552-1.167 1.188v.552c.042.637.542 1.188 1.167 1.188zm20.375.849H2.333l-.292-.849h19.917l-.292.849h-.125zm-3.625-9.209c-.25 0-.417.17-.417.424 0 .891-.708 1.57-1.542 1.57-.875 0-1.542-.721-1.542-1.57 0-.255-.167-.424-.417-.424s-.417.17-.417.424c0 .891-.708 1.57-1.542 1.57s-1.542-.721-1.542-1.57c0-.255-.167-.424-.417-.424s-.417.17-.417.424c0 .891-.708 1.57-1.542 1.57-.875 0-1.542-.721-1.542-1.57 0-.255-.167-.424-.417-.424s-.417.17-.417.424c0 .891-.708 1.57-1.542 1.57-.875 0-1.542-.721-1.542-1.57v-2.292c.417.382.958.594 1.542.594a2.32 2.32 0 001.958-1.061 2.378 2.378 0 001.958 1.061 2.32 2.32 0 001.958-1.061c.417.637 1.167 1.061 1.958 1.061s1.542-.424 1.958-1.061a2.378 2.378 0 001.958 1.061 2.32 2.32 0 001.958-1.061 2.378 2.378 0 001.958 1.061c.583 0 1.125-.212 1.542-.594v2.334c0 .891-.708 1.57-1.542 1.57-.875 0-1.542-.721-1.542-1.57 0-.255-.167-.467-.417-.467zM16.667.849v1.782c0 .721-.583 1.273-1.25 1.273s-1.25-.594-1.25-1.273c0-.255-.167-.424-.417-.424s-.417.17-.417.424c0 .721-.583 1.273-1.25 1.273-.708 0-1.25-.594-1.25-1.273 0-.255-.167-.424-.417-.424s-.417.17-.417.424c0 .721-.583 1.273-1.25 1.273s-1.25-.594-1.25-1.273V.849h9.167zm-9.292 3.48c.333.297.792.467 1.25.467.708 0 1.292-.34 1.667-.891.375.509 1 .891 1.667.891.708 0 1.292-.34 1.667-.891.375.509 1 .891 1.667.891.458 0 .917-.17 1.25-.424v1.57H7.376V4.329zM20 6.748v3.183c0 .721-.583 1.273-1.25 1.273s-1.25-.594-1.25-1.273c0-.255-.167-.424-.417-.424s-.417.17-.417.424c0 .721-.583 1.273-1.25 1.273s-1.25-.594-1.25-1.273c0-.255-.167-.424-.417-.424s-.417.17-.417.424c0 .721-.583 1.273-1.25 1.273-.708 0-1.25-.594-1.25-1.273 0-.255-.167-.424-.417-.424s-.417.17-.417.424c0 .721-.583 1.273-1.25 1.273s-1.25-.594-1.25-1.273c0-.255-.167-.424-.417-.424s-.417.17-.417.424c0 .721-.583 1.273-1.25 1.273s-1.25-.594-1.25-1.273V6.79h15.833v-.042zM4.042 11.586c.333.297.792.467 1.25.467a1.97 1.97 0 001.667-.891c.375.509 1 .891 1.667.891a1.97 1.97 0 001.667-.891c.375.509 1 .891 1.667.891a1.97 1.97 0 001.667-.891c.375.509 1 .891 1.667.891s1.292-.339 1.667-.891c.375.509 1 .891 1.667.891.458 0 .917-.17 1.25-.424V14.6H4.045v-3.013zm17.416 3.82v2.801c0 .891-.708 1.57-1.542 1.57-.875 0-1.542-.721-1.542-1.57 0-.255-.167-.424-.417-.424s-.417.17-.417.424c0 .891-.708 1.57-1.542 1.57-.875 0-1.542-.721-1.542-1.57 0-.255-.167-.424-.417-.424s-.417.17-.417.424c0 .891-.708 1.57-1.542 1.57s-1.542-.721-1.542-1.57c0-.255-.167-.424-.417-.424s-.417.17-.417.424c0 .891-.708 1.57-1.542 1.57-.875 0-1.542-.721-1.542-1.57 0-.255-.167-.424-.417-.424s-.417.17-.417.424c0 .891-.708 1.57-1.542 1.57-.875 0-1.542-.721-1.542-1.57v-2.759h18.75v-.042zM2.583 24.191c.417.382.958.594 1.542.594a2.32 2.32 0 001.958-1.061 2.378 2.378 0 001.958 1.061 2.32 2.32 0 001.958-1.061c.417.637 1.167 1.061 1.958 1.061s1.542-.424 1.958-1.061a2.378 2.378 0 001.958 1.061 2.32 2.32 0 001.958-1.061 2.378 2.378 0 001.958 1.061c.583 0 1.125-.212 1.542-.594v3.141H2.581v-3.141zM.875 28.562c0-.17.167-.34.333-.34h21.667c.167 0 .333.17.333.34v.552c0 .17-.167.34-.333.34H1.208c-.167 0-.333-.17-.333-.34v-.552z"
      /></symbol><symbol id="macarons-pyramid" viewBox="0 0 40 32"><path
        fill="var(--color2, #e67285)"
        d="M25.13 3.639C24.786 1.862 23.182.51 21.349.51h-3.017c-1.833 0-3.437 1.352-3.781 3.129-.496.155-.84.579-.84 1.12 0 .309.115.579.306.772a1.085 1.085 0 00-.306.772c0 .541.344.966.802 1.12a3.86 3.86 0 003.781 3.129h3.017c1.833 0 3.437-1.352 3.781-3.129a1.17 1.17 0 00.802-1.12c0-.309-.115-.579-.306-.772.191-.193.306-.463.306-.772.038-.541-.306-.966-.764-1.12zm-6.798-2.356h3.017c1.413 0 2.635.966 2.979 2.318h-.153l-.076-.077a.973.973 0 00-.726-.309h-.229a1.04 1.04 0 00-.726.309.289.289 0 01-.191.077h-.229a.294.294 0 01-.191-.077.973.973 0 00-.726-.309h-.229a1.04 1.04 0 00-.726.309.289.289 0 01-.191.077h-.229a.294.294 0 01-.191-.077.973.973 0 00-.726-.309h-.229a1.04 1.04 0 00-.726.309.289.289 0 01-.191.077h-.229a.294.294 0 01-.191-.077.973.973 0 00-.726-.309h-.229a1.04 1.04 0 00-.726.309l-.076.077h-.153c.382-1.352 1.604-2.318 3.017-2.318zm-3.475 3.09h.917l.306-.309a.627.627 0 01.191-.077h.229c.076 0 .153.039.191.077.191.193.458.309.726.309h.229c.267 0 .535-.116.726-.309a.627.627 0 01.191-.077h.229c.076 0 .153.039.191.077.191.193.458.309.726.309h.229c.267 0 .535-.116.726-.309a.627.627 0 01.191-.077h.229c.076 0 .153.039.191.077.191.193.458.309.726.309h.229c.267 0 .535-.116.726-.309a.627.627 0 01.191-.077h.229c.076 0 .153.039.191.077l.306.309h.917c.229 0 .382.154.382.386s-.153.386-.382.386h-9.93c-.229 0-.382-.154-.382-.386s.191-.386.382-.386zm6.492 5.408h-3.017a3.079 3.079 0 01-2.979-2.318h9.013c-.382 1.352-1.604 2.318-3.017 2.318zm3.437-3.09h-9.93c-.229 0-.382-.154-.382-.386s.153-.386.382-.386h9.93c.229 0 .382.154.382.386s-.153.386-.382.386zM11.725 24.729A3.86 3.86 0 007.944 21.6H4.927c-1.833 0-3.437 1.352-3.781 3.129-.496.154-.84.579-.84 1.12 0 .309.115.579.306.773a1.084 1.084 0 00-.306.773c0 .541.344.966.802 1.12a3.86 3.86 0 003.781 3.129h3.017c1.833 0 3.437-1.352 3.781-3.129a1.17 1.17 0 00.802-1.12c0-.309-.115-.579-.306-.773.191-.193.306-.463.306-.773.038-.541-.306-.966-.764-1.12zm-6.798-2.356h3.017c1.413 0 2.635.966 2.979 2.318h-.153l-.076-.077a1.038 1.038 0 00-.726-.309h-.229a1.04 1.04 0 00-.726.309.289.289 0 01-.191.077h-.229a.294.294 0 01-.191-.077 1.038 1.038 0 00-.726-.309h-.229a1.04 1.04 0 00-.726.309.289.289 0 01-.191.077h-.229a.294.294 0 01-.191-.077 1.038 1.038 0 00-.726-.309h-.229a1.04 1.04 0 00-.726.309.289.289 0 01-.191.077h-.229a.294.294 0 01-.191-.077 1.038 1.038 0 00-.726-.309h-.229a1.04 1.04 0 00-.726.309l-.076.077h-.153c.382-1.352 1.604-2.318 3.017-2.318zm-3.475 3.09h.917l.306-.309a.289.289 0 01.191-.077h.229c.076 0 .153.039.191.077.191.193.458.309.726.309h.229c.267 0 .535-.116.726-.309a.289.289 0 01.191-.077h.229c.076 0 .153.039.191.077.191.193.458.309.726.309h.229c.267 0 .535-.116.726-.309a.289.289 0 01.191-.077h.229c.076 0 .153.039.191.077.191.193.458.309.726.309h.229c.267 0 .535-.116.726-.309a.289.289 0 01.191-.077h.229c.076 0 .153.039.191.077l.306.309h.917c.229 0 .382.154.382.386s-.153.386-.382.386h-9.93c-.229 0-.382-.155-.382-.386s.153-.386.382-.386zm6.454 5.407H4.889a3.079 3.079 0 01-2.979-2.318h9.013c-.382 1.352-1.604 2.318-3.017 2.318zm3.476-3.09h-9.93c-.229 0-.382-.154-.382-.386s.153-.386.382-.386h9.93c.229 0 .382.154.382.386a.385.385 0 01-.382.386zM25.245 24.729a3.86 3.86 0 00-3.781-3.129h-3.017c-1.833 0-3.437 1.352-3.781 3.129a1.17 1.17 0 00-.802 1.12c0 .309.115.579.306.773a1.084 1.084 0 00-.306.773c0 .541.344.966.802 1.12a3.86 3.86 0 003.781 3.129h3.017c1.833 0 3.437-1.352 3.781-3.129a1.17 1.17 0 00.802-1.12c0-.309-.115-.579-.306-.773.191-.193.306-.463.306-.773a1.17 1.17 0 00-.802-1.12zm-6.798-2.356h3.017c1.413 0 2.635.966 2.979 2.318h-.153l-.076-.077a1.038 1.038 0 00-.726-.309h-.229a1.04 1.04 0 00-.726.309.289.289 0 01-.191.077h-.229a.294.294 0 01-.191-.077 1.038 1.038 0 00-.726-.309h-.229a1.04 1.04 0 00-.726.309.289.289 0 01-.191.077h-.229a.294.294 0 01-.191-.077 1.038 1.038 0 00-.726-.309h-.229a1.04 1.04 0 00-.726.309.289.289 0 01-.191.077h-.229a.294.294 0 01-.191-.077 1.038 1.038 0 00-.726-.309h-.229a1.04 1.04 0 00-.726.309l-.076.077h-.153c.382-1.352 1.604-2.318 3.017-2.318zm-3.476 3.09h.917l.306-.309a.289.289 0 01.191-.077h.229c.076 0 .153.039.191.077.191.193.458.309.726.309h.229c.267 0 .535-.116.726-.309a.289.289 0 01.191-.077h.229c.076 0 .153.039.191.077.191.193.458.309.726.309h.229c.267 0 .535-.116.726-.309a.289.289 0 01.191-.077h.229c.076 0 .153.039.191.077.191.193.458.309.726.309h.229c.267 0 .535-.116.726-.309a.289.289 0 01.191-.077h.229c.076 0 .153.039.191.077l.306.309h.917c.229 0 .382.154.382.386s-.153.386-.382.386h-9.93c-.229 0-.382-.155-.382-.386s.191-.386.382-.386zm6.493 5.407h-3.017a3.079 3.079 0 01-2.979-2.318h9.013c-.382 1.352-1.604 2.318-3.017 2.318zm3.437-3.09h-9.93c-.229 0-.382-.154-.382-.386s.153-.386.382-.386h9.93c.229 0 .382.154.382.386a.385.385 0 01-.382.386zM38.764 24.729a3.86 3.86 0 00-3.781-3.129h-3.017c-1.833 0-3.437 1.352-3.781 3.129a1.17 1.17 0 00-.802 1.12c0 .309.115.579.306.773a1.084 1.084 0 00-.306.773c0 .541.344.966.802 1.12a3.86 3.86 0 003.781 3.129h3.017c1.833 0 3.437-1.352 3.781-3.129a1.17 1.17 0 00.802-1.12c0-.309-.115-.579-.306-.773.191-.193.306-.463.306-.773.038-.541-.306-.966-.802-1.12zm-6.798-2.356h3.017c1.413 0 2.635.966 2.979 2.318h-.153l-.076-.077a1.038 1.038 0 00-.726-.309h-.229a1.04 1.04 0 00-.726.309.289.289 0 01-.191.077h-.229a.294.294 0 01-.191-.077 1.038 1.038 0 00-.726-.309h-.229a1.04 1.04 0 00-.726.309.289.289 0 01-.191.077h-.229a.294.294 0 01-.191-.077 1.038 1.038 0 00-.726-.309h-.229a1.04 1.04 0 00-.726.309.289.289 0 01-.191.077h-.229a.294.294 0 01-.191-.077 1.038 1.038 0 00-.726-.309h-.229a1.04 1.04 0 00-.726.309l-.076.077h-.153c.382-1.352 1.604-2.318 3.017-2.318zm-3.437 3.09h.917l.306-.309a.289.289 0 01.191-.077h.229c.076 0 .153.039.191.077.191.193.458.309.726.309h.229c.267 0 .535-.116.726-.309a.289.289 0 01.191-.077h.229c.076 0 .153.039.191.077.191.193.458.309.726.309h.229c.267 0 .535-.116.726-.309a.289.289 0 01.191-.077h.229c.076 0 .153.039.191.077.191.193.458.309.726.309h.229c.267 0 .535-.116.726-.309a.289.289 0 01.191-.077h.229c.076 0 .153.039.191.077l.306.309h.917c.229 0 .382.154.382.386s-.153.386-.382.386h-9.93c-.229 0-.382-.155-.382-.386s.153-.386.382-.386zm6.454 5.407h-3.017a3.079 3.079 0 01-2.979-2.318H38c-.382 1.352-1.604 2.318-3.017 2.318zm3.476-3.09h-9.93c-.229 0-.382-.154-.382-.386s.153-.386.382-.386h9.93c.229 0 .382.154.382.386 0 .193-.191.386-.382.386zM18.485 14.184a3.86 3.86 0 00-3.781-3.129h-3.017c-1.833 0-3.437 1.352-3.781 3.129a1.17 1.17 0 00-.802 1.12c0 .309.115.579.306.773a1.084 1.084 0 00-.306.773c0 .541.344.966.802 1.12a3.86 3.86 0 003.781 3.129h3.017c1.833 0 3.437-1.352 3.781-3.129a1.17 1.17 0 00.802-1.12c0-.309-.115-.579-.306-.773.191-.193.306-.464.306-.773 0-.541-.344-1.004-.802-1.12zm-6.798-2.395h3.017c1.413 0 2.635.966 2.979 2.318h-.153l-.076-.077a1.038 1.038 0 00-.726-.309h-.229a1.04 1.04 0 00-.726.309.289.289 0 01-.191.077h-.229a.294.294 0 01-.191-.077 1.038 1.038 0 00-.726-.309h-.229a1.04 1.04 0 00-.726.309.289.289 0 01-.191.077h-.229a.294.294 0 01-.191-.077 1.038 1.038 0 00-.726-.309h-.229a1.04 1.04 0 00-.726.309.289.289 0 01-.191.077h-.229a.294.294 0 01-.191-.077 1.038 1.038 0 00-.726-.309h-.229a1.04 1.04 0 00-.726.309l-.076.077h-.153c.382-1.352 1.604-2.318 3.017-2.318zm-3.475 3.09h.917l.306-.309a.289.289 0 01.191-.077h.229c.076 0 .153.039.191.077.191.193.458.309.726.309h.229c.267 0 .535-.116.726-.309a.289.289 0 01.191-.077h.229c.076 0 .153.039.191.077.191.193.458.309.726.309h.229c.267 0 .535-.116.726-.309a.289.289 0 01.191-.077h.229c.076 0 .153.039.191.077.191.193.458.309.726.309h.229c.267 0 .535-.116.726-.309a.289.289 0 01.191-.077h.229c.076 0 .153.039.191.077l.306.309h.917c.229 0 .382.155.382.386s-.153.386-.382.386h-9.93c-.229 0-.382-.155-.382-.386s.191-.386.382-.386zm6.492 5.408h-3.017a3.079 3.079 0 01-2.979-2.318h9.013c-.42 1.352-1.604 2.318-3.017 2.318zm3.437-3.09h-9.93c-.229 0-.382-.154-.382-.386s.153-.386.382-.386h9.93c.229 0 .382.154.382.386s-.153.386-.382.386zM32.004 14.184a3.86 3.86 0 00-3.781-3.129h-3.017c-1.833 0-3.437 1.352-3.781 3.129a1.17 1.17 0 00-.802 1.12c0 .309.115.579.306.773a1.084 1.084 0 00-.306.773c0 .541.344.966.802 1.12a3.86 3.86 0 003.781 3.129h3.017c1.833 0 3.437-1.352 3.781-3.129a1.17 1.17 0 00.802-1.12c0-.309-.115-.579-.306-.773.191-.193.306-.464.306-.773 0-.541-.344-1.004-.802-1.12zm-6.798-2.395h3.017c1.413 0 2.635.966 2.979 2.318h-.153l-.076-.077a1.038 1.038 0 00-.726-.309h-.229a1.04 1.04 0 00-.726.309.289.289 0 01-.191.077h-.229a.294.294 0 01-.191-.077 1.038 1.038 0 00-.726-.309h-.229a1.04 1.04 0 00-.726.309.289.289 0 01-.191.077h-.229a.294.294 0 01-.191-.077 1.038 1.038 0 00-.726-.309h-.229a1.04 1.04 0 00-.726.309.289.289 0 01-.191.077h-.229a.294.294 0 01-.191-.077 1.038 1.038 0 00-.726-.309h-.229a1.04 1.04 0 00-.726.309l-.076.077h-.153c.382-1.352 1.604-2.318 3.017-2.318zm-3.475 3.09h.917l.306-.309a.289.289 0 01.191-.077h.229c.076 0 .153.039.191.077.191.193.458.309.726.309h.229c.267 0 .535-.116.726-.309a.289.289 0 01.191-.077h.229c.076 0 .153.039.191.077.191.193.458.309.726.309h.229c.267 0 .535-.116.726-.309a.289.289 0 01.191-.077h.229c.076 0 .153.039.191.077.191.193.458.309.726.309h.229c.267 0 .535-.116.726-.309a.289.289 0 01.191-.077h.229c.076 0 .153.039.191.077l.306.309h.917c.229 0 .382.155.382.386s-.153.386-.382.386h-9.93c-.229 0-.382-.155-.382-.386s.191-.386.382-.386zm6.493 5.408h-3.017a3.079 3.079 0 01-2.979-2.318h9.013c-.382 1.352-1.604 2.318-3.017 2.318zm3.437-3.09h-9.93c-.229 0-.382-.154-.382-.386s.153-.386.382-.386h9.93c.229 0 .382.154.382.386s-.153.386-.382.386z"
      /></symbol><symbol id="macarons-square" viewBox="0 0 32 32"><path
        fill="var(--color3, #f4976e)"
        d="M30.7 1.3v29.399H1.301V1.3H30.7zm0-.815H1.301a.818.818 0 00-.816.816V30.7c0 .449.367.816.816.816H30.7a.818.818 0 00.816-.816V1.301A.818.818 0 0030.7.485z"
      /><path
        fill="var(--color3, #f4976e)"
        d="M16.428 9.496a1.14 1.14 0 00-.326-.816c.204-.204.326-.489.326-.816 0-.571-.367-1.019-.856-1.183a4.154 4.154 0 00-4.078-3.303H8.273a4.115 4.115 0 00-4.037 3.303 1.237 1.237 0 00-.856 1.183c0 .326.122.612.326.816a1.138 1.138 0 00-.326.816c0 .571.367 1.019.856 1.182.367 1.916 2.08 3.303 4.037 3.303h3.221c1.957 0 3.67-1.427 4.037-3.303.53-.163.897-.652.897-1.182zM8.273 4.195h3.221a3.28 3.28 0 013.181 2.447h-.163l-.082-.082a1.113 1.113 0 00-.775-.326h-.245c-.285 0-.571.122-.775.326a.31.31 0 01-.204.082h-.245a.31.31 0 01-.204-.082 1.113 1.113 0 00-.775-.326h-.245c-.285 0-.571.122-.775.326a.31.31 0 01-.204.082h-.245a.31.31 0 01-.204-.082 1.113 1.113 0 00-.775-.326h-.245c-.285 0-.571.122-.775.326a.31.31 0 01-.204.082H7.29a.31.31 0 01-.204-.082 1.113 1.113 0 00-.775-.326h-.245c-.285 0-.571.122-.775.326l-.082.082h-.163a3.365 3.365 0 013.221-2.447zm-3.67 3.262h.979l.326-.326a.31.31 0 01.204-.082h.245a.31.31 0 01.204.082c.204.204.489.326.775.326h.245c.285 0 .571-.122.775-.326a.31.31 0 01.204-.082h.245a.31.31 0 01.204.082c.204.204.489.326.775.326h.245c.285 0 .571-.122.775-.326a.31.31 0 01.204-.082h.245a.31.31 0 01.204.082c.204.204.489.326.775.326h.245c.285 0 .571-.122.775-.326a.31.31 0 01.204-.082h.245a.31.31 0 01.204.082l.326.326h.979c.245 0 .408.163.408.408s-.163.408-.408.408H4.608c-.245 0-.408-.163-.408-.408s.163-.408.408-.408zm0 1.632h10.602c.245 0 .408.163.408.408s-.163.408-.408.408H4.603c-.245 0-.408-.163-.408-.408s.163-.408.408-.408zm6.891 4.077H8.273a3.28 3.28 0 01-3.181-2.447h9.623a3.365 3.365 0 01-3.221 2.447zM27.764 21.362c-.367-1.916-2.08-3.303-4.037-3.303h-3.221c-1.957 0-3.67 1.427-4.037 3.303a1.237 1.237 0 00-.856 1.183c0 .326.122.612.326.816a1.138 1.138 0 00-.326.816c0 .571.367 1.019.856 1.183.367 1.916 2.08 3.303 4.037 3.303h3.221c1.957 0 3.67-1.427 4.037-3.303.489-.163.856-.612.856-1.183a1.14 1.14 0 00-.326-.816c.204-.204.326-.489.326-.816.041-.571-.326-1.019-.856-1.183zm-7.258-2.487h3.221a3.277 3.277 0 013.18 2.447h-.163l-.082-.082a1.113 1.113 0 00-.775-.326h-.245c-.285 0-.571.122-.775.326a.31.31 0 01-.204.082h-.245a.31.31 0 01-.204-.082 1.113 1.113 0 00-.775-.326h-.245c-.285 0-.571.122-.775.326a.31.31 0 01-.204.082h-.245a.31.31 0 01-.204-.082 1.113 1.113 0 00-.775-.326h-.245c-.285 0-.571.122-.775.326a.31.31 0 01-.204.082h-.245a.31.31 0 01-.204-.082 1.113 1.113 0 00-.775-.326h-.245c-.285 0-.571.122-.775.326l-.082.082h-.163a3.365 3.365 0 013.221-2.447zm-3.67 3.262h.979l.326-.326a.31.31 0 01.204-.082h.245a.31.31 0 01.204.082c.204.204.489.326.775.326h.245c.285 0 .571-.122.775-.326a.31.31 0 01.204-.082h.245a.31.31 0 01.204.082c.204.204.489.326.775.326h.245c.285 0 .571-.122.775-.326a.31.31 0 01.204-.082h.245a.31.31 0 01.204.082c.204.204.489.326.775.326h.245c.285 0 .571-.122.775-.326a.31.31 0 01.204-.082h.245a.31.31 0 01.204.082l.326.326h.979c.245 0 .408.163.408.408s-.163.408-.408.408H16.841c-.245 0-.408-.163-.408-.408s.163-.408.408-.408zm6.891 5.708h-3.221a3.28 3.28 0 01-3.181-2.447h9.623a3.365 3.365 0 01-3.221 2.447zm3.711-3.262H16.836c-.245 0-.408-.163-.408-.408s.163-.408.408-.408h10.602c.245 0 .408.163.408.408s-.204.408-.408.408zM10.638 16.469a1.237 1.237 0 00-1.183-.856 1.14 1.14 0 00-.816.326 1.138 1.138 0 00-.816-.326c-.571 0-1.019.367-1.182.856-1.917.367-3.303 2.08-3.303 4.037v3.221c0 1.957 1.427 3.67 3.303 4.037.163.489.612.856 1.182.856.326 0 .612-.122.816-.326.204.204.489.326.816.326.571 0 1.019-.367 1.183-.856 1.916-.367 3.303-2.08 3.303-4.037v-3.221c.041-1.957-1.386-3.67-3.303-4.037zm-6.443 7.258v-3.221a3.28 3.28 0 012.447-3.181v.163l-.082.082a1.113 1.113 0 00-.326.775v.245c0 .285.122.571.326.775a.31.31 0 01.082.204v.245a.31.31 0 01-.082.204 1.113 1.113 0 00-.326.775v.245c0 .285.122.571.326.775a.31.31 0 01.082.204v.245a.31.31 0 01-.082.204 1.113 1.113 0 00-.326.775v.245c0 .285.122.571.326.775a.31.31 0 01.082.204v.245a.31.31 0 01-.082.204 1.113 1.113 0 00-.326.775v.245c0 .285.122.571.326.775l.082.082v.163a3.365 3.365 0 01-2.447-3.221zm3.67 4.119c-.245 0-.408-.163-.408-.408v-.979l-.326-.326a.31.31 0 01-.082-.204v-.245a.31.31 0 01.082-.204c.204-.204.326-.489.326-.775v-.245c0-.285-.122-.571-.326-.775a.31.31 0 01-.082-.204v-.245a.31.31 0 01.082-.204c.204-.204.326-.489.326-.775v-.245c0-.285-.122-.571-.326-.775a.31.31 0 01-.082-.204v-.245a.31.31 0 01.082-.204c.204-.204.326-.489.326-.775v-.245c0-.285-.122-.571-.326-.775a.31.31 0 01-.082-.204v-.245a.31.31 0 01.082-.204l.326-.326v-.979c0-.245.163-.408.408-.408s.408.163.408.408v10.602a.439.439 0 01-.408.408zm2.039-.408c0 .245-.163.408-.408.408s-.408-.163-.408-.408V16.836c0-.245.163-.408.408-.408s.408.163.408.408v10.602zm3.262-3.711a3.277 3.277 0 01-2.447 3.18v-9.582a3.28 3.28 0 012.447 3.181v3.221zM25.317 4.236a1.237 1.237 0 00-1.183-.856c-.326 0-.612.122-.815.326a1.138 1.138 0 00-.816-.326c-.571 0-1.019.367-1.183.856-1.916.367-3.303 2.08-3.303 4.037v3.221c0 1.957 1.427 3.67 3.303 4.037.163.489.612.856 1.183.856.326 0 .612-.122.816-.326.204.204.489.326.815.326.571 0 1.019-.367 1.183-.856 1.916-.367 3.303-2.08 3.303-4.037V8.273c.041-1.957-1.386-3.67-3.303-4.037zm-6.442 7.258V8.273a3.28 3.28 0 012.447-3.181v9.623a3.365 3.365 0 01-2.447-3.221zm3.669 4.119c-.245 0-.408-.163-.408-.408V4.603c0-.245.163-.408.408-.408s.408.163.408.408v10.602a.439.439 0 01-.408.408zm2.039-1.387v.979c0 .245-.163.408-.408.408s-.408-.163-.408-.408V4.603c0-.245.163-.408.408-.408s.408.163.408.408v.979l.326.326a.31.31 0 01.082.204v.245a.31.31 0 01-.082.204 1.113 1.113 0 00-.326.775v.245c0 .285.122.571.326.775a.31.31 0 01.082.204v.245a.31.31 0 01-.082.204 1.113 1.113 0 00-.326.775v.245c0 .285.122.571.326.775a.31.31 0 01.082.204v.245a.31.31 0 01-.082.204 1.113 1.113 0 00-.326.775v.245c0 .285.122.571.326.775a.31.31 0 01.082.204v.245a.31.31 0 01-.082.204l-.326.326zm3.262-2.732a3.28 3.28 0 01-2.447 3.181v-.163l.082-.082c.204-.204.326-.489.326-.775v-.245c0-.285-.122-.571-.326-.775a.31.31 0 01-.082-.204v-.245a.31.31 0 01.082-.204c.204-.204.326-.489.326-.775v-.245c0-.285-.122-.571-.326-.775a.31.31 0 01-.082-.204v-.245a.31.31 0 01.082-.204c.204-.204.326-.489.326-.775v-.245c0-.285-.122-.571-.326-.775a.31.31 0 01-.082-.204V7.29a.31.31 0 01.082-.204c.204-.204.326-.489.326-.775v-.245c0-.285-.122-.571-.326-.775l-.082-.082v-.163a3.28 3.28 0 012.447 3.181v3.262z"
      /></symbol><symbol id="paint" viewBox="0 0 32 32"><path
        fill="var(--color4, #9fce9e)"
        d="M24.956 11.639c.283-2.177-.667-4.162-2.538-5.309a11.92 11.92 0 00-9.959-1.158c-3.155 1.044-5.662 3.29-7.061 6.324-2.483 5.392-.562 11.84 4.468 14.998a11.725 11.725 0 001.11.619c1.972.966 4.237.695 5.911-.707 1.759-1.474 2.452-3.779 1.809-6.014v-.001c-.28-.97-.231-1.813.146-2.503.376-.688 1.057-1.184 2.025-1.474 2.225-.667 3.792-2.496 4.088-4.774zm-6.982 5.774c-.499.915-.578 2.04-.228 3.252.533 1.853-.04 3.762-1.494 4.981-1.39 1.165-3.199 1.381-4.84.577a10.95 10.95 0 01-1.018-.567c-4.61-2.895-6.371-8.804-4.096-13.746C7.58 9.128 9.879 7.068 12.77 6.111a10.93 10.93 0 019.128 1.061c1.532.938 2.308 2.561 2.076 4.339-.245 1.886-1.544 3.401-3.39 3.954-1.21.361-2.112 1.035-2.61 1.948z"
      /><path
        fill="var(--color4, #9fce9e)"
        d="M21.073 7.513c-.95-.519-2.145-.167-2.664.783s-.167 2.145.783 2.663a1.963 1.963 0 001.881-3.447zm-1.407 2.578a.974.974 0 11.933-1.71.974.974 0 01-.932 1.71zM13.204 21.932c-.95-.519-2.145-.168-2.664.782s-.167 2.145.783 2.664c.95.519 2.145.167 2.663-.783s.168-2.145-.783-2.663zm-1.407 2.578c-.471-.257-.645-.85-.388-1.321s.85-.645 1.321-.388a.974.974 0 01-.933 1.708zM10.711 13.451c.519-.95.168-2.145-.782-2.664s-2.145-.167-2.664.783c-.519.95-.167 2.145.783 2.663s2.145.168 2.663-.783zm-2.189-.086a.974.974 0 11.932-1.71.974.974 0 01-.931 1.71zM7.764 16.877a1.967 1.967 0 00-1.33 2.437c.148.503.483.919.943 1.17s.991.308 1.494.16.918-.482 1.17-.943.309-.991.16-1.494a1.966 1.966 0 00-2.437-1.33zm.828 2.818a.995.995 0 01-1.208-.66.975.975 0 01.659-1.208.975.975 0 011.128 1.401.966.966 0 01-.58.467zM13.329 6.682a1.967 1.967 0 00-1.33 2.437c.153.519.502.928.944 1.169s.974.314 1.493.161c.503-.148.919-.483 1.17-.943s.308-.991.16-1.494c-.295-1.007-1.431-1.626-2.437-1.33zm.827 2.818a.974.974 0 11-.548-1.87.974.974 0 01.548 1.871zM27.133 18.452l.698-2.414c.459-.17.864-.492 1.117-.954.47-.862.311-3.498.274-4.017-.023-.336-.436-.561-.731-.399-.457.25-2.76 1.542-3.23 2.404a2.08 2.08 0 00-.198 1.455L23.41 16.42c-.014.016-.018.037-.029.054-.015.022-.036.039-.047.063l-4.833 10.387c-.302.665-.036 1.46.605 1.81s1.454.144 1.852-.474l6.119-9.68c.014-.023.017-.049.028-.073.008-.019.024-.034.03-.054zm-7.01 9.274a.412.412 0 01-.724-.39l4.609-9.904 1.95 1.064-5.834 9.23zm4.436-11.12l.987-1.131c.155.173.335.328.55.446s.443.185.673.221l-.417 1.442-1.794-.979zm2.012-1.554a1.113 1.113 0 01-.443-1.508c.194-.356 1.217-1.057 2.146-1.613.035 1.082-.001 2.321-.195 2.677-.294.538-.97.737-1.508.443z"
      /></symbol><symbol id="present" viewBox="0 0 34 32"><path
        fill="var(--color5, #57b6bb)"
        d="M32.756 22.736c-.468-2.454-2.63-4.207-5.142-4.207h-4.09c-2.513 0-4.675 1.811-5.142 4.207-.643.175-1.11.76-1.11 1.461 0 .409.175.76.409 1.052-.234.292-.409.643-.409 1.052 0 .701.467 1.285 1.11 1.461.467 2.454 2.63 4.207 5.142 4.207h4.09c2.513 0 4.675-1.811 5.142-4.207a1.507 1.507 0 001.11-1.461c0-.409-.175-.76-.409-1.052.234-.292.409-.643.409-1.052 0-.643-.468-1.285-1.11-1.461zm-9.232-3.155h4.09c1.928 0 3.564 1.286 4.09 3.097h-.175l-.117-.117a1.369 1.369 0 00-.993-.409h-.292c-.351 0-.701.117-.993.409a.444.444 0 01-.234.117h-.292c-.117 0-.175-.058-.234-.117a1.369 1.369 0 00-.993-.409h-.292c-.351 0-.701.117-.993.409a.444.444 0 01-.234.117h-.292c-.117 0-.175-.058-.234-.117a1.369 1.369 0 00-.993-.409h-.292c-.351 0-.701.117-.993.409a.444.444 0 01-.234.117h-.292c-.117 0-.175-.058-.234-.117a1.369 1.369 0 00-.993-.409h-.292c-.351 0-.701.117-.993.409l-.351.117h-.175a4.14 4.14 0 014.032-3.097zm-4.675 4.149h1.227l.409-.409a.444.444 0 01.234-.117h.292c.117 0 .175.058.234.117.292.292.643.409.993.409h.351c.351 0 .701-.117.993-.409a.444.444 0 01.234-.117h.292c.117 0 .175.058.234.117.292.292.643.409.993.409h.292c.351 0 .701-.117.993-.409a.444.444 0 01.234-.117h.409c.117 0 .175.058.234.117.292.292.643.409.993.409h.292c.351 0 .701-.117.993-.409a.444.444 0 01.234-.117h.292c.117 0 .175.058.234.117l.409.409h1.227c.292 0 .526.234.526.526s-.234.526-.526.526H18.848c-.292 0-.526-.234-.526-.526s.234-.526.526-.526zm8.765 7.246h-4.09c-1.928 0-3.564-1.286-4.09-3.097h12.212a4.14 4.14 0 01-4.032 3.097zm4.674-4.149h-13.44c-.292 0-.526-.234-.526-.526s.234-.526.526-.526h13.498c.292 0 .526.234.526.526-.058.292-.292.526-.584.526z"
      /><path
        fill="var(--color5, #57b6bb)"
        d="M17.797 28.018h-2.104v-15.07h6.837v5.078h.526c.234 0 .409 0 .584.058v-5.078h1.11c.292 0 .584-.292.584-.584V7.221c0-.292-.292-.584-.584-.584h-6.486a3.444 3.444 0 00.877-2.279A3.391 3.391 0 0015.752.969c-1.11 0-2.104.526-2.688 1.344A3.713 3.713 0 009.792.385a3.666 3.666 0 00-3.681 3.681c0 .993.409 1.87 1.052 2.571H.969c-.292 0-.584.292-.584.584v5.084c0 .292.292.584.584.584h1.11v15.655c0 .292.292.584.584.584h15.543a6.274 6.274 0 01-.409-1.11zm6.428-20.213v3.973h-8.531V7.805h8.531zM13.473 4.416c0-1.286.993-2.279 2.279-2.279s2.279.993 2.279 2.279-.993 2.279-2.279 2.279h-2.279V4.416zm-3.74-2.863a2.556 2.556 0 012.571 2.571v2.571H9.733a2.556 2.556 0 01-2.571-2.571c.058-1.402 1.169-2.571 2.571-2.571zm.293 26.465H3.248v-15.07h6.837v15.07h-.058zm0-16.239H1.495V7.806h8.531v3.973zm4.557 16.239h-3.389v-15.07h3.389v15.07zm0-16.239h-3.389V7.806h3.389v3.973z"
      /></symbol><symbol id="table" viewBox="0 0 31 32"><path
        fill="var(--color6, #8a8cdc)"
        d="M31.399 15.924v-4.032h-6.602c.151-.151.302-.302.403-.504h.907c1.26 0 2.268-1.008 2.268-2.268s-1.008-2.268-2.268-2.268h-7.308v2.52c0 1.008.403 1.865 1.058 2.52h-5.594v4.032h1.008v-1.008h.706l1.008 2.016h.806v12.6c0 .554-.454 1.008-1.008 1.008s-1.008-.454-1.008-1.008h-1.008c0 1.109.907 2.016 2.016 2.016s2.016-.907 2.016-2.016v-7.056h8.064v7.056c0 1.109.907 2.016 2.016 2.016s2.016-.907 2.016-2.016h-1.008c0 .554-.454 1.008-1.008 1.008s-1.008-.454-1.008-1.008v-12.6h.806l1.008-2.016h.706v1.008h1.008zM26.107 7.86c.706 0 1.26.554 1.26 1.26s-.554 1.26-1.26 1.26h-.403c.101-.302.151-.655.151-1.008V7.86h.252zm-6.3 1.512V7.86h5.04v1.512c0 1.411-1.109 2.52-2.52 2.52s-2.52-1.109-2.52-2.52zm-1.008 12.097v-1.008h8.064v1.008h-8.064zm8.064-2.016h-8.064v-2.52h8.064v2.52zm1.209-3.529H17.589l-.504-1.008h11.491l-.504 1.008zm-12.801-2.016V12.9h15.12v1.008h-15.12zM12.246 30.037c0 .302-.202.504-.504.504s-.504-.202-.504-.504v-8.064h.504c.554 0 1.008-.454 1.008-1.008v-1.008c0-.554-.454-1.008-1.008-1.008H3.678L3.174 8.365c0-.857-.655-1.512-1.512-1.512S.15 7.508.15 8.365v.504h1.008v-.504c0-.302.202-.504.504-.504s.504.202.504.504l.504 11.088v2.52h1.008v8.064c0 .302-.202.504-.504.504s-.504-.202-.504-.504v-.504H1.662v.504c0 .857.655 1.512 1.512 1.512s1.512-.655 1.512-1.512v-8.064h5.544v8.064c0 .857.655 1.512 1.512 1.512s1.512-.655 1.512-1.512v-.504h-1.008v.504zm-8.568-10.08h8.064v1.008H3.678v-1.008zM20.311 3.123c-.302.302-.504.756-.504 1.21s.202.907.504 1.21l.655.655.706-.706-.655-.655c-.151-.151-.202-.302-.202-.504s.05-.353.202-.504l.302-.302c.302-.302.504-.756.504-1.21s-.202-.907-.504-1.21l-.655-.655-.706.706.655.655c.151.151.202.302.202.504s-.05.353-.202.504l-.302.302zM23.335 3.123c-.302.302-.504.756-.504 1.21s.202.907.504 1.21l.655.655.706-.706-.655-.655c-.151-.151-.202-.302-.202-.504s.05-.353.202-.504l.302-.302c.302-.302.504-.756.504-1.21s-.202-.907-.504-1.21l-.655-.655-.706.706.655.655c.151.151.202.302.202.504s-.05.353-.202.504l-.302.302z"
      /></symbol>
      
      </defs></svg>
