<svg
  aria-hidden="true"
  style="position:absolute;width:0;height:0"
  xmlns="http://www.w3.org/2000/svg"
  overflow="hidden"
><defs><symbol id="action" viewBox="0 0 15 15"><path
        fill="var(--color1, #e7426a)"
        d="M15 7.5a7.5 7.5 0 11-15 0 7.5 7.5 0 0115 0z"
      /><path
        fill="var(--color2, #fff)"
        d="M6.949 6.931c-.281.288-.644.431-1.088.431s-.806-.144-1.088-.431c-.275-.294-.413-.659-.413-1.097 0-.444.141-.813.422-1.106.281-.3.641-.45 1.078-.45.444 0 .806.15 1.088.45.288.294.431.663.431 1.106 0 .438-.144.803-.431 1.097zm-1.171 3.694h-.506l3.994-6.253h.516l-4.003 6.253zm4.434-.319c-.281.288-.644.431-1.088.431s-.806-.144-1.088-.431c-.275-.294-.412-.659-.412-1.097 0-.444.141-.813.422-1.106.281-.3.641-.45 1.078-.45.444 0 .806.15 1.088.45.281.294.422.663.422 1.106 0 .438-.141.803-.422 1.097zM5.187 6.594c.175.2.4.3.675.3s.503-.1.684-.3a1.11 1.11 0 00.272-.759c0-.312-.091-.569-.272-.769a.855.855 0 00-.684-.309c-.275 0-.5.103-.675.309-.175.2-.263.456-.263.769 0 .3.087.553.263.759zM8.44 9.969c.181.2.409.3.684.3s.503-.1.684-.3a1.11 1.11 0 00.272-.759c0-.312-.091-.569-.272-.769-.175-.206-.403-.309-.684-.309s-.509.103-.684.309c-.175.2-.262.456-.262.769 0 .3.087.553.262.759z"
      /></symbol><symbol id="cart" viewBox="0 0 15 15"><path
        stroke-linejoin="round"
        stroke-linecap="round"
        stroke-miterlimit="10"
        stroke-width=".682"
        d="M12.273 3.821H2.728v10.506h9.545V3.821z"
      /><path
        stroke-linejoin="round"
        stroke-linecap="round"
        stroke-miterlimit="10"
        stroke-width=".682"
        d="M4.969 5.102V2.411c0-.961.705-1.73 1.538-1.73h1.986c.833 0 1.538.769 1.538 1.73v2.691"
      /></symbol><symbol id="facebook" viewBox="0 0 15 15"><path
        d="M10.461 7.775H8.554v6.988h-2.89V7.775H4.29V5.319h1.374V3.73c0-1.136.54-2.916 2.916-2.916l2.141.009v2.384H9.168c-.255 0-.613.127-.613.669v1.445h2.16l-.252 2.454z"
      /></symbol><symbol id="instagram" viewBox="0 0 15 15"><path
        d="M10.571.123H4.105A3.987 3.987 0 00.123 4.105v6.466a3.986 3.986 0 003.982 3.982h6.466a3.986 3.986 0 003.982-3.982V4.105A3.986 3.986 0 0010.571.123zm2.702 10.448a2.705 2.705 0 01-2.702 2.702H4.105a2.705 2.705 0 01-2.702-2.702V4.105a2.705 2.705 0 012.702-2.702h6.466a2.705 2.705 0 012.702 2.702v6.466z"
      /><path
        d="M7.339 3.62c-2.05 0-3.719 1.668-3.719 3.719s1.668 3.718 3.719 3.718c2.05 0 3.718-1.668 3.718-3.718S9.389 3.62 7.339 3.62zm0 6.156c-1.344 0-2.438-1.094-2.438-2.438S5.995 4.9 7.339 4.9s2.438 1.094 2.438 2.438a2.441 2.441 0 01-2.438 2.438zM11.213 2.534a.941.941 0 00-.939.939.945.945 0 00.939.939c.248 0 .489-.101.664-.275s.275-.417.275-.664a.942.942 0 00-.939-.939z"
      /></symbol><symbol id="phone" viewBox="0 0 15 15"><path
        fill="none"
        stroke="var(--color3, #000)"
        stroke-linejoin="round"
        stroke-linecap="round"
        stroke-miterlimit="10"
        stroke-width=".75"
        d="M10.262 14.237H4.738a1.362 1.362 0 01-1.363-1.363V2.113c0-.717.574-1.363 1.363-1.363h5.524c.717 0 1.363.574 1.363 1.363v10.761c0 .717-.646 1.363-1.363 1.363zM4.666 11.511h5.667"
      /><path
        d="M7.392 13.376a.502.502 0 100-1.005.502.502 0 000 1.005z"
      /></symbol><symbol id="vk" viewBox="0 0 15 15"><path
        d="M7.361 11.871h.888s.268-.029.405-.177c.126-.136.122-.39.122-.39s-.017-1.192.536-1.368c.545-.173 1.246 1.152 1.988 1.661.561.386.988.301.988.301l1.985-.028s1.038-.064.546-.88c-.04-.067-.287-.604-1.476-1.708-1.244-1.155-1.078-.968.421-2.966.913-1.217 1.278-1.96 1.164-2.278-.109-.303-.78-.223-.78-.223l-2.235.014s-.166-.023-.289.051c-.12.072-.197.24-.197.24s-.354.942-.825 1.742c-.995 1.69-1.393 1.779-1.556 1.674-.378-.245-.284-.982-.284-1.507 0-1.637.248-2.32-.484-2.497-.243-.059-.422-.097-1.043-.104-.797-.008-1.472.002-1.854.19-.254.124-.45.402-.331.418.148.02.482.09.66.332.229.312.221 1.011.221 1.011s.132 1.928-.307 2.167c-.301.164-.714-.171-1.602-1.704-.455-.785-.798-1.653-.798-1.653s-.066-.162-.184-.249a.93.93 0 00-.343-.139l-2.124.014s-.319.009-.436.147c-.104.123-.008.378-.008.378s1.663 3.89 3.545 5.85C5.4 11.987 7.36 11.869 7.36 11.869z"
      /></symbol><symbol id="close" viewBox="0 0 15 15"><path
        d="M15 1.511L13.489 0 7.5 5.989 1.511 0 0 1.511 5.989 7.5 0 13.489 1.511 15 7.5 9.011 13.489 15 15 13.489 9.011 7.5 15 1.511z"
      /></symbol></defs></svg>
