<svg width="45" height="17" viewBox="0 0 45 17" fill="none" xmlns="http://www.w3.org/2000/svg">
<path d="M35.259 17H10.031C4.76357 17 0.512695 13.2039 0.512695 8.5C0.512695 3.79612 4.76357 0 10.031 0H35.259C40.5264 0 44.7772 3.79612 44.7772 8.5C44.7772 13.2039 40.5264 17 35.259 17Z" fill="#6DCBBA"/>
<path d="M7.86864 6.61C7.74398 6.654 7.52031 6.71267 7.19764 6.786C6.87498 6.852 6.62198 6.896 6.43864 6.918L6.31764 6.148C6.71364 6.06733 7.12431 5.92433 7.54964 5.719C7.98231 5.50633 8.33431 5.28633 8.60564 5.059H8.61664L9.48564 5.18V11.23L10.7396 11.351V12H6.54864V11.351L7.86864 11.241V6.61ZM14.4577 12.11C13.5191 12.11 12.8004 11.7983 12.3017 11.175C11.8104 10.5443 11.5647 9.69 11.5647 8.612C11.5647 7.84933 11.7077 7.204 11.9937 6.676C12.2797 6.14067 12.6574 5.741 13.1267 5.477C13.6034 5.20567 14.1314 5.07 14.7107 5.07C15.6567 5.07 16.3681 5.37067 16.8447 5.972C17.3214 6.566 17.5597 7.40933 17.5597 8.502C17.5597 9.25733 17.4204 9.91 17.1417 10.46C16.8704 11.0027 16.5001 11.4133 16.0307 11.692C15.5614 11.9707 15.0371 12.11 14.4577 12.11ZM14.5677 11.45C15.0297 11.45 15.3671 11.2153 15.5797 10.746C15.7997 10.2693 15.9097 9.56167 15.9097 8.623C15.9097 7.62567 15.8071 6.896 15.6017 6.434C15.4037 5.96467 15.0627 5.73 14.5787 5.73C13.6694 5.73 13.2147 6.65033 13.2147 8.491C13.2147 9.47367 13.3211 10.2143 13.5337 10.713C13.7537 11.2043 14.0984 11.45 14.5677 11.45ZM21.6872 12.11C20.7486 12.11 20.0299 11.7983 19.5312 11.175C19.0399 10.5443 18.7942 9.69 18.7942 8.612C18.7942 7.84933 18.9372 7.204 19.2232 6.676C19.5092 6.14067 19.8869 5.741 20.3562 5.477C20.8329 5.20567 21.3609 5.07 21.9402 5.07C22.8862 5.07 23.5976 5.37067 24.0742 5.972C24.5509 6.566 24.7892 7.40933 24.7892 8.502C24.7892 9.25733 24.6499 9.91 24.3712 10.46C24.0999 11.0027 23.7296 11.4133 23.2602 11.692C22.7909 11.9707 22.2666 12.11 21.6872 12.11ZM21.7972 11.45C22.2592 11.45 22.5966 11.2153 22.8092 10.746C23.0292 10.2693 23.1392 9.56167 23.1392 8.623C23.1392 7.62567 23.0366 6.896 22.8312 6.434C22.6332 5.96467 22.2922 5.73 21.8082 5.73C20.8989 5.73 20.4442 6.65033 20.4442 8.491C20.4442 9.47367 20.5506 10.2143 20.7632 10.713C20.9832 11.2043 21.3279 11.45 21.7972 11.45ZM32.4807 3.739H33.5037L29.9727 12H28.9607L32.4807 3.739ZM27.9927 8.535C27.56 8.535 27.1897 8.43233 26.8817 8.227C26.5737 8.02167 26.339 7.743 26.1777 7.391C26.0164 7.039 25.9357 6.65033 25.9357 6.225C25.9357 5.73367 26.0347 5.30833 26.2327 4.949C26.4307 4.58233 26.6984 4.30367 27.0357 4.113C27.3804 3.92233 27.7617 3.827 28.1797 3.827C28.891 3.827 29.4117 4.03967 29.7417 4.465C30.079 4.89033 30.2477 5.455 30.2477 6.159C30.2477 6.65033 30.145 7.07567 29.9397 7.435C29.7417 7.79433 29.4704 8.06933 29.1257 8.26C28.781 8.44333 28.4034 8.535 27.9927 8.535ZM28.0807 7.875C28.3887 7.875 28.6124 7.72833 28.7517 7.435C28.8984 7.13433 28.9717 6.72367 28.9717 6.203C28.9717 5.70433 28.902 5.29733 28.7627 4.982C28.6307 4.65933 28.4144 4.498 28.1137 4.498C27.813 4.498 27.5894 4.64467 27.4427 4.938C27.296 5.23133 27.2227 5.63833 27.2227 6.159C27.2227 6.62833 27.2924 7.03167 27.4317 7.369C27.571 7.70633 27.7874 7.875 28.0807 7.875ZM34.2957 11.846C33.8704 11.846 33.5 11.7433 33.1847 11.538C32.8767 11.3253 32.642 11.0467 32.4807 10.702C32.3194 10.35 32.2387 9.96133 32.2387 9.536C32.2387 9.04467 32.3377 8.61933 32.5357 8.26C32.7337 7.89333 33.005 7.61467 33.3497 7.424C33.6944 7.23333 34.0757 7.138 34.4937 7.138C35.1977 7.138 35.7147 7.35067 36.0447 7.776C36.382 8.20133 36.5507 8.766 36.5507 9.47C36.5507 9.96133 36.448 10.3867 36.2427 10.746C36.0447 11.1053 35.7734 11.3803 35.4287 11.571C35.084 11.7543 34.7064 11.846 34.2957 11.846ZM34.3837 11.175C34.6917 11.175 34.9154 11.0283 35.0547 10.735C35.2014 10.4417 35.2747 10.0347 35.2747 9.514C35.2747 9.02267 35.205 8.61567 35.0657 8.293C34.9337 7.97033 34.721 7.809 34.4277 7.809C34.1197 7.809 33.8924 7.95567 33.7457 8.249C33.599 8.54233 33.5257 8.94933 33.5257 9.47C33.5257 9.93933 33.5954 10.3427 33.7347 10.68C33.874 11.01 34.0904 11.175 34.3837 11.175Z" fill="black"/>
</svg>
